<svg width="65" height="64" viewBox="0 0 65 64" fill="none" xmlns="http://www.w3.org/2000/svg">
<path d="M55.9674 20.79C58.7427 26.5945 59.2696 33.2213 57.4463 39.3914C55.623 45.5615 51.5788 50.8376 46.0942 54.2013C40.6097 57.5649 34.0735 58.7778 27.7473 57.6058C21.4211 56.4337 15.7533 52.9599 11.8377 47.8547C7.92211 42.7495 6.03639 36.3749 6.54445 29.9611C7.05251 23.5473 9.91835 17.5491 14.5889 13.124C19.2594 8.69897 25.4035 6.16081 31.8353 5.99941C38.2671 5.83801 44.5308 8.0648 49.4174 12.25L55.0849 6.58002C55.4602 6.20474 55.9692 5.99391 56.4999 5.99391C57.0306 5.99391 57.5396 6.20474 57.9149 6.58002C58.2902 6.9553 58.501 7.46429 58.501 7.99502C58.501 8.52575 58.2902 9.03474 57.9149 9.41002L33.9149 33.41C33.5396 33.7853 33.0306 33.9961 32.4999 33.9961C31.9692 33.9961 31.4602 33.7853 31.0849 33.41C30.7096 33.0347 30.4988 32.5257 30.4988 31.995C30.4988 31.4643 30.7096 30.9553 31.0849 30.58L38.0149 23.65C36.1368 22.4079 33.8944 21.836 31.6508 22.0269C29.4072 22.2178 27.2937 23.1603 25.6524 24.7018C24.0111 26.2434 22.9382 28.2937 22.6072 30.521C22.2762 32.7482 22.7066 35.022 23.8287 36.9742C24.9508 38.9264 26.6989 40.4427 28.79 41.2778C30.8812 42.1129 33.1929 42.2177 35.3511 41.5754C37.5092 40.9331 39.3874 39.5812 40.6817 37.7386C41.9759 35.896 42.6104 33.6706 42.4824 31.4225C42.4676 31.1599 42.5047 30.8969 42.5916 30.6486C42.6784 30.4003 42.8134 30.1715 42.9886 29.9754C43.1639 29.7792 43.3761 29.6195 43.6131 29.5053C43.8501 29.3912 44.1072 29.3248 44.3699 29.31C44.9003 29.2802 45.4209 29.4623 45.8171 29.8163C46.0132 29.9915 46.1729 30.2037 46.2871 30.4407C46.4013 30.6777 46.4676 30.9349 46.4824 31.1975C46.6647 34.3795 45.7559 37.5284 43.9061 40.1238C42.0563 42.7193 39.3763 44.6059 36.309 45.4718C33.2418 46.3377 29.9708 46.1312 27.0369 44.8863C24.1029 43.6413 21.6815 41.4326 20.1729 38.6251C18.6643 35.8175 18.1589 32.5793 18.74 29.4456C19.3212 26.3118 20.9542 23.4702 23.3692 21.3903C25.7842 19.3105 28.8366 18.1169 32.0218 18.0068C35.2071 17.8967 38.3346 18.8768 40.8874 20.785L46.5749 15.0975C42.4069 11.637 37.1073 9.83842 31.694 10.0472C26.2807 10.256 21.1354 12.4574 17.2464 16.2287C13.3573 19.9999 10.9987 25.0751 10.6235 30.4794C10.2483 35.8837 11.8831 41.2361 15.2138 45.5086C18.5445 49.781 23.3362 52.6723 28.6688 53.627C34.0013 54.5817 39.4986 53.5327 44.1047 50.6812C48.7109 47.8298 52.1011 43.3771 53.6244 38.1784C55.1476 32.9796 54.6964 27.4014 52.3574 22.515C52.1286 22.0363 52.0994 21.4863 52.2762 20.9861C52.4529 20.4858 52.8212 20.0763 53.2999 19.8475C53.7786 19.6188 54.3286 19.5896 54.8288 19.7663C55.3291 19.9431 55.7386 20.3113 55.9674 20.79Z" fill="white"/>
</svg>
