<svg width="65" height="64" viewBox="0 0 65 64" fill="none" xmlns="http://www.w3.org/2000/svg">
<path d="M57.6442 28.25L41.7867 22.5L36.0192 6.62503C35.735 5.85952 35.2234 5.19931 34.5531 4.73309C33.8827 4.26686 33.0857 4.01697 32.2692 4.01697C31.4526 4.01697 30.6557 4.26686 29.9853 4.73309C29.315 5.19931 28.8033 5.85952 28.5192 6.62503L22.7692 22.4825L6.89419 28.25C6.12868 28.5342 5.46847 29.0458 5.00225 29.7161C4.53603 30.3865 4.28613 31.1835 4.28613 32C4.28613 32.8166 4.53603 33.6136 5.00225 34.2839C5.46847 34.9543 6.12868 35.4659 6.89419 35.75L22.7517 41.5L28.5192 57.375C28.8033 58.1405 29.315 58.8007 29.9853 59.267C30.6557 59.7332 31.4526 59.9831 32.2692 59.9831C33.0857 59.9831 33.8827 59.7332 34.5531 59.267C35.2234 58.8007 35.735 58.1405 36.0192 57.375L41.7867 41.515L57.6442 35.75C58.4097 35.4659 59.0699 34.9543 59.5361 34.2839C60.0024 33.6136 60.2523 32.8166 60.2523 32C60.2523 31.1835 60.0024 30.3865 59.5361 29.7161C59.0699 29.0458 58.4097 28.5342 57.6442 28.25ZM40.4117 37.75C39.8645 37.9499 39.3675 38.2669 38.9555 38.6788C38.5436 39.0908 38.2266 39.5878 38.0267 40.135L32.2692 55.975L26.5192 40.1425C26.3195 39.5931 26.0017 39.0942 25.5884 38.6809C25.175 38.2675 24.6761 37.9498 24.1267 37.75L8.29419 32L24.1267 26.25C24.6761 26.0503 25.175 25.7326 25.5884 25.3192C26.0017 24.9058 26.3195 24.4069 26.5192 23.8575L32.2692 8.02503L38.0192 23.8575C38.2191 24.4048 38.5361 24.9017 38.948 25.3137C39.36 25.7257 39.8569 26.0427 40.4042 26.2425L56.2367 31.9925L40.4117 37.75Z" fill="white"/>
</svg>
