<svg width="65" height="64" viewBox="0 0 65 64" fill="none" xmlns="http://www.w3.org/2000/svg">
<path d="M62.6004 31.19C62.5129 30.9925 60.3954 26.295 55.6879 21.5875C49.4154 15.315 41.4929 12 32.7729 12C24.0529 12 16.1304 15.315 9.85793 21.5875C5.15043 26.295 3.02293 31 2.94543 31.19C2.83171 31.4458 2.77295 31.7226 2.77295 32.0025C2.77295 32.2824 2.83171 32.5592 2.94543 32.815C3.03293 33.0125 5.15043 37.7075 9.85793 42.415C16.1304 48.685 24.0529 52 32.7729 52C41.4929 52 49.4154 48.685 55.6879 42.415C60.3954 37.7075 62.5129 33.0125 62.6004 32.815C62.7141 32.5592 62.7729 32.2824 62.7729 32.0025C62.7729 31.7226 62.7141 31.4458 62.6004 31.19ZM32.7729 48C25.0779 48 18.3554 45.2025 12.7904 39.6875C10.507 37.4167 8.56439 34.8274 7.02293 32C8.56398 29.1723 10.5067 26.5829 12.7904 24.3125C18.3554 18.7975 25.0779 16 32.7729 16C40.4679 16 47.1904 18.7975 52.7554 24.3125C55.0433 26.5824 56.9902 29.1718 58.5354 32C56.7329 35.365 48.8804 48 32.7729 48ZM32.7729 20C30.3996 20 28.0795 20.7038 26.1061 22.0224C24.1327 23.3409 22.5946 25.2151 21.6864 27.4078C20.7781 29.6005 20.5405 32.0133 21.0035 34.3411C21.4665 36.6689 22.6094 38.8071 24.2876 40.4853C25.9659 42.1635 28.1041 43.3064 30.4318 43.7694C32.7596 44.2324 35.1724 43.9948 37.3651 43.0866C39.5578 42.1783 41.432 40.6402 42.7506 38.6668C44.0691 36.6935 44.7729 34.3734 44.7729 32C44.7696 28.8184 43.5043 25.7681 41.2546 23.5184C39.0048 21.2687 35.9545 20.0033 32.7729 20ZM32.7729 40C31.1907 40 29.644 39.5308 28.3284 38.6518C27.0128 37.7727 25.9874 36.5233 25.3819 35.0615C24.7764 33.5997 24.618 31.9911 24.9266 30.4393C25.2353 28.8874 25.9972 27.462 27.1161 26.3431C28.2349 25.2243 29.6604 24.4624 31.2122 24.1537C32.7641 23.845 34.3726 24.0035 35.8344 24.609C37.2962 25.2145 38.5456 26.2398 39.4247 27.5554C40.3037 28.871 40.7729 30.4177 40.7729 32C40.7729 34.1217 39.9301 36.1566 38.4298 37.6569C36.9295 39.1571 34.8947 40 32.7729 40Z" fill="white"/>
</svg>
