<svg width="28" height="28" viewBox="0 0 28 28" fill="none" xmlns="http://www.w3.org/2000/svg">
<path d="M20.2584 13.6992C19.8586 13.3972 19.4264 13.1404 18.97 12.9336C18.5839 9.69609 16.4544 8.68766 15.4886 8.39453C13.4105 7.76672 11.0338 8.51375 9.95422 10.1336C9.85762 10.2786 9.8226 10.4561 9.85685 10.627C9.89111 10.7978 9.99183 10.9481 10.1369 11.0447C10.2819 11.1413 10.4594 11.1763 10.6303 11.1421C10.8011 11.1078 10.9514 11.0071 11.048 10.862C11.807 9.72344 13.5909 9.19078 15.1102 9.65125C15.8998 9.88969 17.1216 10.5634 17.5591 12.4523C16.9098 12.3001 16.2451 12.2237 15.5783 12.2248C14.0984 12.2248 12.717 12.6033 11.69 13.2934C10.5 14.093 9.84375 15.2753 9.84375 16.625C9.84375 19.0312 11.8125 20.2913 13.7495 20.2913C14.4228 20.2866 15.0884 20.1468 15.7067 19.8802C16.325 19.6136 16.8835 19.2256 17.3491 18.7392C18.0687 17.99 18.9186 16.6491 19.0214 14.4452C19.1752 14.5372 19.3238 14.6376 19.4666 14.7459C20.6128 15.6122 21.2166 16.8678 21.2166 18.375C21.2166 20.58 18.9197 23.8438 13.9978 23.8438C11.037 23.8438 8.86594 22.8386 7.54469 20.8545C6.45313 19.2227 5.90625 16.9159 5.90625 14C5.90625 11.0841 6.45312 8.77734 7.54688 7.14547C8.86812 5.16141 11.0392 4.15625 14 4.15625C17.7023 4.15625 20.078 5.65141 21.2625 8.72813C21.325 8.89057 21.4495 9.02153 21.6086 9.09219C21.7676 9.16286 21.9483 9.16743 22.1107 9.10492C22.2731 9.04241 22.4041 8.91793 22.4748 8.75886C22.5454 8.59979 22.55 8.41916 22.4875 8.25672C21.1094 4.66484 18.2492 2.84375 14 2.84375C10.5733 2.84375 8.03469 4.04687 6.45312 6.41703C5.21938 8.26875 4.59375 10.8205 4.59375 14C4.59375 17.1795 5.21938 19.7313 6.45312 21.583C8.03469 23.9531 10.5733 25.1562 14 25.1562C17.2189 25.1562 19.2292 23.9323 20.3492 22.9053C21.7153 21.6562 22.5312 19.9598 22.5312 18.375C22.5312 16.4402 21.7448 14.8225 20.2584 13.6992ZM16.4062 17.8281C16.0634 18.1875 15.6518 18.4744 15.1961 18.6719C14.7403 18.8693 14.2495 18.9733 13.7528 18.9777C11.958 18.9787 11.1562 17.7964 11.1562 16.625C11.1562 15.1386 12.5388 13.5395 15.5761 13.5395C16.3025 13.5394 17.0246 13.6501 17.7177 13.8677C17.7177 13.9125 17.7177 13.9573 17.7177 14.0033C17.7188 15.61 17.2638 16.9334 16.4062 17.8281Z" fill="white"/>
</svg>
