<svg width="32" height="32" viewBox="0 0 32 32" fill="none" xmlns="http://www.w3.org/2000/svg">
<path d="M26.53 12.5301L16.53 22.5301C16.3894 22.6705 16.1988 22.7494 16 22.7494C15.8013 22.7494 15.6107 22.6705 15.47 22.5301L5.47003 12.5301C5.33755 12.3879 5.26543 12.1999 5.26885 12.0056C5.27228 11.8113 5.35099 11.6259 5.48841 11.4885C5.62582 11.3511 5.81121 11.2723 6.00551 11.2689C6.19981 11.2655 6.38785 11.3376 6.53003 11.4701L16 20.9388L25.47 11.4701C25.6122 11.3376 25.8003 11.2655 25.9946 11.2689C26.1889 11.2723 26.3742 11.3511 26.5117 11.4885C26.6491 11.6259 26.7278 11.8113 26.7312 12.0056C26.7346 12.1999 26.6625 12.3879 26.53 12.5301Z" fill="#333333"/>
</svg>
