<svg width="37" height="27" viewBox="0 0 37 27" fill="none" xmlns="http://www.w3.org/2000/svg">
<path d="M36.3919 1.89245L12.3919 25.868C12.181 26.0785 11.8951 26.1967 11.5969 26.1967C11.2988 26.1967 11.0129 26.0785 10.8019 25.868L0.301937 15.3787C0.103217 15.1657 -0.00496705 14.8839 0.000175271 14.5927C0.0053176 14.3016 0.123385 14.0238 0.329505 13.8179C0.535624 13.612 0.813702 13.494 1.10515 13.4889C1.39661 13.4837 1.67868 13.5918 1.89194 13.7903L11.5969 23.4836L34.8019 0.304073C35.0152 0.105555 35.2973 -0.00252059 35.5887 0.0026165C35.8802 0.00775358 36.1583 0.125702 36.3644 0.331612C36.5705 0.537522 36.6886 0.815316 36.6937 1.10647C36.6988 1.39763 36.5907 1.67941 36.3919 1.89245Z" fill="white"/>
</svg>
