<svg width="25" height="25" viewBox="0 0 25 25" fill="none" xmlns="http://www.w3.org/2000/svg">
<path d="M19.6955 14.7831L15.7736 12.8223C15.6578 12.7647 15.5288 12.7387 15.3997 12.7469C15.2706 12.755 15.1459 12.7971 15.0383 12.8689L13.1165 14.1495C12.1436 13.6515 11.3521 12.8601 10.8541 11.8873L12.1361 9.96691C12.2078 9.85928 12.2499 9.73462 12.2581 9.60552C12.2663 9.47642 12.2402 9.34744 12.1826 9.23162L10.2217 5.31005C10.1607 5.18736 10.0667 5.08414 9.95015 5.01203C9.83364 4.93993 9.69931 4.90181 9.56229 4.90196C8.32711 4.90196 7.14251 5.39259 6.2691 6.26592C5.39569 7.13926 4.90502 8.32375 4.90502 9.55882C4.90826 12.353 6.01978 15.0318 7.99574 17.0076C9.9717 18.9834 12.6507 20.0948 15.4452 20.098C16.6804 20.098 17.8649 19.6074 18.7384 18.7341C19.6118 17.8607 20.1024 16.6763 20.1024 15.4412C20.1025 15.3045 20.0644 15.1705 19.9926 15.0543C19.9207 14.938 19.8178 14.8441 19.6955 14.7831ZM15.4452 18.6275C13.0407 18.6245 10.7356 17.6682 9.03534 15.9681C7.33512 14.268 6.37866 11.9631 6.37574 9.55882C6.37581 8.78982 6.65401 8.04679 7.15903 7.46682C7.66404 6.88685 8.36179 6.50907 9.12353 6.40319L10.6751 9.50613L9.40174 11.4154C9.33483 11.5161 9.29379 11.6318 9.28225 11.7521C9.2707 11.8725 9.28901 11.9938 9.33556 12.1054C10.0118 13.7129 11.2907 14.9918 12.8984 15.6679C13.01 15.7144 13.1313 15.7327 13.2517 15.7212C13.372 15.7097 13.4877 15.6686 13.5884 15.6017L15.4979 14.3284L18.6011 15.8799C18.4952 16.6416 18.1174 17.3393 17.5374 17.8442C16.9573 18.3492 16.2142 18.6274 15.4452 18.6275ZM12.5037 2.7551e-07C10.3366 -0.000454622 8.2066 0.562411 6.32265 1.63338C4.43871 2.70434 2.86556 4.24662 1.75754 6.1089C0.649518 7.97117 0.0446856 10.0895 0.00238251 12.256C-0.0399206 14.4225 0.481758 16.5628 1.51624 18.4669L0.0920936 22.7402C-0.0087284 23.0425 -0.02336 23.3669 0.0498388 23.677C0.123038 23.9872 0.281174 24.2708 0.506523 24.4961C0.731873 24.7215 1.01553 24.8796 1.3257 24.9528C1.63588 25.026 1.9603 25.0114 2.26263 24.9105L6.53629 23.4865C8.20921 24.3943 10.0673 24.9081 11.969 24.9888C13.8707 25.0694 15.7657 24.7148 17.5095 23.952C19.2533 23.1892 20.7998 22.0383 22.0313 20.587C23.2627 19.1358 24.1464 17.4225 24.6151 15.5779C25.0838 13.7333 25.125 11.8061 24.7357 9.94308C24.3463 8.08011 23.5367 6.33064 22.3685 4.82806C21.2003 3.32548 19.7043 2.10948 17.9948 1.27277C16.2852 0.436056 14.4071 0.000736348 12.5037 2.7551e-07ZM12.5037 23.5294C10.5648 23.5299 8.65991 23.0193 6.98118 22.049C6.86927 21.9847 6.74259 21.9505 6.6135 21.9498C6.53438 21.9502 6.45581 21.963 6.38064 21.9877L1.79813 23.5147C1.75494 23.5291 1.70859 23.5312 1.66428 23.5207C1.61997 23.5103 1.57945 23.4877 1.54725 23.4555C1.51506 23.4233 1.49247 23.3828 1.48201 23.3385C1.47156 23.2942 1.47365 23.2478 1.48805 23.2047L3.01515 18.6275C3.04819 18.5285 3.05981 18.4237 3.04925 18.32C3.03868 18.2163 3.00617 18.116 2.95387 18.0257C1.73716 15.9241 1.2481 13.4798 1.56256 11.0719C1.87701 8.66398 2.97741 6.42716 4.69303 4.70843C6.40864 2.98971 8.64357 1.88517 11.0511 1.56617C13.4586 1.24717 15.9041 1.73155 18.0082 2.94416C20.1123 4.15676 21.7573 6.02981 22.6881 8.27271C23.6189 10.5156 23.7834 13.003 23.1562 15.3489C22.5289 17.6948 21.1448 19.7682 19.2188 21.2473C17.2927 22.7264 14.9323 23.5286 12.5037 23.5294Z" fill="#8F0606"/>
</svg>
