<svg width="26" height="26" viewBox="0 0 26 26" fill="none" xmlns="http://www.w3.org/2000/svg">
<path d="M12.75 0.271484C10.2283 0.271484 7.76321 1.0185 5.66648 2.41806C3.56976 3.81762 1.93556 5.80687 0.970541 8.13426C0.00552416 10.4616 -0.246968 13.0226 0.244993 15.4934C0.736955 17.9641 1.95127 20.2336 3.73439 22.0149C5.51751 23.7962 7.78935 25.0093 10.2626 25.5008C12.7359 25.9922 15.2995 25.74 17.6292 24.776C19.959 23.8119 21.9503 22.1794 23.3512 20.0848C24.7522 17.9902 25.5 15.5276 25.5 13.0085C25.496 9.63165 24.1515 6.39425 21.7612 4.00645C19.371 1.61866 16.1303 0.27545 12.75 0.271484ZM13.5 24.2221V15.7557H16.75C16.9489 15.7557 17.1397 15.6768 17.2803 15.5363C17.421 15.3957 17.5 15.2052 17.5 15.0065C17.5 14.8078 17.421 14.6172 17.2803 14.4767C17.1397 14.3362 16.9489 14.2572 16.75 14.2572H13.5V11.0105C13.5 10.4144 13.7371 9.8427 14.159 9.42117C14.581 8.99964 15.1533 8.76283 15.75 8.76283H17.75C17.9489 8.76283 18.1397 8.68389 18.2803 8.54338C18.421 8.40287 18.5 8.2123 18.5 8.01359C18.5 7.81488 18.421 7.62431 18.2803 7.4838C18.1397 7.34329 17.9489 7.26436 17.75 7.26436H15.75C14.7554 7.26436 13.8016 7.65904 13.0984 8.36159C12.3951 9.06413 12 10.017 12 11.0105V14.2572H8.75001C8.55109 14.2572 8.36033 14.3362 8.21968 14.4767C8.07902 14.6172 8.00001 14.8078 8.00001 15.0065C8.00001 15.2052 8.07902 15.3957 8.21968 15.5363C8.36033 15.6768 8.55109 15.7557 8.75001 15.7557H12V24.2221C9.08778 24.0277 6.36517 22.7102 4.40713 20.548C2.4491 18.3857 1.40892 15.5478 1.50626 12.6337C1.60361 9.71958 2.83086 6.95731 4.92884 4.93024C7.02682 2.90317 9.83129 1.76998 12.75 1.76998C15.6687 1.76998 18.4732 2.90317 20.5712 4.93024C22.6692 6.95731 23.8964 9.71958 23.9937 12.6337C24.0911 15.5478 23.0509 18.3857 21.0929 20.548C19.1348 22.7102 16.4122 24.0277 13.5 24.2221Z" fill="#8F0606"/>
</svg>
