<svg width="28" height="28" viewBox="0 0 28 28" fill="none" xmlns="http://www.w3.org/2000/svg">
<path d="M20.5165 15.8419L17.0165 14.0919C16.8788 14.0232 16.7253 13.9921 16.5717 14.0017C16.4181 14.0113 16.2697 14.0613 16.1415 14.1466L14.5348 15.2184C13.7973 14.813 13.1903 14.206 12.7848 13.4684L13.8567 11.8617C13.942 11.7336 13.9919 11.5852 14.0015 11.4316C14.0111 11.2779 13.98 11.1245 13.9114 10.9867L12.1614 7.48672C12.0889 7.34023 11.9767 7.217 11.8377 7.13097C11.6987 7.04495 11.5384 6.99958 11.375 7C10.2147 7 9.10186 7.46094 8.28139 8.28141C7.46092 9.10188 6.99998 10.2147 6.99998 11.375C7.00288 13.9268 8.01786 16.3733 9.82227 18.1777C11.6267 19.9821 14.0732 20.9971 16.625 21C17.1995 21 17.7684 20.8868 18.2992 20.667C18.83 20.4471 19.3123 20.1248 19.7186 19.7186C20.1248 19.3123 20.4471 18.83 20.667 18.2992C20.8868 17.7684 21 17.1995 21 16.625C21.0001 16.4624 20.9549 16.3031 20.8695 16.1647C20.7842 16.0264 20.6619 15.9146 20.5165 15.8419ZM16.625 19.25C14.5371 19.2477 12.5354 18.4173 11.0591 16.9409C9.58273 15.4646 8.7523 13.4629 8.74998 11.375C8.74981 10.7681 8.95994 10.1799 9.34461 9.71047C9.72928 9.24105 10.2647 8.91942 10.8598 8.80031L12.1154 11.3159L11.0469 12.9062C10.967 13.026 10.9179 13.1637 10.904 13.3069C10.8901 13.4502 10.9117 13.5947 10.967 13.7277C11.5931 15.2156 12.7767 16.3993 14.2647 17.0253C14.398 17.0831 14.5436 17.1067 14.6883 17.0941C14.8331 17.0815 14.9724 17.033 15.0937 16.9531L16.6917 15.8878L19.2073 17.1434C19.0873 17.7392 18.7643 18.2749 18.2933 18.6591C17.8224 19.0432 17.2327 19.2521 16.625 19.25ZM14 2.625C12.0361 2.62457 10.1056 3.1326 8.39632 4.09963C6.68705 5.06665 5.25725 6.45974 4.24611 8.1433C3.23496 9.82685 2.67691 11.7435 2.62628 13.7067C2.57565 15.6699 3.03415 17.6128 3.95717 19.3463L2.71576 23.0705C2.61293 23.3788 2.59801 23.7097 2.67267 24.026C2.74732 24.3424 2.90861 24.6317 3.13844 24.8615C3.36828 25.0914 3.65758 25.2527 3.97393 25.3273C4.29028 25.402 4.62117 25.387 4.92951 25.2842L8.65373 24.0428C10.1793 24.8542 11.8696 25.3074 13.5964 25.368C15.3232 25.4286 17.0412 25.095 18.6198 24.3925C20.1985 23.69 21.5964 22.6372 22.7073 21.3138C23.8183 19.9904 24.6132 18.4313 25.0317 16.7549C25.4502 15.0784 25.4812 13.3287 25.1225 11.6384C24.7637 9.94817 24.0247 8.36187 22.9613 6.99991C21.898 5.63795 20.5384 4.53613 18.9856 3.77809C17.4329 3.02005 15.7279 2.62571 14 2.625ZM14 23.625C12.3079 23.6262 10.6456 23.1806 9.18092 22.3333C9.07368 22.2711 8.95446 22.2324 8.83114 22.2198C8.70782 22.2071 8.58322 22.2208 8.46561 22.26L4.37498 23.625L5.73889 19.5344C5.7782 19.4168 5.7921 19.2923 5.77965 19.169C5.76721 19.0456 5.72871 18.9264 5.6667 18.8191C4.60573 16.9847 4.17976 14.8516 4.45486 12.7505C4.72996 10.6493 5.69075 8.69774 7.1882 7.1984C8.68565 5.69906 10.636 4.7358 12.7368 4.45804C14.8376 4.18029 16.9713 4.60357 18.8069 5.66222C20.6426 6.72087 22.0776 8.35571 22.8893 10.3131C23.701 12.2706 23.844 14.4411 23.2962 16.4882C22.7484 18.5352 21.5404 20.3442 19.8596 21.6346C18.1787 22.925 16.119 23.6247 14 23.625Z" fill="white"/>
</svg>
