<svg width="28" height="28" viewBox="0 0 28 28" fill="none" xmlns="http://www.w3.org/2000/svg">
<path d="M23.3034 23.2728L16.3669 12.3725L23.2356 4.81253C23.3024 4.75055 23.3556 4.67533 23.3917 4.59168C23.4278 4.50803 23.4461 4.41778 23.4454 4.32667C23.4447 4.23556 23.4251 4.14558 23.3877 4.06248C23.3504 3.97937 23.2961 3.90496 23.2284 3.84397C23.1607 3.78299 23.0811 3.73677 22.9945 3.70825C22.908 3.67974 22.8165 3.66956 22.7258 3.67836C22.6351 3.68716 22.5472 3.71475 22.4678 3.75937C22.3884 3.80399 22.3191 3.86467 22.2644 3.93753L15.6406 11.2241L11.0578 4.02284C10.9982 3.92908 10.9157 3.852 10.8182 3.79881C10.7206 3.74563 10.6111 3.71809 10.5 3.71878H5.25C5.13245 3.71884 5.01706 3.75047 4.91591 3.81037C4.81476 3.87027 4.73156 3.95624 4.675 4.0593C4.61844 4.16236 4.5906 4.27871 4.5944 4.39621C4.59819 4.5137 4.63348 4.62802 4.69657 4.72722L11.6331 15.6275L4.76438 23.1875C4.66596 23.3186 4.62017 23.4818 4.636 23.6449C4.65183 23.8081 4.72815 23.9594 4.84993 24.0691C4.97171 24.1788 5.13015 24.239 5.29406 24.2378C5.45797 24.2366 5.61549 24.174 5.73563 24.0625L12.3594 16.776L16.9422 23.9772C17.0018 24.071 17.0843 24.1481 17.1818 24.2012C17.2794 24.2544 17.3889 24.282 17.5 24.2813H22.75C22.8676 24.2812 22.9829 24.2496 23.0841 24.1897C23.1852 24.1298 23.2684 24.0438 23.325 23.9408C23.3816 23.8377 23.4094 23.7213 23.4056 23.6039C23.4018 23.4864 23.3665 23.372 23.3034 23.2728ZM17.8598 22.9688L6.44547 5.03128H10.1402L21.5545 22.9688H17.8598Z" fill="white"/>
</svg>
