<svg width="22" height="24" viewBox="0 0 22 24" fill="none" xmlns="http://www.w3.org/2000/svg">
<path d="M21.3822 22.6449L13.4547 10.2001L21.3047 1.56889C21.381 1.49812 21.4417 1.41225 21.483 1.31675C21.5243 1.22124 21.5452 1.1182 21.5444 1.01418C21.5436 0.910156 21.5212 0.807435 21.4785 0.712555C21.4358 0.617676 21.3738 0.532718 21.2964 0.46309C21.2191 0.393463 21.128 0.340693 21.0291 0.308139C20.9302 0.275586 20.8256 0.263963 20.722 0.274011C20.6183 0.284059 20.5179 0.315557 20.4271 0.3665C20.3363 0.417443 20.2572 0.486715 20.1947 0.569903L12.6247 8.88893L7.38715 0.667304C7.319 0.560256 7.22476 0.472248 7.11326 0.41153C7.00176 0.350812 6.87664 0.319372 6.74965 0.320158H0.749655C0.615304 0.32022 0.483436 0.356333 0.367835 0.424722C0.252235 0.493111 0.157145 0.591265 0.0925071 0.708925C0.0278688 0.826585 -0.00394502 0.959429 0.000390741 1.09357C0.0047265 1.22772 0.0450527 1.35824 0.117154 1.47148L8.04465 13.9163L0.194655 22.5475C0.0821808 22.6972 0.0298421 22.8834 0.0479367 23.0697C0.0660312 23.256 0.153249 23.4287 0.292429 23.554C0.431609 23.6793 0.612675 23.748 0.800002 23.7466C0.987329 23.7452 1.16735 23.6738 1.30465 23.5465L8.87465 15.2275L14.1122 23.4491C14.1803 23.5561 14.2745 23.6441 14.3861 23.7049C14.4976 23.7656 14.6227 23.797 14.7497 23.7962H20.7497C20.884 23.7962 21.0159 23.7601 21.1315 23.6917C21.2471 23.6233 21.3422 23.5251 21.4068 23.4075C21.4714 23.2898 21.5033 23.157 21.4989 23.0228C21.4946 22.8887 21.4543 22.7582 21.3822 22.6449ZM15.1609 22.2978L2.1159 1.81863H6.3384L19.3834 22.2978H15.1609Z" fill="#8F0606"/>
</svg>
