<svg width="32" height="32" viewBox="0 0 32 32" fill="none" xmlns="http://www.w3.org/2000/svg">
<path d="M26.53 20.5301C26.3894 20.6705 26.1988 20.7494 26 20.7494C25.8013 20.7494 25.6107 20.6705 25.47 20.5301L16 11.0613L6.53003 20.5301C6.38785 20.6626 6.19981 20.7347 6.00551 20.7312C5.81121 20.7278 5.62582 20.6491 5.48841 20.5117C5.35099 20.3743 5.27228 20.1889 5.26885 19.9946C5.26543 19.8003 5.33755 19.6122 5.47003 19.4701L15.47 9.47007C15.6107 9.32962 15.8013 9.25073 16 9.25073C16.1988 9.25073 16.3894 9.32962 16.53 9.47007L26.53 19.4701C26.6705 19.6107 26.7494 19.8013 26.7494 20.0001C26.7494 20.1988 26.6705 20.3894 26.53 20.5301Z" fill="#333333"/>
</svg>
