<svg width="26" height="26" viewBox="0 0 26 26" fill="none" xmlns="http://www.w3.org/2000/svg">
<path d="M12.75 7.26436C11.6128 7.26436 10.5011 7.60124 9.55547 8.23242C8.60989 8.86359 7.8729 9.76071 7.43769 10.8103C7.00249 11.8599 6.88862 13.0149 7.11049 14.1291C7.33235 15.2434 7.87998 16.2669 8.68414 17.0702C9.48829 17.8736 10.5128 18.4206 11.6282 18.6423C12.7436 18.8639 13.8998 18.7502 14.9504 18.3154C16.0011 17.8806 16.8991 17.1444 17.531 16.1998C18.1628 15.2552 18.5 14.1446 18.5 13.0085C18.498 11.4857 17.8916 10.0258 16.8137 8.94897C15.7358 7.87216 14.2744 7.26634 12.75 7.26436ZM12.75 17.2542C11.9094 17.2542 11.0877 17.0052 10.3888 16.5387C9.68992 16.0721 9.14518 15.409 8.82351 14.6332C8.50184 13.8575 8.41768 13.0038 8.58166 12.1802C8.74565 11.3566 9.15042 10.6001 9.7448 10.0064C10.3392 9.41259 11.0964 9.00823 11.9209 8.84441C12.7453 8.68059 13.5998 8.76467 14.3764 9.08601C15.153 9.40736 15.8168 9.95153 16.2837 10.6497C16.7507 11.3479 17 12.1688 17 13.0085C17 14.1345 16.5522 15.2144 15.7552 16.0106C14.9582 16.8069 13.8772 17.2542 12.75 17.2542ZM18.75 0.271484H6.75C4.9604 0.273467 3.24466 0.984539 1.97922 2.24869C0.713781 3.51284 0.00198514 5.22683 0 7.01461V19.0024C0.00198514 20.7902 0.713781 22.5042 1.97922 23.7683C3.24466 25.0325 4.9604 25.7435 6.75 25.7455H18.75C20.5396 25.7435 22.2553 25.0325 23.5208 23.7683C24.7862 22.5042 25.498 20.7902 25.5 19.0024V7.01461C25.498 5.22683 24.7862 3.51284 23.5208 2.24869C22.2553 0.984539 20.5396 0.273467 18.75 0.271484ZM24 19.0024C24 20.3934 23.4469 21.7274 22.4623 22.7109C21.4777 23.6945 20.1424 24.247 18.75 24.247H6.75C5.35761 24.247 4.02225 23.6945 3.03769 22.7109C2.05312 21.7274 1.5 20.3934 1.5 19.0024V7.01461C1.5 5.62364 2.05312 4.28964 3.03769 3.30608C4.02225 2.32252 5.35761 1.76996 6.75 1.76996H18.75C20.1424 1.76996 21.4777 2.32252 22.4623 3.30608C23.4469 4.28964 24 5.62364 24 7.01461V19.0024ZM20.5 6.51512C20.5 6.76209 20.4267 7.00352 20.2893 7.20888C20.152 7.41423 19.9568 7.57428 19.7284 7.66879C19.4999 7.76331 19.2486 7.78804 19.0061 7.73985C18.7637 7.69167 18.5409 7.57274 18.3661 7.3981C18.1913 7.22347 18.0723 7.00096 18.024 6.75873C17.9758 6.51651 18.0005 6.26543 18.0951 6.03725C18.1898 5.80908 18.35 5.61405 18.5555 5.47684C18.7611 5.33963 19.0028 5.26639 19.25 5.26639C19.5815 5.26639 19.8995 5.39795 20.1339 5.63214C20.3683 5.86632 20.5 6.18394 20.5 6.51512Z" fill="#8F0606"/>
</svg>
