<svg width="28" height="28" viewBox="0 0 28 28" fill="none" xmlns="http://www.w3.org/2000/svg">
<path d="M17.8642 13.4531L12.6142 9.95315C12.5153 9.88717 12.4004 9.84929 12.2816 9.84356C12.1629 9.83783 12.0448 9.86447 11.94 9.92062C11.8352 9.97678 11.7477 10.0603 11.6867 10.1624C11.6257 10.2644 11.5936 10.3811 11.5938 10.5V17.5C11.5936 17.6189 11.6257 17.7356 11.6867 17.8377C11.7477 17.9397 11.8352 18.0233 11.94 18.0794C12.0448 18.1356 12.1629 18.1622 12.2816 18.1565C12.4004 18.1508 12.5153 18.1129 12.6142 18.0469L17.8642 14.5469C17.9545 14.487 18.0285 14.4058 18.0797 14.3103C18.1309 14.2149 18.1577 14.1083 18.1577 14C18.1577 13.8917 18.1309 13.7851 18.0797 13.6897C18.0285 13.5943 17.9545 13.513 17.8642 13.4531ZM12.9063 16.2739V11.7261L16.3166 14L12.9063 16.2739ZM25.4188 7.65627C25.3238 7.28735 25.1426 6.94625 24.8901 6.66103C24.6376 6.37581 24.3209 6.15461 23.9663 6.01565C20.2344 4.5708 14.2483 4.59377 14 4.59377C13.7517 4.59377 7.76563 4.5708 4.02938 6.01565C3.6755 6.15518 3.35975 6.37663 3.10802 6.66182C2.85629 6.947 2.67577 7.28781 2.58125 7.65627C2.30234 8.73799 1.96875 10.7188 1.96875 14C1.96875 17.2813 2.30234 19.2621 2.58125 20.3438C2.67621 20.7127 2.8574 21.0538 3.10991 21.339C3.36243 21.6242 3.67906 21.8454 4.03375 21.9844C7.76563 23.4292 13.7506 23.4063 14 23.4063H14.0777C14.8334 23.4063 20.4214 23.3581 23.9706 21.9844C24.3253 21.8454 24.6419 21.6242 24.8945 21.339C25.147 21.0538 25.3282 20.7127 25.4231 20.3438C25.702 19.2642 26.0356 17.2889 26.0356 14C26.0356 10.7111 25.7031 8.73799 25.4188 7.65627ZM24.1478 20.0156C24.1057 20.1838 24.0242 20.3395 23.9101 20.4699C23.796 20.6004 23.6526 20.7018 23.4916 20.766C19.9916 22.1146 14.0634 22.0938 14 22.0938C13.9366 22.0938 8.01609 22.1156 4.51172 20.7627C4.35071 20.6986 4.20725 20.5971 4.09315 20.4666C3.97905 20.3362 3.89759 20.1805 3.85547 20.0124C3.59188 19.0072 3.28125 17.1478 3.28125 14C3.28125 10.8522 3.59188 8.99283 3.85219 7.9844C3.89431 7.81628 3.97577 7.66059 4.08987 7.53013C4.20397 7.39968 4.34743 7.29821 4.50844 7.23408C7.88156 5.93471 13.5111 5.90627 13.9738 5.90627H14C14.0591 5.90627 19.9839 5.8844 23.4883 7.23737C23.6493 7.30149 23.7928 7.40296 23.9069 7.53342C24.0209 7.66387 24.1024 7.81957 24.1445 7.98768C24.4048 8.99283 24.7155 10.8522 24.7155 14.0033C24.7155 17.1544 24.4081 19.0072 24.1478 20.0156Z" fill="white"/>
</svg>
