<svg width="28" height="28" viewBox="0 0 28 28" fill="none" xmlns="http://www.w3.org/2000/svg">
<path d="M14 2.625C11.7502 2.625 9.551 3.29213 7.68039 4.54203C5.80978 5.79193 4.35182 7.56847 3.49088 9.64698C2.62993 11.7255 2.40467 14.0126 2.84357 16.2192C3.28248 18.4257 4.36584 20.4525 5.95667 22.0433C7.54749 23.6342 9.57432 24.7175 11.7809 25.1564C13.9874 25.5953 16.2745 25.3701 18.353 24.5091C20.4315 23.6482 22.2081 22.1902 23.458 20.3196C24.7079 18.449 25.375 16.2498 25.375 14C25.3718 10.9841 24.1724 8.09271 22.0398 5.96018C19.9073 3.82764 17.0159 2.62818 14 2.625ZM14.875 23.5845V16.625H17.5C17.7321 16.625 17.9546 16.5328 18.1187 16.3687C18.2828 16.2046 18.375 15.9821 18.375 15.75C18.375 15.5179 18.2828 15.2954 18.1187 15.1313C17.9546 14.9672 17.7321 14.875 17.5 14.875H14.875V12.25C14.875 11.7859 15.0594 11.3408 15.3876 11.0126C15.7158 10.6844 16.1609 10.5 16.625 10.5H18.375C18.6071 10.5 18.8296 10.4078 18.9937 10.2437C19.1578 10.0796 19.25 9.85706 19.25 9.625C19.25 9.39294 19.1578 9.17038 18.9937 9.00628C18.8296 8.84219 18.6071 8.75 18.375 8.75H16.625C15.6967 8.75 14.8065 9.11875 14.1501 9.77513C13.4938 10.4315 13.125 11.3217 13.125 12.25V14.875H10.5C10.2679 14.875 10.0454 14.9672 9.88129 15.1313C9.71719 15.2954 9.625 15.5179 9.625 15.75C9.625 15.9821 9.71719 16.2046 9.88129 16.3687C10.0454 16.5328 10.2679 16.625 10.5 16.625H13.125V23.5845C10.6584 23.3594 8.3735 22.1919 6.74564 20.3251C5.11778 18.4583 4.27227 16.0358 4.38497 13.5614C4.49768 11.0871 5.55992 8.75148 7.35074 7.04037C9.14157 5.32925 11.5231 4.37439 14 4.37439C16.4769 4.37439 18.8584 5.32925 20.6493 7.04037C22.4401 8.75148 23.5023 11.0871 23.615 13.5614C23.7277 16.0358 22.8822 18.4583 21.2544 20.3251C19.6265 22.1919 17.3416 23.3594 14.875 23.5845Z" fill="white"/>
</svg>
