<svg width="120" height="120" viewBox="0 0 120 120" fill="none" xmlns="http://www.w3.org/2000/svg">
<path d="M105.306 19.0455C114.823 59.2973 132.97 83.7935 105.306 108.494C77.641 133.195 54.2704 111.853 17.9905 102.442C-18.2894 93.0302 7.175 24.0124 34.1149 19.0455C61.0548 14.0786 95.7884 -21.2064 105.306 19.0455Z" fill="#EAEAEA"/>
<path d="M57.5586 11.5858C56.5625 11.8201 56.3281 11.9373 40.1758 20.5116C32.7734 24.4373 26.3867 27.8944 25.9961 28.1873C24.4336 29.4178 23.5742 32.1327 24.1211 34.1444L24.375 35.1405L22.0312 35.2381C20.2539 35.3162 19.3945 35.453 18.5547 35.7655C17.0703 36.3319 15.4492 37.8162 14.7461 39.2616L14.1992 40.3748L14.1016 67.6209L14.0039 94.867L12.4414 94.9256C10.1172 95.0037 10 95.1795 10 98.0897C10 100.961 10.2148 102.133 11.0742 103.871C11.9727 105.687 13.5742 107.23 15.6055 108.207L17.1289 108.93L59.4141 108.988C87.7539 109.027 102.012 108.969 102.637 108.832C104.238 108.5 105.723 107.64 107.09 106.293C109.277 104.144 110 102.152 110 98.2655C110 96.2733 109.961 95.9412 109.609 95.492C109.238 95.0233 109.062 94.9842 107.598 94.9256L105.996 94.867L105.898 67.6209L105.801 40.3748L105.254 39.2811C104.668 38.0702 103.242 36.6248 102.07 36.0194C101.035 35.492 99.3359 35.1991 97.3047 35.1991H95.6055L95.8789 34.1639C96.4062 32.2303 95.7227 29.867 94.2383 28.4608C93.7695 27.992 89.9805 25.8826 83.5742 22.4842C73.2617 17.0155 72.7539 16.8006 72.0508 17.5819C71.6211 18.0701 71.6211 19.242 72.0703 19.6131C72.2461 19.7694 76.7188 22.1717 81.9727 24.9451C92.0898 30.2772 92.8516 30.785 93.1055 32.1327C93.2617 32.953 92.832 34.3592 92.2656 34.867C91.875 35.2186 73.1836 45.16 72.9492 45.1405C72.8516 45.1405 70.4297 42.4061 67.5195 39.0858C60.3516 30.8631 60.7617 31.2928 60.0391 31.2928C59.2188 31.2928 58.6328 31.8983 58.6328 32.7186C58.6328 33.285 59.3359 34.1639 64.4141 39.9647C67.5977 43.5975 70.1172 46.6248 70.0391 46.7225C69.9414 46.8006 68.2031 47.7577 66.1523 48.8319C61.8164 51.117 60.7422 51.4491 58.7891 51.0389C57.8125 50.8436 54.5898 49.2225 42.8125 42.9725C34.707 38.6756 27.9102 35.0428 27.7344 34.867C27.5391 34.7108 27.2461 34.1834 27.0703 33.7147C26.6406 32.6014 26.8359 31.6444 27.6367 30.785C28.0859 30.3162 32.4219 27.9139 42.3242 22.66C50.0586 18.5584 56.9141 15.0037 57.5391 14.7303C58.5156 14.3397 58.9453 14.2811 60.3125 14.3397C61.875 14.3983 61.9922 14.4373 64.9414 15.9412C67.8125 17.4061 67.9883 17.4647 68.5156 17.2108C69.1992 16.8787 69.5312 16.0584 69.2578 15.3553C69.1211 14.9647 68.5352 14.535 66.9336 13.6561C63.3594 11.7225 62.7344 11.5076 60.3906 11.4491C59.2578 11.41 57.9883 11.4686 57.5586 11.5858ZM30.9766 40.0233L34.5703 41.9373L28.125 42.035L21.6797 42.1327L21.3086 42.6014C20.957 43.0506 20.9375 43.7147 20.9375 66.5467C20.9375 89.3787 20.957 90.0428 21.3086 90.492C21.6797 90.9608 21.6992 90.9608 26.1719 90.9608C30.3125 90.9608 30.7031 90.9412 31.0742 90.5897C31.6016 90.1014 31.6211 89.0467 31.0938 88.5194C30.7422 88.1678 30.4492 88.1287 27.2852 88.1287H23.8672V66.5467V44.9647H30.4102H36.9531V48.3827C36.9531 52.6405 37.2266 54.1639 38.457 56.6834C39.2188 58.2459 39.6094 58.7928 41.0352 60.1991C43.3984 62.5428 45.9766 63.7928 50.918 65.0037C57.168 66.5272 65.0195 66.3514 70.8008 64.5741C71.0742 64.4764 71.1328 64.5936 71.1328 65.2967C71.1328 65.9998 70.8398 66.6444 69.4336 69.0858C67.9492 71.6639 67.7344 72.1522 67.6562 73.1483C67.5586 74.5155 67.9492 75.6873 68.8281 76.5858C69.9219 77.6991 70.4297 77.8748 72.5977 77.8748C74.3164 77.8748 74.6484 77.8162 75.3906 77.3866C76.3281 76.8592 77.3047 75.5116 77.5 74.5155C77.793 72.9725 77.5195 72.1327 75.7617 69.0858L74.0625 66.1366L74.082 64.7889V63.4217L75.6836 62.66C76.9531 62.0545 77.6172 61.5467 78.9648 60.2186C80.3906 58.8123 80.8008 58.2459 81.543 56.6834C82.7734 54.1639 83.0469 52.6405 83.0469 48.3827V44.9647H89.5898H96.1328V66.5467V88.1287H65.7031C35.4297 88.1287 35.2539 88.1287 34.9023 88.5194C34.4141 89.0662 34.4531 90.0037 34.9805 90.5311L35.4102 90.9608H66.8555H98.3203L98.6914 90.492C99.043 90.0428 99.0625 89.3787 99.0625 66.5467C99.0625 43.7147 99.043 43.0506 98.6914 42.6014L98.3203 42.1327L91.875 42.035L85.4297 41.9373L89.0234 40.0233L92.6172 38.1287H95.8594C97.6367 38.1287 99.4727 38.2264 99.9219 38.3436C101.016 38.617 102.148 39.5545 102.598 40.5506C102.949 41.3123 102.969 42.5037 102.969 68.1483V94.9647H60H17.0312V68.1483C17.0312 42.3866 17.0508 41.3123 17.4023 40.5506C17.832 39.6131 18.8672 38.7147 19.9023 38.3827C20.332 38.2459 22.0312 38.1483 24.0234 38.1483L27.3828 38.1287L30.9766 40.0233ZM47.3047 48.6756C55.6836 53.1287 56.4844 53.5194 58.0078 53.8709C59.5898 54.242 61.3867 54.1444 63.0469 53.578C63.6719 53.3631 65.7031 52.3866 67.5195 51.4295C69.3555 50.453 70.8984 49.6522 70.9961 49.6522C71.0742 49.6522 71.1133 52.3084 71.0938 55.5506L71.0352 61.4491L69.4727 61.8983C66.7188 62.66 64.4727 62.9725 60.9766 63.0702C57.168 63.1873 54.4922 62.8944 51.1523 62.0545C44.9414 60.4725 41.9727 58.2459 40.4297 54.0272C40.0781 53.0311 40 52.3475 39.9219 48.8123L39.8438 44.7303L40.4883 45.0819C40.8594 45.2577 43.9258 46.8787 47.3047 48.6756ZM80.0586 49.3592C80 52.328 79.9219 53.0506 79.5508 54.0272C78.7109 56.3514 77.2852 58.2069 75.332 59.5155C74.7461 59.8866 74.2383 60.1991 74.1797 60.1991C74.1211 60.1991 74.0625 57.4452 74.0625 54.0858V47.9725L77.0508 46.3905L80.0195 44.8084L80.0781 45.3162C80.1172 45.6092 80.1172 47.4256 80.0586 49.3592ZM73.6523 71.3123C74.8047 73.3045 74.9023 74.0272 74.1406 74.6327C73.7695 74.9256 73.3398 75.0428 72.5977 75.0428C71.3086 75.0428 70.5469 74.5155 70.5469 73.6366C70.5469 73.1483 72.3438 69.5741 72.5977 69.5741C72.6367 69.5741 73.1055 70.3553 73.6523 71.3123ZM48.0078 98.2264C48.6328 100.219 49.9414 101.82 51.6797 102.738L52.6758 103.265H60H67.3242L68.3594 102.719C70.0586 101.82 71.3672 100.199 71.9922 98.2264C72.0898 97.9139 73.1055 97.8944 89.6094 97.8944H107.129L107.031 99.6131C106.953 100.961 106.816 101.566 106.367 102.465C105.684 103.871 104.277 105.16 102.852 105.687C101.777 106.097 101.66 106.097 60 106.097C18.3398 106.097 18.2227 106.097 17.1484 105.687C15.7227 105.16 14.3164 103.871 13.6328 102.465C13.1836 101.566 13.0469 100.961 12.9688 99.6131L12.8711 97.8944H30.3906C46.8945 97.8944 47.9102 97.9139 48.0078 98.2264ZM68.9844 98.0506C68.9844 98.4022 67.5 99.9256 66.8945 100.16C66.4062 100.375 64.8633 100.433 59.9805 100.433C52.9688 100.433 52.9492 100.433 51.6992 99.0467C51.3281 98.617 51.0156 98.1873 51.0156 98.0897C51.0156 97.953 54.1602 97.8944 60 97.8944C64.9414 97.8944 68.9844 97.9725 68.9844 98.0506Z" fill="#DB0909"/>
<path d="M28.6523 75.5311C28.3789 75.785 28.1641 76.2342 28.1641 76.5076C28.1641 76.7811 28.3789 77.2303 28.6523 77.4842L29.1211 77.9725H39.4922C49.5898 77.9725 49.8633 77.9529 50.2344 77.5818C50.8203 76.9959 50.7617 75.9608 50.1172 75.4529C49.6094 75.0428 49.4141 75.0428 39.3555 75.0428H29.1211L28.6523 75.5311Z" fill="#DB0909"/>
<path d="M28.5742 81.8006C28.3398 82.0936 28.1641 82.4452 28.1641 82.5819C28.1641 83.1092 28.6328 83.8123 29.1211 84.0272C29.4727 84.1639 34.1797 84.2225 44.6289 84.1834L59.6484 84.1248L60.0195 83.6561C60.5078 83.0702 60.4883 82.1717 60 81.6834C59.6094 81.2928 59.3555 81.2928 44.2969 81.2928H28.9648L28.5742 81.8006Z" fill="#DB0909"/>
</svg>
