<svg width="120" height="120" viewBox="0 0 120 120" fill="none" xmlns="http://www.w3.org/2000/svg">
<path d="M19.0455 14.6944C59.2973 5.17718 83.7935 -12.9702 108.494 14.6944C133.195 42.359 111.853 65.7296 102.442 102.01C93.0302 138.289 24.0124 112.825 19.0455 85.8851C14.0786 58.9452 -21.2064 24.2116 19.0455 14.6944Z" fill="#EAEAEA"/>
<path d="M14.2289 10.1758C12.5492 10.7227 11.2992 11.7773 10.4985 13.3203C9.81486 14.6289 9.83439 16.9531 10.557 18.3008C11.1625 19.4727 12.061 20.332 13.2524 20.957C14.561 21.6406 16.8852 21.6211 18.2524 20.8984C19.4047 20.293 20.4203 19.2188 20.9477 18.0469L21.3188 17.2266L32.4711 17.2461C42.9399 17.2656 43.5844 17.2852 42.8422 17.5781C39.893 18.7695 35.9477 20.957 33.2719 22.8906C31.0649 24.4922 30.8305 24.7461 30.8305 25.5273C30.8305 26.25 31.5531 26.9922 32.2367 26.9922C32.4516 26.9922 33.3891 26.4453 34.3266 25.7617C39.7367 21.7969 45.1274 19.375 51.4164 18.1055C52.7445 17.832 53.8774 17.6172 53.9164 17.6172C53.975 17.6172 54.0727 18.1055 54.1508 18.7109C54.4438 21.2891 54.932 21.5234 59.932 21.5234C64.932 21.5234 65.4203 21.2891 65.7133 18.7109C65.7914 18.1055 65.8695 17.6172 65.9086 17.6172C65.9477 17.6172 66.8852 17.793 68.018 18.0078C80.0492 20.332 90.3617 27.5977 96.7289 38.2617C102.471 47.832 104.151 59.7461 101.319 70.6836C97.2172 86.6016 84.1899 98.8672 68.057 101.973C66.9047 102.207 65.9477 102.383 65.9086 102.383C65.8695 102.383 65.7914 101.895 65.7133 101.289C65.4203 98.7109 64.932 98.4766 59.932 98.4766C54.932 98.4766 54.4438 98.7109 54.1508 101.289C54.0727 101.895 53.9945 102.383 53.9555 102.383C53.9164 102.383 52.9594 102.207 51.807 101.973C43.1352 100.312 35.1078 95.918 28.9945 89.4727C20.4203 80.4688 16.182 68.2227 17.3735 55.9766C18.2133 47.1875 21.6117 39.1406 27.3539 32.3438C28.3695 31.1133 28.682 30.6055 28.682 30.1367C28.682 29.2578 28.057 28.7109 27.1586 28.7891C26.5141 28.8477 26.2797 29.043 24.8344 30.7617C19.2875 37.4219 15.8891 45.2148 14.5805 54.2383C14.2485 56.5234 14.2485 63.4766 14.5805 65.7617C16.0649 76.0547 20.1664 84.5312 27.1195 91.6992C30.9477 95.6641 34.7563 98.4766 39.4242 100.801C40.8695 101.523 42.4125 102.246 42.8422 102.422C43.5649 102.715 42.9008 102.734 32.4711 102.754L21.3188 102.773L20.9477 101.934C20.4203 100.781 19.4047 99.707 18.2524 99.1016C17.4125 98.6719 17.0024 98.5742 15.6938 98.5742C14.3852 98.5742 13.975 98.6719 13.1547 99.1016C11.9828 99.707 11.1235 100.605 10.4985 101.797C9.83439 103.047 9.83439 105.43 10.4985 106.68C11.1235 107.871 11.9828 108.77 13.1547 109.375C13.975 109.805 14.3852 109.902 15.6938 109.902C17.0024 109.902 17.4125 109.805 18.2524 109.375C19.4047 108.77 20.4203 107.695 20.9477 106.523L21.3188 105.703H37.6664H54.0141L54.1313 106.973C54.4047 109.766 54.8539 110 59.932 110C65.0102 110 65.4594 109.766 65.7328 106.973L65.85 105.703H74.6781C83.311 105.703 83.5258 105.703 84.0336 105.293C84.7367 104.746 84.7367 103.73 84.0336 103.184C83.5453 102.812 83.2524 102.773 79.8735 102.754C76.3383 102.734 76.2602 102.734 77.0219 102.422C78.7211 101.738 83.1742 99.4141 84.8344 98.3203C88.8578 95.7031 93.5453 91.3281 96.3774 87.5391C101.006 81.3672 103.975 74.2383 105.186 66.4453C105.596 63.6914 105.655 56.875 105.284 54.2383C103.819 44.0039 99.6977 35.4492 92.7446 28.3008C88.9164 24.3359 85.1078 21.5234 80.4399 19.1992C78.9945 18.4766 77.4516 17.7539 77.0219 17.5781C76.2992 17.2852 76.9633 17.2656 87.393 17.2461L98.5453 17.2266L98.9164 18.0469C99.4438 19.2188 100.459 20.293 101.612 20.8984C102.979 21.6211 105.303 21.6406 106.612 20.957C107.803 20.332 108.702 19.4727 109.307 18.3008C109.737 17.4805 109.834 17.0703 109.834 15.7617C109.834 14.4531 109.737 14.043 109.307 13.2227C108.702 12.0508 107.803 11.1914 106.612 10.5664C105.303 9.88281 102.979 9.90234 101.612 10.625C100.459 11.2305 99.4438 12.3047 98.9164 13.457L98.5453 14.2969H82.1977H65.85L65.7328 13.0273C65.4594 10.2344 65.0102 10 59.932 10C54.8539 10 54.4047 10.2344 54.1313 13.0273L54.0141 14.2969H37.6664H21.3188L20.9477 13.457C20.0492 11.4844 18.1742 10.1758 15.9867 10.0781C15.2836 10.0391 14.5024 10.0781 14.2289 10.1758ZM17.3344 13.457C18.1156 14.043 18.5649 15.0391 18.4672 16.0352C18.2914 17.6172 17.0024 18.6914 15.4203 18.5352C12.6274 18.2422 11.9438 14.5703 14.4438 13.2617C15.2641 12.832 16.5922 12.9102 17.3344 13.457ZM62.6664 15.7617V18.5938H59.932H57.1977V15.7617V12.9297H59.932H62.6664V15.7617ZM105.811 13.457C106.592 14.043 107.041 15.0391 106.944 16.0352C106.768 17.6172 105.479 18.6914 103.897 18.5352C101.104 18.2422 100.42 14.5703 102.92 13.2617C103.741 12.832 105.069 12.9102 105.811 13.457ZM17.3344 101.934C18.1156 102.52 18.5649 103.516 18.4672 104.512C18.2914 106.094 17.0024 107.168 15.4203 107.012C12.6274 106.719 11.9438 103.047 14.4438 101.738C15.2641 101.309 16.5922 101.387 17.3344 101.934ZM62.6664 104.238V107.07H59.932H57.1977V104.238V101.406H59.932H62.6664V104.238Z" fill="#DB0909"/>
<path d="M56.2407 24.4727C44.0142 25.7618 33.1548 33.379 27.8032 44.4727C22.4907 55.4493 23.1548 68.3985 29.5611 78.7305C38.2915 92.8125 55.5767 99.1016 71.2212 93.8672C83.8189 89.6485 92.9595 78.8672 95.2056 65.5665C95.6743 62.8125 95.6743 57.2852 95.2056 54.4532C92.1001 35.6251 75.0493 22.5196 56.2407 24.4727ZM63.2134 27.4024C65.9282 27.6954 67.7251 28.086 70.3032 28.9454C81.1431 32.5391 89.3071 41.5626 91.8853 52.7735C95.2446 67.4219 88.0376 82.5586 74.4829 89.3555C65.2056 93.9844 54.1314 93.8868 44.9126 89.0821C39.7759 86.3868 35.5376 82.5782 32.4712 77.8711C28.5259 71.7969 26.6509 64.3555 27.2759 57.4024C27.5689 54.1797 27.9204 52.5001 28.8775 49.629C33.6626 35.1758 48.2329 25.7618 63.2134 27.4024Z" fill="#DB0909"/>
<path d="M32.4907 52.6758L32.0024 53.1445V60V66.8555L32.4907 67.3242C32.9399 67.793 33.0571 67.8125 35.5962 67.8125C37.0415 67.8125 38.3696 67.7539 38.5454 67.6953C38.7017 67.6172 38.9946 67.3047 39.1509 66.9922C39.4048 66.5039 39.4048 66.3086 39.2095 65.8398C38.8774 65.0195 38.5063 64.8828 36.6118 64.8828H34.9321V59.0234V53.1445L34.4438 52.6758C34.1899 52.4023 33.7407 52.1875 33.4673 52.1875C33.1938 52.1875 32.7446 52.4023 32.4907 52.6758Z" fill="#DB0909"/>
<path d="M44.3071 52.5391C42.1782 53.2617 40.4009 54.8242 39.4634 56.836C38.9946 57.8125 38.936 58.1836 38.936 60C38.936 61.8164 38.9946 62.1875 39.4634 63.1641C39.7563 63.7891 40.4009 64.7266 40.8892 65.2539C45.3618 70.0391 53.0962 67.6953 54.3071 61.211C54.9126 57.9297 53.0181 54.4141 49.8735 52.9297C48.1938 52.1485 45.9478 51.9922 44.3071 52.5391ZM48.1938 55.4102C51.0259 56.4063 52.2954 59.6875 50.8696 62.3047C48.4282 66.7188 41.7681 65.0391 41.7681 60C41.7681 56.6406 45.0493 54.2969 48.1938 55.4102Z" fill="#DB0909"/>
<path d="M61.4556 52.5586C60.8501 52.7539 60.0493 53.1055 59.6782 53.3399C58.6235 53.9844 57.2173 55.6055 56.6509 56.8359C56.1821 57.8125 56.1235 58.1836 56.1235 60C56.1235 61.9336 56.1626 62.1484 56.7681 63.3594C57.5688 65 59.2681 66.6211 60.8501 67.2461C62.5493 67.9297 65.1079 67.9102 66.5923 67.207C69.0728 66.0352 70.6743 63.3984 70.6743 60.4297C70.6743 58.7695 70.4204 58.6328 67.354 58.6328C65.0688 58.6328 64.7759 58.6719 64.4243 59.0234C63.9946 59.4531 63.9165 60.1953 64.229 60.7813C64.4829 61.25 65.4399 61.5625 66.5923 61.5625C67.1196 61.5625 67.5493 61.6602 67.5493 61.7578C67.5493 62.2266 66.7485 63.4961 66.104 64.0625C64.1118 65.8008 60.3813 64.5899 59.229 61.8359C58.8774 60.9961 58.8774 59.0039 59.229 58.1641C59.6587 57.1289 60.8306 55.9766 61.9243 55.5078C63.1743 54.9805 64.7368 55.0391 65.9478 55.6641C67.5103 56.4649 68.7212 56.0547 68.7212 54.7266C68.7212 53.9453 68.2524 53.4766 66.9438 52.8711C65.3228 52.1484 63.0767 52.0117 61.4556 52.5586Z" fill="#DB0909"/>
<path d="M78.2134 52.3828C76.9829 52.6953 75.2251 53.75 74.3657 54.668C73.936 55.1367 73.2915 56.1133 72.9595 56.8359C72.3931 58.0273 72.3345 58.3203 72.3345 60.0195C72.3345 61.7773 72.3735 61.9531 73.0571 63.3594C73.936 65.1367 75.0688 66.2305 76.8853 67.0898C78.0571 67.6367 78.3892 67.7148 79.9517 67.7148C82.7251 67.7148 84.6978 66.7578 86.3384 64.5898C89.3657 60.625 87.5688 54.4922 82.8423 52.6953C81.729 52.2852 79.2876 52.1289 78.2134 52.3828ZM82.5493 55.8398C85.6548 57.7539 85.6743 62.2461 82.5688 64.1602C78.4087 66.6992 73.5259 62.0898 75.772 57.7344C77.0415 55.2734 80.2056 54.3945 82.5493 55.8398Z" fill="#DB0909"/>
<path d="M102.706 98.6523C100.987 99.2187 99.6001 100.41 98.9165 101.934L98.5454 102.773H94.0142C89.854 102.773 89.4243 102.812 89.0142 103.144C88.6821 103.398 88.5649 103.711 88.5649 104.238C88.5649 104.766 88.6821 105.078 89.0142 105.332C89.4243 105.664 89.854 105.703 94.0142 105.703H98.5454L98.9165 106.523C99.4438 107.695 100.459 108.769 101.612 109.375C102.979 110.098 105.303 110.117 106.612 109.434C107.803 108.809 108.702 107.949 109.307 106.777C109.737 105.957 109.834 105.547 109.834 104.238C109.834 102.93 109.737 102.519 109.307 101.699C108.292 99.7656 106.573 98.6523 104.463 98.5546C103.76 98.5156 102.979 98.5546 102.706 98.6523ZM105.811 101.934C106.592 102.519 107.042 103.516 106.944 104.512C106.768 106.094 105.479 107.168 103.897 107.012C101.104 106.719 100.42 103.047 102.92 101.738C103.741 101.309 105.069 101.387 105.811 101.934Z" fill="#DB0909"/>
</svg>
