<svg width="120" height="120" viewBox="0 0 120 120" fill="none" xmlns="http://www.w3.org/2000/svg">
<path d="M14.6944 100.955C5.17718 60.7027 -12.9702 36.2065 14.6944 11.506C42.359 -13.1946 65.7296 8.14683 102.01 17.5583C138.289 26.9698 112.825 95.9876 85.8851 100.955C58.9452 105.921 24.2116 141.206 14.6944 100.955Z" fill="#EAEAEA"/>
<path d="M86.6773 12.7654C86.228 13.1952 86.189 13.3905 86.189 15.0119C86.189 17.0631 86.4625 17.5515 87.6346 17.5515C88.7481 17.5515 89.1192 16.8678 89.1192 14.8752C89.1192 13.3905 89.0802 13.1952 88.6309 12.7654C88.3769 12.4919 87.9276 12.277 87.6541 12.277C87.3806 12.277 86.9313 12.4919 86.6773 12.7654Z" fill="#DB0909"/>
<path d="M77.9841 14.6212C77.4371 15.1682 77.4957 15.7542 78.2576 17.4342C78.9218 18.8799 79.3515 19.3096 80.1329 19.3096C80.6799 19.3096 81.5004 18.4696 81.5004 17.9031C81.5004 17.3952 80.465 15.09 79.9962 14.5626C79.5664 14.1133 78.4725 14.1328 77.9841 14.6212Z" fill="#DB0909"/>
<path d="M95.4095 14.3672C95.0579 14.504 93.8076 17.2584 93.8076 17.8836C93.8076 18.1375 94.042 18.5673 94.3155 18.8603C94.7062 19.251 94.9211 19.3292 95.429 19.2315C96.2495 19.0752 96.3863 18.8994 97.1286 17.1803C97.7733 15.6956 97.7928 15.1096 97.2067 14.543C96.9137 14.25 95.937 14.1523 95.4095 14.3672Z" fill="#DB0909"/>
<path d="M71.0685 19.7199C70.7168 19.9934 70.5605 20.306 70.5605 20.7357C70.5605 21.4976 70.5996 21.5562 71.9866 22.7869C73.3345 23.9981 74.1746 24.1544 74.8388 23.2948C75.5616 22.3767 75.3076 21.7906 73.6471 20.3255C72.3578 19.212 71.8694 19.0948 71.0685 19.7199Z" fill="#DB0909"/>
<path d="M101.778 20.2083C101.211 20.6966 100.586 21.2827 100.41 21.4976C99.6095 22.3962 100.332 23.8027 101.583 23.8027C102.071 23.8027 102.462 23.5488 103.477 22.6111C104.552 21.5953 104.747 21.3022 104.747 20.7748C104.747 20.3059 104.61 20.0129 104.239 19.7199C103.458 19.0947 102.911 19.212 101.778 20.2083Z" fill="#DB0909"/>
<path d="M84.3329 19.798C80.1524 20.6967 76.1282 23.8614 74.1942 27.7489C73.0221 30.1517 72.6313 31.7731 72.6313 34.4494C72.6313 37.1062 73.0221 38.7277 74.1746 41.0914C75.1905 43.2012 76.6947 45.0375 78.4528 46.3659C79.9766 47.5185 80.1133 48.046 79.1561 49.1399L78.5701 49.8041V53.9065C78.5701 58.4973 78.6482 58.888 79.8203 59.435C80.2305 59.6303 80.9924 59.7476 81.7738 59.7476H83.0632V61.1346C83.0632 62.6778 83.3757 63.4006 84.2353 63.9281C84.6846 64.1821 85.3488 64.2407 87.7125 64.2407C90.3693 64.2407 90.6819 64.2016 91.1507 63.8304C91.9517 63.2053 92.2447 62.4434 92.2447 61.0564V59.7866L93.8271 59.7085C95.3703 59.6499 95.429 59.6303 96.0736 58.9271L96.7378 58.1847V54.141C96.7378 50.4293 96.6987 50.019 96.3471 49.433C96.1322 49.0813 95.8197 48.7492 95.6634 48.6906C95.5071 48.6125 95.3703 48.3195 95.3703 48.0069C95.3703 47.5576 95.5657 47.3036 96.4057 46.698C97.8513 45.6236 99.8439 43.4357 100.703 41.951C102.169 39.4505 102.93 35.856 102.598 32.9452C102.266 30.0931 101.856 29.2726 100.723 29.2726C99.7658 29.2726 99.2188 29.9368 99.3555 30.9331C99.4141 31.3629 99.5509 32.3201 99.6486 33.082C99.8439 34.4885 99.6876 36.442 99.2579 37.9658C98.5741 40.3882 96.5034 43.1036 94.1006 44.6859C92.6549 45.6431 92.4987 45.9166 92.4596 47.4794L92.4401 48.4171H90.7796H89.1191V45.4087V42.4003L89.7833 42.0096C91.3852 41.0719 91.9321 39.5481 91.8345 36.3639C91.7563 34.4885 91.6977 34.1564 91.2093 33.3359C90.2521 31.7145 88.2791 30.9136 86.4427 31.441C85.2902 31.7536 84.0204 32.9648 83.6883 34.0783C83.3953 35.0746 83.3757 38.6691 83.6687 39.6849C83.9032 40.5249 85.0557 41.9314 85.7395 42.1854C86.1888 42.3417 86.1888 42.4003 86.1888 45.3892V48.4367L84.4892 48.3781L82.7701 48.3195L82.7115 47.3427C82.6334 45.7408 82.5552 45.5845 81.2268 44.725C77.5738 42.3417 75.5616 38.6886 75.5616 34.4494C75.5616 31.0503 76.6751 28.4131 79.1561 25.9321C81.5589 23.5488 84.2548 22.4353 87.6735 22.4353C90.6624 22.4353 93.2605 23.3925 95.7024 25.4046C96.6597 26.2056 97.3629 26.3423 98.0662 25.8344C98.3788 25.6195 98.496 25.346 98.496 24.7795C98.496 24.1153 98.3788 23.92 97.3825 23.0213C95.9955 21.7906 92.9089 20.2473 90.9358 19.8176C89.2558 19.4464 85.9739 19.4269 84.3329 19.798ZM88.5135 34.6643C88.8651 35.1136 88.9237 35.4653 88.9237 36.9695C88.9237 39.0793 88.6698 39.6263 87.7125 39.6263C86.5795 39.6263 86.3841 39.2356 86.3841 36.95C86.3841 35.1918 86.4427 34.8792 86.7748 34.5471C87.3218 34.0001 88.0251 34.0587 88.5135 34.6643ZM93.8075 54.0823V56.8173H87.6539H81.5003V54.0823V51.3474H87.6539H93.8075V54.0823ZM89.3144 60.529V61.3104H87.6539H85.9934V60.529V59.7476H87.6539H89.3144V60.529Z" fill="#DB0909"/>
<path d="M66.6343 27.2996C66.1264 27.7098 66.0092 28.8428 66.4389 29.3312C66.6929 29.6633 69.4278 30.6401 70.0334 30.6401C70.5413 30.6401 71.3423 29.761 71.3423 29.1945C71.3423 28.3935 70.5804 27.7879 69.0566 27.3386C67.3571 26.8307 67.2008 26.8307 66.6343 27.2996Z" fill="#DB0909"/>
<path d="M106.115 27.3387C105.412 27.5731 104.65 27.9247 104.415 28.1591C103.771 28.7257 103.81 29.7024 104.474 30.2299C105.138 30.7573 105.314 30.7378 107.15 30.1322C108.479 29.6829 108.733 29.5266 108.947 29.0187C109.358 28.0419 108.733 26.9284 107.775 26.9479C107.56 26.9479 106.818 27.1238 106.115 27.3387Z" fill="#DB0909"/>
<path d="M11.2323 33.5704C9.90393 34.3713 10.0016 31.402 10.0016 70.5896C10.0016 109.562 9.92346 106.925 11.1542 107.667C11.6816 107.98 13.3421 108 33.7369 108C57.902 108 56.5345 108.058 57.1792 106.827C57.4136 106.378 57.4722 105.519 57.4722 102.92V99.5994H70.3264C80.8363 99.5994 83.3954 99.5408 84.5089 99.3064C85.5443 99.0915 86.8336 98.4859 90.0765 96.7277C92.4012 95.4775 94.5305 94.2077 94.8431 93.9147C95.5463 93.2114 95.5854 91.8635 94.9407 91.1211C94.4914 90.6327 87.2829 86.589 85.7201 85.9638C85.0169 85.6708 83.3564 85.6122 71.2445 85.5341L57.5699 85.4364L57.5113 83.1703L57.4527 80.9042L59.6601 80.7675C67.7282 80.2986 74.7023 76.3525 79.0195 69.8082C80.094 68.1672 80.1721 67.9914 80.094 67.1319C79.8986 65.2174 75.9916 60.5094 72.7097 58.2433C68.7049 55.5084 64.0946 53.9847 59.4257 53.8479L57.5699 53.7893L57.4722 44.178L57.3745 34.5471L56.7299 33.922L56.1047 33.2773L41.844 33.2187C27.7787 33.1797 27.5833 33.1797 27.1926 33.5704C26.6065 34.1564 26.6651 35.1918 27.3098 35.6997C27.8177 36.1099 27.974 36.1099 41.1798 36.1099H54.5419L54.5028 45.1352L54.4442 54.141L52.9791 54.4926C52.1781 54.6879 51.4944 54.8442 51.4749 54.8638C51.4358 54.8638 51.4163 54.4144 51.4163 53.8675C51.4163 53.2814 51.2795 52.6367 51.0842 52.3046C50.3614 51.0935 51.0646 51.1325 33.4439 51.1911L17.3859 51.2497L16.7217 51.9725L16.0575 52.7149V63.6546C16.0575 73.0706 16.0966 74.692 16.3506 75.1804C16.9757 76.3916 16.4873 76.3525 31.1778 76.3525H44.5789L45.6925 77.0753C47.8023 78.4232 51.3577 79.8493 53.9168 80.3572L54.5419 80.494V83.014V85.5145L45.0869 85.5731L35.6123 85.6317L34.9676 86.2569L34.323 86.882L26.5284 86.9406L18.7534 86.9992L18.3822 87.468C17.8938 88.0541 17.9134 88.6792 18.4213 89.3239L18.812 89.8318H26.333H33.8346V91.883V93.9342H26.333H18.812L18.4213 94.4421C17.9134 95.0868 17.8938 95.7119 18.3822 96.298L18.7534 96.7668L26.3917 96.8254C33.3462 96.8645 34.0299 96.9036 34.0299 97.1966C34.0299 97.685 34.8113 98.7399 35.4951 99.1501C36.0421 99.4822 36.7453 99.5017 45.3213 99.5603L54.5419 99.6189V102.334V105.069H33.7369H12.9319V70.5896V36.1099H17.2101C21.2344 36.1099 21.5079 36.0904 21.9962 35.6997C22.6409 35.1918 22.6995 34.1564 22.1134 33.5704C21.7423 33.1992 21.4688 33.1797 16.7999 33.1797C12.2482 33.1797 11.8184 33.2187 11.2323 33.5704ZM48.486 55.0591V56.0359L47.2748 56.6415C43.6022 58.4973 39.7537 62.1309 37.8002 65.5691C37.2337 66.5849 37.136 66.9365 37.2142 67.5616C37.3118 68.4017 38.523 70.3552 40.0663 72.1915L41.0821 73.4222H30.0252H18.9878V63.7523V54.0823H33.7369H48.486V55.0591ZM61.1839 56.915C67.1421 57.4033 73.4129 61.369 76.8511 66.7998C77.1637 67.3077 77.1637 67.3468 76.2846 68.6361C73.1394 73.3245 67.611 76.7432 61.7113 77.6418C53.9363 78.8335 45.6729 75.2781 41.1017 68.7533L40.0858 67.3272L41.1017 65.8816C42.3715 64.0258 45.3017 61.2322 47.1771 60.0601C48.9744 58.9271 51.1623 58.0089 53.3698 57.4033C55.0303 56.9736 57.9606 56.6415 59.2304 56.7391C59.6015 56.7782 60.4806 56.8563 61.1839 56.915ZM43.1724 92.5081L43.1138 96.5715H39.9882H36.8625L36.8039 92.5081L36.7649 88.4643H39.9882H43.2115L43.1724 92.5081ZM80.9145 89.7341V91.0039H77.7107C74.7804 91.0039 74.4874 91.043 73.999 91.4142C73.3543 91.9221 73.2957 92.9574 73.8818 93.5435C74.2334 93.8951 74.5264 93.9342 77.5935 93.9342H80.9145V95.3017V96.6691H63.5281H46.1418V95.3017V93.9342H57.3745C68.3533 93.9342 68.6073 93.9342 68.998 93.5435C69.584 92.9574 69.5254 91.9221 68.8808 91.4142C68.3728 91.0039 68.197 91.0039 57.2573 91.0039H46.1418V89.7341V88.4643H63.5281H80.9145V89.7341ZM85.8569 89.2848L86.9899 89.8513L86.9313 92.4886L86.8727 95.1454L85.7983 95.6924C85.2122 96.0049 84.5285 96.298 84.2941 96.3761L83.8447 96.4933V92.4691V88.4448L84.2941 88.5815C84.5285 88.6402 85.2317 88.9723 85.8569 89.2848ZM90.8774 91.9807C91.3072 92.1956 91.6588 92.4104 91.6588 92.4691C91.6588 92.5667 90.1937 93.3481 89.9983 93.3481C89.9397 93.3481 89.9007 92.9574 89.9007 92.4691C89.9007 91.9807 89.9397 91.59 89.9983 91.59C90.0569 91.59 90.4672 91.7658 90.8774 91.9807Z" fill="#DB0909"/>
<path d="M56.8863 58.7708C54.8156 59.2006 52.4714 60.8415 51.3383 62.6388C49.5606 65.4518 49.6388 69.437 51.5142 72.211C54.6007 76.7627 61.3208 77.212 65.0521 73.1292C65.5404 72.5822 66.2046 71.5859 66.5367 70.8826C67.0447 69.7887 67.1423 69.3393 67.2009 67.6593C67.2595 66.0379 67.2009 65.5104 66.8688 64.5337C66.0093 62.0918 64.0362 60.0601 61.6529 59.1615C60.3831 58.6927 58.1561 58.5168 56.8863 58.7708ZM61.0669 62.1113C62.6883 62.8732 64.3097 65.0221 64.3097 66.4286C64.3097 66.9365 64.2511 66.9756 63.4697 66.9756C61.4967 66.9756 59.5041 65.6863 58.5664 63.8109C58.2929 63.2444 58.0585 62.502 58.0585 62.1309V61.4471L59.1329 61.5839C59.7385 61.6425 60.598 61.8769 61.0669 62.1113ZM55.4212 63.889C56.437 67.0147 59.4259 69.5152 62.5516 69.8668L63.7823 70.0035L63.1181 70.8631C62.7469 71.3319 61.9655 71.9961 61.3794 72.3282C60.4027 72.8752 60.1487 72.9338 58.6445 72.9338C57.1794 72.9338 56.8668 72.8752 55.9487 72.3478C54.6984 71.664 54.0537 70.9608 53.4091 69.5347C52.9988 68.6361 52.9402 68.2844 53.0184 66.9951C53.116 65.3737 53.4481 64.5141 54.4054 63.4983C54.7375 63.1662 55.0305 62.8732 55.05 62.8732C55.0696 62.8732 55.2454 63.342 55.4212 63.889Z" fill="#DB0909"/>
<path d="M67.6502 35.5434C66.5757 35.6802 66.0678 35.8365 65.7357 36.149C65.1301 36.7155 65.1496 37.5555 65.7748 38.1807C66.2241 38.63 66.3608 38.6495 67.4939 38.5518C69.9748 38.2784 70.5609 37.9658 70.5609 36.8327C70.5609 36.2662 70.0335 35.602 69.4865 35.4653C69.2716 35.4262 68.4511 35.4653 67.6502 35.5434Z" fill="#DB0909"/>
<path d="M105.724 35.4653C105.138 35.6802 104.748 36.1881 104.748 36.7351C104.748 38.0244 105.451 38.4151 107.834 38.4933C109.143 38.5519 109.299 38.5128 109.651 38.083C110.12 37.497 110.12 36.8718 109.631 36.2467C109.299 35.8365 109.006 35.7193 107.912 35.6216C107.189 35.5434 106.467 35.4653 106.31 35.4262C106.154 35.3872 105.881 35.4067 105.724 35.4653Z" fill="#DB0909"/>
<path d="M69.8772 43.5333C69.1154 43.9826 68.3926 44.471 68.2754 44.6468C67.6502 45.4673 68.3926 46.8543 69.4475 46.8543C70.1507 46.8543 72.5926 45.4673 72.9247 44.8813C73.374 44.0217 72.6122 42.7519 71.6354 42.7519C71.4205 42.7519 70.6196 43.1035 69.8772 43.5333Z" fill="#DB0909"/>
<path d="M102.696 43.2403C101.739 44.1975 102.149 45.0961 104.044 46.151C105.568 47.0106 106.33 47.0497 106.877 46.3464C107.658 45.3501 107.307 44.6859 105.353 43.5333C103.829 42.6347 103.341 42.5761 102.696 43.2403Z" fill="#DB0909"/>
<path d="M25.3365 43.631C25.063 43.8849 24.8481 44.3342 24.8481 44.6077C24.8481 44.8812 25.063 45.3305 25.3365 45.5845L25.8054 46.0729H33.7367H41.668L42.1368 45.5845C42.801 44.9398 42.7815 44.0803 42.1173 43.5528C41.6094 43.1621 41.3945 43.1426 33.6976 43.1426H25.8054L25.3365 43.631Z" fill="#DB0909"/>
<path d="M18.4215 80.5721C18.187 80.8651 18.0112 81.2949 18.0112 81.5488C18.0112 82.0958 18.5973 82.7405 19.2224 82.8968C19.4764 82.9554 26.216 82.9749 34.1864 82.9554L48.7206 82.8968L49.0918 82.4279C49.5802 81.8419 49.5606 80.9433 49.0722 80.4549C48.6815 80.0642 48.4276 80.0642 33.7566 80.0642H18.8122L18.4215 80.5721Z" fill="#DB0909"/>
</svg>
