<svg width="120" height="120" viewBox="0 0 120 120" fill="none" xmlns="http://www.w3.org/2000/svg">
<path d="M19.0455 14.6944C59.2973 5.17718 83.7935 -12.9702 108.494 14.6944C133.195 42.359 111.853 65.7296 102.442 102.01C93.0302 138.289 24.0124 112.825 19.0455 85.8851C14.0786 58.9452 -21.2064 24.2116 19.0455 14.6944Z" fill="#EAEAEA"/>
<path d="M14.6641 10.4299C12.4367 11.0551 10.6782 12.9308 10.1897 15.2364C10.0138 16.0375 9.97477 25.3771 10.0138 52.6534L10.0725 88.9957L10.5805 90.0703C10.854 90.6565 11.4402 91.4967 11.87 91.9265C13.5308 93.5873 15.4457 94.0563 19.881 93.939C22.2452 93.8804 22.4992 93.8413 22.89 93.4506C23.4175 92.9426 23.4566 91.9852 22.9877 91.4576C22.6946 91.1254 22.2843 91.0864 19.0994 91.0082C15.2503 90.9301 14.879 90.8324 13.8435 89.7382C13.0228 88.8785 12.9056 88.2923 12.9056 84.9707V81.864H39.5762H66.2467V83.1145V84.365L65.1721 84.4431C64.0193 84.5408 63.3355 84.9121 62.6516 85.8499C62.2999 86.2993 62.2217 86.7292 62.1631 88.7222L62.1045 91.0473H46.1217C30.3734 91.0473 30.1584 91.0473 29.8067 91.4381C29.3183 91.9852 29.3573 92.923 29.8849 93.4506C30.2952 93.8804 30.3929 93.8804 37.6223 93.939L44.9494 93.9977V96.4986V98.9996L42.1748 99.0973C38.99 99.195 37.9935 99.5076 36.6844 100.778C35.5316 101.891 35.1799 103.122 35.1799 105.955C35.1799 108.535 35.3949 109.179 36.3913 109.726C36.743 109.941 41.5496 109.98 60.0334 110H83.226L83.8904 109.355C84.7305 108.574 84.9064 107.636 84.7501 104.998C84.5938 102.38 83.9685 101.149 82.1514 99.9766C81.1745 99.3318 79.6113 99.0582 77.0517 99.0582H75.0392V98.179V97.2997H88.8337H102.628L103.39 96.8699C104.23 96.4009 104.934 95.2091 104.934 94.2517C104.934 93.7437 105.031 93.646 105.872 93.3333C107.122 92.9035 108.412 91.7507 109.135 90.4416L109.721 89.3865L109.838 83.7202C109.916 80.594 109.975 64.0641 109.994 46.9871C110.014 14.0641 110.033 14.8261 109.135 13.3607C108.197 11.8757 106.849 10.8597 105.227 10.4299C103.84 10.0586 16.0123 10.0586 14.6641 10.4299ZM105.403 13.7515C106.907 14.8847 106.888 14.8261 106.888 21.3326V27.1551H59.9943H13.101V21.3912C13.101 15.2169 13.1205 15.041 14.117 14.1227C15.3089 13.009 11.7333 13.0871 60.2092 13.1458L104.68 13.1848L105.403 13.7515ZM106.888 54.5096V78.9332H105.911H104.934V74.9277C104.934 70.4924 104.836 70.0039 103.781 69.1247C103.332 68.7339 102.843 68.558 102.003 68.4603L100.831 68.3236V66.9168V65.51L102.003 65.3732C102.843 65.2755 103.332 65.0997 103.781 64.7089C104.836 63.8296 104.934 63.3412 104.934 58.8667C104.934 54.3142 104.816 53.8257 103.586 53.0051C102.941 52.5752 102.784 52.5557 98.0951 52.5557C93.6793 52.5557 93.2104 52.5948 92.8001 52.9074C92.2139 53.3959 92.2139 54.3728 92.8001 54.959C93.2104 55.3693 93.3862 55.3888 97.6066 55.4474L102.003 55.5061V59.0231V62.5205L83.5973 62.4814L65.1721 62.4228L65.1135 58.9644L65.0744 55.5061L75.1174 55.4474L85.1799 55.3888L85.6098 54.959C86.1959 54.3728 86.1959 53.3959 85.6098 52.9074C85.1799 52.5752 84.5742 52.5557 74.668 52.5557H64.1952L63.4722 53.0442C62.2413 53.8648 62.1045 54.5877 62.1827 59.3552C62.2413 63.1848 62.2608 63.517 62.6516 64.025C63.2378 64.8066 64.0975 65.256 65.2503 65.3927L66.2467 65.51V66.9168V68.3236L65.0744 68.4603C64.0779 68.5776 63.7848 68.7143 63.1401 69.32C62.1631 70.2579 62.0459 70.9418 62.2022 75.4553L62.3194 78.9332H37.6027H12.9056V54.5096V30.086H59.8966H106.888V54.5096ZM97.8997 66.9168V68.3822H83.5387H69.1776V66.9168V65.4514H83.5387H97.8997V66.9168ZM102.003 74.83V78.347H83.5387H65.0744V74.9668C65.0744 73.0911 65.133 71.5084 65.2112 71.4498C65.2698 71.3716 73.5934 71.313 83.6754 71.313H102.003V74.83ZM97.8997 82.841V84.4041H83.5387H69.1776V82.841V81.2778H83.5387H97.8997V82.841ZM106.888 85.0879C106.888 88.7026 106.692 89.4256 105.52 90.2657L104.934 90.676V88.7026C104.934 87.12 104.856 86.5924 104.543 85.9672C104.054 85.0098 102.96 84.4041 101.71 84.4041H100.831V83.134V81.864H103.859H106.888V85.0879ZM102.003 90.8519V94.3689H83.5387H65.0744V90.8519V87.3349H83.5387H102.003V90.8519ZM62.2413 94.7597C62.3194 95.2091 62.6125 95.8343 62.8861 96.1665C63.7458 97.1825 64.2929 97.2997 68.396 97.2997H72.1084V98.179V99.0582H59.9943H47.8802V96.5182V93.9781H54.9924H62.1045L62.2413 94.7597ZM80.2952 102.341C81.448 102.907 81.7802 103.552 81.8583 105.428L81.9169 107.069H60.0138H38.1108V105.506C38.1108 103.396 38.6188 102.478 39.967 102.126C40.1819 102.087 49.1893 102.028 59.9943 102.009C78.3218 101.989 79.67 102.009 80.2952 102.341Z" fill="#DB0909"/>
<path d="M19.0603 16.1743C17.419 16.9558 16.5593 18.304 16.5593 20.1211C16.5593 22.9738 19.1971 24.9473 21.9716 24.1462C25.4495 23.1301 26.0943 18.4994 23.0462 16.4674C21.9716 15.764 20.2131 15.6467 19.0603 16.1743ZM21.6981 19.1442C22.421 19.8671 22.1084 20.9809 21.0533 21.3521C20.2717 21.6452 19.1971 20.5705 19.4902 19.789C19.8614 18.7339 20.9751 18.4213 21.6981 19.1442Z" fill="#DB0909"/>
<path d="M30.0022 16.1743C26.7196 17.7179 26.6024 22.29 29.8068 23.8726C31.4285 24.6737 33.4019 24.3806 34.6524 23.1301C36.6258 21.1567 36.3132 18.011 33.9881 16.4674C32.933 15.764 31.155 15.6468 30.0022 16.1743ZM32.6399 19.1442C33.3628 19.8671 33.0502 20.9809 31.9951 21.3521C31.2136 21.6452 30.1389 20.5705 30.432 19.789C30.8033 18.7339 31.917 18.4213 32.6399 19.1442Z" fill="#DB0909"/>
<path d="M40.9438 16.1743C37.6613 17.7179 37.544 22.29 40.7484 23.8726C42.3701 24.6737 44.3436 24.3806 45.5941 23.1301C47.5675 21.1567 47.2549 18.011 44.9297 16.4674C43.8746 15.764 42.0966 15.6468 40.9438 16.1743ZM43.5816 19.1442C44.4217 19.9844 43.816 21.3521 42.5851 21.3521C41.4714 21.3521 40.9243 20.1798 41.6277 19.281C42.1357 18.6362 43.0149 18.5776 43.5816 19.1442Z" fill="#DB0909"/>
<path d="M19.4121 37.3545C16.8525 39.8555 16.2859 40.6761 16.5985 41.4577C16.8916 42.1611 21.7177 46.8504 22.3234 46.9872C22.7532 47.1044 22.9682 47.0067 23.4762 46.5182C24.3554 45.639 24.16 45.17 21.9326 42.9426L20.0373 41.0278L21.8349 39.2302C22.8118 38.2337 23.7106 37.2177 23.8279 36.9833C24.2968 36.0454 23.5543 34.9707 22.4211 34.9707C21.9717 34.9707 21.3855 35.4201 19.4121 37.3545Z" fill="#DB0909"/>
<path d="M28.9862 35.4006C28.4977 35.9477 24.9807 44.9356 24.9807 45.639C24.9807 46.7722 26.5634 47.3975 27.3449 46.5768C27.7357 46.186 31.4676 36.8074 31.4676 36.2603C31.4676 36.0844 31.2527 35.7132 30.9791 35.4592C30.3734 34.834 29.5137 34.8144 28.9862 35.4006Z" fill="#DB0909"/>
<path d="M32.464 35.4787C31.7216 36.4361 31.8974 36.8073 34.0467 38.9957L36.0397 41.0277L34.0467 43.0598C32.0537 45.0723 31.8193 45.5021 32.2491 46.2837C32.3468 46.4791 32.679 46.7526 33.0111 46.8699C33.8513 47.2216 34.3202 46.9089 37.0948 44.0953C40.2991 40.8519 40.3187 41.1645 36.7821 37.6475C34.4765 35.3419 34.0076 34.9707 33.4801 34.9707C33.0502 34.9707 32.7376 35.127 32.464 35.4787Z" fill="#DB0909"/>
<path d="M42.9369 39.5038C42.4289 39.9141 42.214 40.6957 42.4875 41.2427C42.8978 42.0829 43.4449 42.2197 46.5711 42.1611C49.3652 42.1025 49.502 42.0829 49.8537 41.6335C50.3617 41.0083 50.3226 40.2072 49.7755 39.6992C49.3457 39.2889 49.1307 39.2693 46.2976 39.2693C44.1678 39.2693 43.1714 39.3475 42.9369 39.5038Z" fill="#DB0909"/>
<path d="M53.6833 39.4842C52.765 40.0313 52.9017 41.5749 53.8982 41.9852C54.2694 42.1415 59.0369 42.2001 70.2132 42.1611L86.0201 42.1025L86.3914 41.6335C86.8994 41.0083 86.8603 40.2072 86.3132 39.6992L85.8638 39.2693H69.9396C59.1932 39.2889 53.9177 39.3475 53.6833 39.4842Z" fill="#DB0909"/>
<path d="M42.9369 45.9516C42.4289 46.3619 42.214 47.1434 42.4875 47.6905C42.9369 48.6088 43.2886 48.6479 49.3066 48.6088L54.9533 48.5502L55.3245 48.0813C55.8326 47.456 55.7935 46.655 55.2464 46.1469C54.797 45.7171 54.6798 45.7171 49.033 45.7171C44.7149 45.7171 43.1909 45.7757 42.9369 45.9516Z" fill="#DB0909"/>
<path d="M58.3726 45.932C57.8255 46.2446 57.5911 47.0653 57.8646 47.71C58.1772 48.4916 59.076 48.687 61.831 48.6088C63.9803 48.5502 64.1561 48.5111 64.5078 48.0813C65.0158 47.456 64.9768 46.6549 64.4297 46.1469C63.9998 45.7561 63.7849 45.7171 61.3425 45.7171C59.8771 45.7171 58.568 45.8148 58.3726 45.932Z" fill="#DB0909"/>
<path d="M67.3604 45.932C66.403 46.4986 66.5789 48.0617 67.6535 48.433C68.0443 48.5697 70.5844 48.6479 74.4921 48.6479C79.5722 48.6479 80.8227 48.5893 81.2721 48.3548C82.1904 47.8859 82.3663 46.8308 81.6238 46.1469C81.1744 45.7171 81.0767 45.7171 74.4335 45.7171C70.0959 45.7366 67.5949 45.7952 67.3604 45.932Z" fill="#DB0909"/>
<path d="M17.7903 53.1419C17.2628 53.6694 17.2823 54.7245 17.8099 55.213C18.1811 55.5451 18.6305 55.5842 23.144 55.6428C28.5758 55.7015 29.1424 55.6624 29.709 55.0567C30.2171 54.5096 30.1975 53.9234 29.6895 53.2591L29.2987 52.7511H23.7301C18.4351 52.7511 18.1616 52.7706 17.7903 53.1419Z" fill="#DB0909"/>
<path d="M33.0306 53.1418C32.503 53.6694 32.5225 54.7245 33.0501 55.2129C33.4409 55.5646 33.8903 55.5842 42.7414 55.5842H52.0224L52.3936 55.1152C52.9016 54.49 52.8625 53.6889 52.3154 53.1809C51.866 52.751 51.8465 52.751 42.6437 52.751C33.6753 52.751 33.4018 52.7706 33.0306 53.1418Z" fill="#DB0909"/>
<path d="M68.1225 57.8702C67.4191 58.515 67.3605 59.3357 68.0053 59.9804C68.3765 60.3517 68.65 60.3712 72.4601 60.3712C76.2897 60.3712 76.5633 60.3517 76.9541 59.9804C77.5793 59.3943 77.5402 58.3783 76.8759 57.8507C76.3874 57.4599 76.0943 57.4404 72.4797 57.4404C68.7477 57.4404 68.5914 57.4599 68.1225 57.8702Z" fill="#DB0909"/>
<path d="M80.3734 57.6358C79.4746 58.007 79.2597 59.2575 79.9826 59.9414C80.3734 60.3126 80.6665 60.3712 82.1319 60.3712C84.1053 60.3712 84.6133 60.0781 84.6133 58.9253C84.6133 57.8507 83.9099 57.4404 82.1905 57.4599C81.4285 57.4599 80.6078 57.5381 80.3734 57.6358Z" fill="#DB0909"/>
<path d="M87.6028 57.6358C86.6845 58.007 86.5087 59.1598 87.2511 59.8827L87.7201 60.3712H93.2105H98.7009L99.1699 59.8827C99.4434 59.6287 99.6583 59.277 99.6583 59.1207C99.6583 58.5736 99.2285 57.8702 98.74 57.6553C98.1734 57.4013 88.2476 57.3818 87.6028 57.6358Z" fill="#DB0909"/>
<path d="M18.3765 58.9449C17.38 59.3161 17.0478 60.6057 17.7903 61.3482C18.142 61.6999 18.4351 61.739 20.897 61.739C23.6129 61.739 23.6324 61.739 24.0232 61.2309C24.7266 60.3322 24.4531 59.4138 23.3784 59.0035C22.8313 58.8081 18.904 58.7495 18.3765 58.9449Z" fill="#DB0909"/>
<path d="M27.6576 58.984C26.6415 59.4138 26.368 60.7425 27.1496 61.3873C27.5794 61.7194 28.0874 61.739 34.3985 61.739C40.5923 61.739 41.2371 61.6999 41.6083 61.3873C42.1945 60.9183 42.214 59.9023 41.6474 59.3357C41.2371 58.9058 41.1199 58.9058 34.6329 58.8667C31.0182 58.8472 27.8725 58.9058 27.6576 58.984Z" fill="#DB0909"/>
<path d="M45.4378 59.0426C44.4609 59.5701 44.2655 60.6057 45.0079 61.3091C45.4183 61.6803 45.6723 61.739 47.3331 61.739C49.1306 61.739 49.2283 61.7194 49.6191 61.2309C49.8536 60.9379 50.0294 60.5862 50.0294 60.4494C50.0294 59.8828 49.541 59.1989 48.9939 59.0035C48.2319 58.7495 45.9458 58.769 45.4378 59.0426Z" fill="#DB0909"/>
<path d="M52.6282 59.0035C51.749 59.3552 51.5145 60.6839 52.1788 61.3482C52.5305 61.6999 52.8236 61.739 55.5591 61.739C58.4508 61.739 58.5681 61.7194 58.9784 61.2896C59.5059 60.7229 59.5255 59.9805 59.037 59.3747C58.6853 58.9254 58.5485 58.9058 55.8522 58.8667C54.3281 58.8472 52.8627 58.9058 52.6282 59.0035Z" fill="#DB0909"/>
<path d="M17.7903 65.4514C17.2628 65.979 17.2823 67.0341 17.8099 67.5226C18.1811 67.8547 18.5719 67.8938 22.6164 67.8938C26.9931 67.8938 27.0127 67.8938 27.3839 67.4249C27.8724 66.8387 27.8528 65.9399 27.3644 65.4514C26.9931 65.0802 26.7196 65.0607 22.5774 65.0607C18.4351 65.0607 18.1616 65.0802 17.7903 65.4514Z" fill="#DB0909"/>
<path d="M29.8068 65.4514C29.3183 65.9985 29.3574 66.9364 29.885 67.4639C30.2953 67.8938 30.4125 67.8938 35.7662 67.8938C41.1198 67.8938 41.2371 67.8938 41.6474 67.4639C42.2335 66.8778 42.2335 65.9008 41.6474 65.4124C41.2371 65.0802 40.7486 65.0607 35.6685 65.0607C30.393 65.0607 30.139 65.0802 29.8068 65.4514Z" fill="#DB0909"/>
<path d="M44.7343 65.4123C44.1481 65.9008 44.1481 66.8777 44.7343 67.4639C45.1446 67.8937 45.2619 67.8937 51.5534 67.9523C55.0704 67.9914 58.2357 67.9523 58.5874 67.8937C59.8965 67.6593 60.424 66.3697 59.6034 65.4904C59.1931 65.0606 59.154 65.0606 52.1982 65.0606C45.6722 65.0606 45.1642 65.0801 44.7343 65.4123Z" fill="#DB0909"/>
<path d="M68.142 73.6968C67.3409 74.322 67.3995 75.5334 68.2788 76.1C68.6891 76.3736 69.3143 76.4127 72.6555 76.354C76.1725 76.2954 76.6023 76.2564 76.9736 75.9242C77.5207 75.4162 77.5207 74.3806 76.954 73.8531C76.5633 73.4818 76.2897 73.4623 72.4992 73.4623C69.5879 73.4623 68.3765 73.5209 68.142 73.6968Z" fill="#DB0909"/>
<path d="M79.9631 73.9117C79.4356 74.4783 79.416 75.2208 79.9045 75.8265C80.2367 76.2368 80.4711 76.2954 81.917 76.3541C83.3434 76.4127 83.5974 76.3736 84.0858 76.0024C84.7502 75.4748 84.8088 74.4393 84.2226 73.8531C83.8904 73.5209 83.5778 73.4623 82.1124 73.4623C80.5493 73.4623 80.3344 73.5014 79.9631 73.9117Z" fill="#DB0909"/>
<path d="M87.1728 73.9702C86.6648 74.615 86.6453 75.2403 87.1338 75.8264L87.505 76.2954L92.8391 76.354C98.5249 76.4126 99.0525 76.354 99.4433 75.4943C99.7559 74.7713 99.7168 74.4783 99.1697 73.9507L98.7008 73.4622H93.1322H87.5636L87.1728 73.9702Z" fill="#DB0909"/>
<path d="M68.6695 89.4255C67.6339 89.6209 67.2041 91.0473 67.9075 91.8288C68.2396 92.2001 68.4936 92.2196 72.4405 92.2196C76.3483 92.2196 76.6218 92.2001 76.9931 91.8288C77.7746 91.0473 77.4034 89.8163 76.2506 89.4842C75.5667 89.3083 69.5683 89.2497 68.6695 89.4255Z" fill="#DB0909"/>
<path d="M80.647 89.4842C79.5528 89.8359 79.1815 90.9887 79.924 91.7897C80.2757 92.161 80.5297 92.2196 82.0342 92.2196C84.1444 92.2196 84.6134 91.9656 84.6134 90.8714C84.6134 89.7968 84.1444 89.4451 82.5227 89.3669C81.7802 89.3279 80.94 89.3865 80.647 89.4842Z" fill="#DB0909"/>
<path d="M87.8762 89.4842C86.743 89.8359 86.4108 91.0277 87.2119 91.7897C87.6613 92.2196 87.7785 92.2196 93.2494 92.2196H98.8571L99.2478 91.7116C99.7754 91.0277 99.7559 90.5979 99.1892 89.9336L98.7203 89.3865L93.562 89.3474C90.7484 89.3279 88.1693 89.3865 87.8762 89.4842Z" fill="#DB0909"/>
</svg>
