<svg width="120" height="120" viewBox="0 0 120 120" fill="none" xmlns="http://www.w3.org/2000/svg">
<path d="M100.955 105.306C60.7027 114.823 36.2065 132.97 11.506 105.306C-13.1946 77.641 8.14683 54.2704 17.5583 17.9905C26.9698 -18.2894 95.9876 7.175 100.955 34.1149C105.921 61.0548 141.206 95.7884 100.955 105.306Z" fill="#EAEAEA"/>
<path d="M96.7139 12.5402C95.6726 12.8109 93.9234 13.8521 93.3194 14.5602C92.7988 15.2057 87.1137 24.9309 86.8013 25.7014C86.5931 26.222 87.0096 27.3049 87.4677 27.5548C88.0092 27.8463 88.9879 27.8047 89.3836 27.4923C89.5502 27.3673 90.3832 26.0762 91.2162 24.6393C92.0283 23.2024 92.778 21.9738 92.8613 21.8905C92.9238 21.8072 94.2357 22.4527 95.7768 23.3274C97.7967 24.4935 98.5048 24.9933 98.4423 25.2432C98.359 25.5764 79.8459 57.7297 79.596 58.0004C79.5127 58.0837 78.2007 57.4382 76.6805 56.5427C74.6606 55.3973 73.9317 54.8559 73.9942 54.6268C74.0358 54.4394 76.9096 49.3998 80.3665 43.4232C87.1345 31.6781 87.197 31.5739 86.0933 30.6993C84.8438 29.7205 84.1566 30.1787 82.3657 33.2816L80.9704 35.6764H77.9717H74.9729V32.0321C74.9729 28.4294 74.9729 28.3669 74.4523 27.8671L73.9525 27.3465H51.6493H29.3461L28.8463 27.8671C28.3257 28.3669 28.3257 28.4294 28.3257 31.9904V35.6347L25.6393 35.718C23.0571 35.8013 22.9113 35.8222 21.4119 36.5718C19.5169 37.4881 18.3507 38.696 17.4344 40.6327L16.768 42.0279L16.7055 67.1841L16.6639 92.3195H13.8317C11.1245 92.3195 10.9996 92.3403 10.5206 92.8401C10.0208 93.319 10 93.4648 10 95.818C10 98.9833 10.2499 100.358 11.2495 102.419C12.5614 105.168 14.748 107.126 17.8925 108.334L19.267 108.875L29.0962 108.938L38.9463 109L39.4669 108.479C40.0916 107.855 40.1541 106.938 39.5918 106.251L39.1962 105.751L29.4294 105.647L19.6626 105.543L18.08 104.773C15.1645 103.315 13.5818 100.878 13.3736 97.5048L13.2695 95.6514H30.8038H48.3174V96.7968C48.3174 97.7547 48.4007 98.0462 48.838 98.4627L49.3378 98.9833H59.9792H70.6206L71.1204 98.4627C71.5577 98.0462 71.641 97.7547 71.641 96.7968V95.6514H89.1545H106.689L106.585 97.5464C106.481 99.1708 106.356 99.6289 105.71 100.941C104.815 102.773 103.586 103.981 101.67 104.877L100.275 105.543L72.2032 105.647L44.1108 105.751L43.7151 106.251C43.1529 106.938 43.2153 107.855 43.8401 108.479L44.3607 108.979L72.5156 108.938L100.691 108.875L102.066 108.334C104.044 107.563 105.148 106.876 106.481 105.543C107.793 104.231 108.709 102.773 109.375 100.92C109.708 99.9621 109.833 99.0458 109.896 96.5469L110 93.3815L109.479 92.8609L108.938 92.3195H89.1337H69.3294L68.8297 92.8401C68.3923 93.2566 68.309 93.5481 68.309 94.506V95.6514H59.9792H51.6493V94.506C51.6493 93.5481 51.566 93.2566 51.1287 92.8401L50.6289 92.3195H35.302H19.9958V67.8297C19.9958 49.1916 20.0583 43.1108 20.2457 42.4652C20.5789 41.3199 22.3074 39.5914 23.4527 39.2582C23.9317 39.1125 25.2228 39.0083 26.3265 39.0083H28.3257V55.9804V72.9733L28.8463 73.4731L29.3461 73.9938H51.6493H73.9525L74.4523 73.4731C75.1395 72.8067 75.1395 71.8488 74.4523 71.1824L73.9525 70.6618H52.7947H31.6576V67.3299V63.9979H36.9679H42.299L42.7988 63.4773C43.3194 62.9775 43.3194 62.9359 43.3194 59C43.3194 55.0641 43.3194 55.0225 42.7988 54.5227L42.299 54.0021H36.9679H31.6576V42.3403V30.6785H38.3215H44.9854V35.1558C44.9854 39.6539 44.9854 39.6539 45.506 40.1537L46.0058 40.6743H51.6493H57.2928L57.7926 40.1537C58.3132 39.6539 58.3132 39.6539 58.3132 35.1558V30.6785H64.9771H71.641V39.8413V49.0042H66.3307H60.9996L60.4998 49.5248C59.8126 50.1912 59.8126 51.1491 60.4998 51.8155L60.9996 52.3361H66.1224C68.9546 52.3361 71.2245 52.3986 71.1828 52.4819C71.162 52.586 70.7872 53.3149 70.3915 54.1479L69.6626 55.6472H66.9971C64.4565 55.6681 64.3107 55.6889 63.8317 56.1887C63.4985 56.501 63.3111 56.9384 63.3111 57.334C63.3111 57.7297 63.4985 58.167 63.8317 58.4794C64.3107 58.9792 64.4565 59 66.9763 59H69.621L69.4752 61.1241C69.3919 62.3111 69.2878 64.1229 69.2045 65.1641C69.1004 66.955 69.1212 67.0591 69.6002 67.6422C70.5165 68.7043 70.9329 68.5585 76.0558 65.1641C78.6172 63.4773 80.8871 61.9363 81.1162 61.728C81.3453 61.5406 84.4481 56.3553 87.9883 50.1912C94.1524 39.5081 94.4648 39.0083 95.0479 39.0083C96.8805 39.0083 99.192 40.716 99.7126 42.4652C99.9 43.1108 99.9625 48.7334 99.9625 65.6431V87.9671L100.483 88.4669C101.15 89.1541 102.107 89.1541 102.795 88.4669L103.294 87.9463L103.253 64.9975L103.19 42.0279L102.545 40.6743C102.191 39.9246 101.504 38.8834 101.045 38.3628C100.171 37.384 98.2757 36.2387 97.0887 35.9888C96.6097 35.8846 96.4223 35.7597 96.5056 35.5514C96.5681 35.3848 98.2132 32.4902 100.15 29.1166C105.044 20.641 104.835 21.12 104.835 19.1208C104.856 16.3928 103.732 14.4352 101.441 13.2066C100.087 12.4985 98.0258 12.1862 96.7139 12.5402ZM100.129 16.247C101.025 16.9134 101.483 17.6839 101.566 18.7459C101.649 19.5581 101.545 19.9538 101.066 20.8701C100.733 21.474 100.379 21.9738 100.296 21.9738C100.212 21.9946 98.8796 21.2657 97.3594 20.3911L94.5689 18.7876L95.0062 18.0171C96.0267 16.247 96.9846 15.6222 98.5673 15.7472C99.1295 15.8097 99.8167 16.0179 100.129 16.247ZM54.9813 34.0104V37.3424H51.6493H48.3174V34.0104V30.6785H51.6493H54.9813V34.0104ZM78.9296 39.1333C78.9296 39.2582 75.7226 44.8601 75.2436 45.5681C75.0146 45.9221 74.9729 45.4432 74.9729 42.486V39.0083H76.9513C78.0342 39.0083 78.9296 39.0708 78.9296 39.1333ZM39.9875 59V60.666H35.8226H31.6576V59V57.334H35.8226H39.9875V59ZM75.0146 59.4373C77.1803 60.666 77.222 60.4786 74.4731 62.2278L72.6197 63.4148L72.7447 61.9988C72.828 61.2074 72.8905 60.0621 72.8905 59.4581C72.8905 58.8751 72.9529 58.3753 73.0154 58.3753C73.0987 58.3753 73.9942 58.8542 75.0146 59.4373Z" fill="#DB0909"/>
<path d="M88.8213 66.1845C88.384 66.6218 88.3007 66.8717 88.3007 68.0171C88.3007 69.3082 88.2799 69.3707 87.676 69.6206C86.2599 70.2036 84.9688 72.3069 84.9688 73.9937C84.9688 76.5552 87.3844 78.9917 89.9458 78.9917C91.4244 78.9917 92.1533 80.7617 91.112 81.803C90.0916 82.8442 88.3007 82.1154 88.3007 80.6576C88.3007 79.8038 87.4885 78.9917 86.6347 78.9917C85.7601 78.9917 84.9688 79.8038 84.9688 80.6785C84.9688 82.3444 86.2807 84.4477 87.676 85.0308C88.2799 85.2807 88.3007 85.3432 88.3007 86.6343C88.3007 87.7797 88.384 88.0296 88.8213 88.4669C89.1337 88.8001 89.571 88.9875 89.9667 88.9875C90.3623 88.9875 90.7997 88.8001 91.112 88.4669C91.5493 88.0296 91.6326 87.7797 91.6326 86.6343C91.6326 85.3432 91.6535 85.2807 92.2574 85.0308C93.6735 84.4477 94.9646 82.3444 94.9646 80.6576C94.9646 78.0962 92.5489 75.6597 89.9875 75.6597C89.1129 75.6597 88.3007 74.8684 88.3007 73.9937C88.3007 73.1399 89.1129 72.3278 89.9667 72.3278C90.8205 72.3278 91.6326 73.1399 91.6326 73.9937C91.6326 74.8475 92.4448 75.6597 93.2986 75.6597C94.1732 75.6597 94.9646 74.8475 94.9646 73.9729C94.9646 72.3069 93.6526 70.2036 92.2574 69.6206C91.6535 69.3707 91.6326 69.3082 91.6326 68.0171C91.6326 66.8717 91.5493 66.6218 91.112 66.1845C90.7997 65.8513 90.3623 65.6639 89.9667 65.6639C89.571 65.6639 89.1337 65.8513 88.8213 66.1845Z" fill="#DB0909"/>
<path d="M28.8463 77.8463C28.5131 78.1587 28.3257 78.596 28.3257 78.9917C28.3257 79.3873 28.5131 79.8247 28.8463 80.137L29.3461 80.6577H44.9854H60.6247L61.1245 80.137C61.8117 79.4706 61.8117 78.5127 61.1245 77.8463L60.6247 77.3257H44.9854H29.3461L28.8463 77.8463Z" fill="#DB0909"/>
<path d="M28.8463 84.5102C28.5131 84.8226 28.3257 85.2599 28.3257 85.6556C28.3257 86.0512 28.5131 86.4885 28.8463 86.8009L29.3461 87.3215H38.3215H47.2969L47.7967 86.8009C48.1299 86.4885 48.3174 86.0512 48.3174 85.6556C48.3174 85.2599 48.1299 84.8226 47.7967 84.5102L47.2969 83.9896H38.3215H29.3461L28.8463 84.5102Z" fill="#DB0909"/>
<path d="M20.5162 99.504C20.183 99.8163 19.9956 100.254 19.9956 100.649C19.9956 101.045 20.183 101.482 20.5162 101.795C21.5366 102.836 23.3276 102.107 23.3276 100.649C23.3276 99.7955 22.5154 98.9834 21.6616 98.9834C21.2659 98.9834 20.8286 99.1708 20.5162 99.504Z" fill="#DB0909"/>
<path d="M27.1803 99.504C26.8471 99.8163 26.6597 100.254 26.6597 100.649C26.6597 101.045 26.8471 101.482 27.1803 101.795C28.2007 102.836 29.9916 102.107 29.9916 100.649C29.9916 99.7955 29.1795 98.9834 28.3256 98.9834C27.93 98.9834 27.4927 99.1708 27.1803 99.504Z" fill="#DB0909"/>
<path d="M92.1531 99.504C91.1119 100.524 91.8408 102.315 93.2985 102.315C94.1523 102.315 94.9645 101.503 94.9645 100.649C94.9645 99.7955 94.1523 98.9834 93.2985 98.9834C92.9028 98.9834 92.4655 99.1708 92.1531 99.504Z" fill="#DB0909"/>
<path d="M98.8172 99.504C97.776 100.524 98.5048 102.315 99.9626 102.315C100.816 102.315 101.629 101.503 101.629 100.649C101.629 99.7955 100.816 98.9834 99.9626 98.9834C99.5669 98.9834 99.1296 99.1708 98.8172 99.504Z" fill="#DB0909"/>
</svg>
