<svg width="120" height="120" viewBox="0 0 120 120" fill="none" xmlns="http://www.w3.org/2000/svg">
<path d="M105.306 19.0455C114.823 59.2973 132.97 83.7935 105.306 108.494C77.641 133.195 54.2704 111.853 17.9905 102.442C-18.2894 93.0302 7.175 24.0124 34.1149 19.0455C61.0548 14.0786 95.7884 -21.2064 105.306 19.0455Z" fill="#EAEAEA"/>
<path d="M59.582 10.2344C59.0547 10.332 57.8633 10.7617 56.9648 11.1914C54.0938 12.5977 51.9844 15.1758 51.1836 18.3008C50.9492 19.2383 50.8906 20.9961 50.8906 27.9688V36.4648L36.0078 36.4062C25.7344 36.3672 20.8125 36.4258 20.1094 36.5625C17.3945 37.1289 15.0508 39.0039 13.8203 41.582C13.0977 43.1055 13.0977 43.125 13.0391 46.0547C12.9609 48.8672 12.9805 49.043 13.3711 49.4336C13.9766 50.0391 15.0117 49.9805 15.5195 49.3359C15.8906 48.8672 15.9297 48.5547 15.9297 46.5039C15.9297 44.6484 16.0078 43.9844 16.3398 43.1055C16.8086 41.8359 18.0391 40.5273 19.3867 39.8633L20.3242 39.3945H35.2656H50.207L51.2227 39.8633C52.4922 40.4297 53.8398 41.8359 54.3281 43.1055C54.6797 44.043 54.6992 44.7461 54.6992 58.3398V72.5977L52.2578 72.6953C50.0898 72.7734 49.6992 72.8516 48.7031 73.3398C47.2578 74.043 45.9492 75.5078 45.4023 76.9922C44.9922 78.1055 44.9141 78.2031 41.75 80.6445C39.9727 82.0117 38.4492 83.1641 38.3711 83.2031C38.293 83.2422 38.1953 82.3047 38.1562 81.1328C38.0586 77.8906 38.9961 78.2031 29.0547 78.125C21.6523 78.0469 20.6172 78.0078 19.7969 77.6953C18.5664 77.2461 17.1992 75.9961 16.5547 74.7656L16.0273 73.7695L15.9297 65.2539C15.832 57.207 15.8125 56.6992 15.4609 56.3086C14.9727 55.7812 13.918 55.7617 13.3906 56.2891C13.0195 56.6602 13 56.9336 13 65.0586C13 74.2188 13.0391 74.6289 14.2305 76.6406C14.9531 77.8906 16.7305 79.4727 18.1367 80.1367C19.8945 80.9375 21.3789 81.0742 28.7812 81.0938H35.2656V84.082C35.2656 87.3242 35.3242 87.5 36.3789 87.8125C36.9648 88.0078 37.1992 87.8516 41.0664 84.8633C42.9414 83.418 44.582 82.207 44.7383 82.1484C44.9727 82.0508 45.0312 83.3594 45.0703 91.1914L45.1289 100.332L45.6758 101.367C46.3984 102.734 47.5703 103.867 48.918 104.512C50.0117 105.02 50.0508 105.02 55.3438 105.078L60.6562 105.137V106.875C60.6562 107.832 60.7539 108.828 60.8711 109.082C61.1055 109.59 61.7891 110 62.375 110C62.5508 110 64.1133 108.906 65.8516 107.578L68.9766 105.176L70.7344 105.078C73.7227 104.941 75.7148 103.652 76.9258 101.074C77.4727 99.8828 77.5117 99.6289 77.5312 97.4609C77.5508 95.2344 77.5312 95.0977 77.082 94.7461C76.5352 94.2969 75.7344 94.2578 75.1875 94.668C74.8164 94.9023 74.7578 95.1953 74.6797 97.1484C74.5625 99.5312 74.3672 100.156 73.4102 101.055C72.5312 101.895 71.5938 102.188 69.7578 102.188H68.0977L65.8906 103.848L63.6836 105.527L63.625 104.258C63.5859 103.164 63.5078 102.93 63.0586 102.578C62.5703 102.207 62.2969 102.188 56.7695 102.188C51.5547 102.188 50.9102 102.148 50.207 101.816C49.2891 101.387 48.4688 100.566 48.1758 99.7852C48.0391 99.4141 47.9609 95.6836 47.9609 88.7891C47.9609 78.9258 47.9805 78.3008 48.332 77.6172C48.7617 76.7969 49.1719 76.3867 50.0508 75.9375C50.5977 75.6641 51.8867 75.625 61.2422 75.625C70.5977 75.625 71.8867 75.6641 72.4336 75.9375C73.332 76.3867 73.7227 76.7969 74.1914 77.6758C74.582 78.3984 74.6211 78.8281 74.6797 82.8516C74.7578 87.793 74.7969 87.9297 76.0859 87.9297C76.5742 87.9297 76.9258 87.793 77.1797 87.5195C77.5312 87.1289 77.5508 86.7578 77.5312 82.5781C77.5312 78.3203 77.5117 78.0078 77.0625 76.8945C76.4375 75.3125 74.8359 73.6914 73.293 73.125C72.2188 72.7148 71.8672 72.6953 64.9531 72.6953H57.7266V68.8672C57.7266 65.293 57.7461 65.0391 58.0781 65.1758C59.543 65.7617 61.1641 65.8594 69.6016 65.8594H78.2344V69.7461V73.6523L78.7422 74.043C79.0352 74.2773 79.4648 74.4531 79.6992 74.4531C79.9922 74.4531 82.2188 72.8711 85.6953 70.1953L91.2227 65.957L94.543 65.8398C97.4336 65.7422 98.0586 65.6445 99.3086 65.2148C101.965 64.2773 104.23 62.3633 105.461 60C106.809 57.4609 106.77 58.1836 106.711 37.2852L106.652 18.4961L106.086 17.1289C104.914 14.2773 103.059 12.2852 100.402 11.0547C98.5664 10.2148 97.2578 10 93.8203 10C91.1836 10 90.8906 10.0391 90.5391 10.3906C90.0117 10.918 90.0117 12.0117 90.5781 12.5391C90.9688 12.8906 91.2617 12.9297 93.8594 12.9297C98.0391 12.9297 99.6211 13.4375 101.555 15.4102C102.062 15.918 102.746 16.8945 103.098 17.5977L103.723 18.8867V37.9297V56.9727L103.098 58.2617C102.395 59.6875 100.871 61.2695 99.5625 61.9336C98.0391 62.7148 96.6914 62.9297 93.4492 62.9297H90.3828L85.832 66.4258L81.2617 69.9219L81.1641 66.7969C81.0664 63.8086 81.0469 63.6523 80.5977 63.3008C80.168 62.9492 79.6992 62.9297 70.6953 62.9297C60.9688 62.9297 59.9141 62.8516 58.4688 62.1289L57.7266 61.7578V53.1641C57.7266 47.6172 57.6484 44.2188 57.5117 43.5547C57.1602 41.875 56.3789 40.4688 55.0508 39.082L53.8008 37.793L53.8594 28.3398L53.918 18.8867L54.5234 17.6172C55.168 16.2305 56.5156 14.7656 57.7852 14.0039C59.582 12.9688 60.0117 12.9297 71.9258 12.9297C82.668 12.9297 82.9219 12.9297 83.3125 12.5391C83.5469 12.3047 83.7031 11.8945 83.7031 11.4648C83.7031 11.0352 83.5469 10.625 83.3125 10.3906C82.9219 10 82.668 10 71.75 10.0195C65.5977 10.0391 60.1289 10.1172 59.582 10.2344Z" fill="#DB0909"/>
<path d="M80.3828 21.0938C79.4062 21.6211 78.8594 22.5195 78.7227 23.8281C78.5469 25.5664 78.0781 27.207 77.4727 28.1641C77.1602 28.6523 75.9297 30.1563 74.7188 31.5234C72.7852 33.7109 72.4922 33.9844 72.2383 33.7305C72.0039 33.4961 71.1445 33.4375 67.2969 33.4375C62.707 33.4375 62.6289 33.4375 62.3359 33.8672C62.0625 34.2578 62.0234 35.5078 62.0234 43.7305C62.0234 52.9102 62.043 53.1836 62.4141 53.5547C62.7852 53.9258 63.0586 53.9453 67.3555 53.9453C71.6523 53.9453 71.9453 53.9258 72.2773 53.5547C72.6094 53.1836 72.6289 53.1836 73.332 53.5352C75.3828 54.5898 75.793 54.6289 84.582 54.6289C92.7266 54.6289 92.7852 54.6289 93.6055 54.1797C94.0742 53.9453 94.6797 53.3789 94.9727 52.9297L95.5195 52.1094L95.5781 44.2969C95.6172 39.9805 95.5781 36.1719 95.5195 35.8203C95.3633 35 94.3672 33.8672 93.3711 33.418C92.707 33.1055 92.043 33.0469 88.6055 33.0469C84.8945 33.0469 84.6406 33.0273 84.7773 32.6953C85.7734 30.332 86.0469 27.8516 85.5781 25.625C85.1875 23.7695 84.25 21.8555 83.4688 21.3086C82.6289 20.7031 81.2617 20.6055 80.3828 21.0938ZM82.1992 24.5703C82.3945 24.9414 82.6484 25.8594 82.7656 26.6016C83.0586 28.3398 82.7852 29.9414 81.7305 32.3828C81.3203 33.3789 80.9688 34.375 80.9688 34.6094C80.9688 34.8242 81.1836 35.2344 81.457 35.4883L81.9258 35.9766H87.082C90.8125 35.9766 92.2773 36.0352 92.4531 36.2109C92.6289 36.3867 92.6875 38.3594 92.6875 43.9258C92.6875 51.1133 92.668 51.4063 92.3164 51.6016C91.8086 51.8555 78.5469 51.8555 76.8867 51.6016C75.5781 51.3867 74.4648 50.8984 73.4102 50.0977L72.7656 49.6289V43.8867V38.1641L76.1836 34.2773C78.4102 31.7578 79.8359 29.9609 80.2656 29.1406C81.0273 27.6953 81.5547 25.8594 81.5547 24.668C81.5547 23.6914 81.7695 23.6523 82.1992 24.5703ZM69.8359 43.6914V51.0156H67.3945H64.9531V43.6914V36.3672H67.3945H69.8359V43.6914Z" fill="#DB0909"/>
<path d="M32.6484 48.2617C32.3554 48.5742 32.0429 50.0977 31.3593 54.2773C31.3593 54.3164 29.9531 54.3359 28.2539 54.3359C25.2851 54.3359 25.1093 54.3555 24.6406 54.7656C23.9375 55.4102 23.8789 56.2305 24.5234 56.875C24.875 57.2266 25.1679 57.2656 27.8437 57.2656H30.7734V57.793C30.7539 58.1055 30.6562 58.9063 30.5195 59.6094L30.2851 60.8789L27.5507 60.9375C24.4453 60.9961 24.1328 61.1328 24.1328 62.3438C24.1328 63.5938 24.5625 63.7891 27.375 63.8867C28.7031 63.9063 29.7968 63.9648 29.7968 63.9844C29.7968 63.9844 29.621 65.0195 29.4062 66.25C29.1914 67.4805 29.0156 68.7305 29.0156 69.0039C29.0156 69.668 29.7773 70.3516 30.5195 70.3516C31.496 70.3516 31.7695 69.8438 32.2578 66.8945C32.5117 65.4102 32.7265 64.1406 32.7265 64.043C32.7265 63.9648 33.5273 63.9063 34.4843 63.9063C35.6367 63.9063 36.2421 63.9844 36.2421 64.1211C36.2421 64.2383 36.0468 65.4297 35.832 66.7773C35.4218 69.2188 35.4218 69.2188 35.7929 69.7461C36.3203 70.4297 37.2968 70.5273 37.9023 69.9609C38.2734 69.6094 38.4296 69.0625 38.8007 66.7188L39.25 63.9063H42.1015C45.0898 63.9063 46.0859 63.7305 46.3984 63.125C46.6718 62.6172 46.6328 61.8945 46.3203 61.4453C46.0664 61.1133 45.7148 61.0547 42.9414 60.9766C39.4062 60.8594 39.7382 61.1328 40.1484 58.6719L40.3828 57.2656H43.0585C45.6171 57.2656 45.7734 57.2461 46.164 56.8164C46.7304 56.2109 46.7109 55.4102 46.1054 54.8242C45.6562 54.3555 45.5195 54.3359 43.2734 54.3359C41.8281 54.3359 40.9296 54.2578 40.9296 54.1406C40.9296 54.0234 41.1054 52.832 41.3203 51.4648C41.7109 49.0234 41.7109 48.9648 41.3593 48.4766C40.7539 47.6758 39.3281 47.7148 38.957 48.5352C38.8593 48.7695 38.5664 50.1563 38.332 51.6016L37.8828 54.2383L36.125 54.2969L34.3476 54.3555L34.6992 52.2461C35.1679 49.5313 35.1679 48.6328 34.7187 48.2227C34.2304 47.7734 33.0585 47.793 32.6484 48.2617ZM37.414 57.3047C37.414 57.6172 36.8085 60.6445 36.7304 60.7813C36.6718 60.8984 35.871 60.9766 34.9531 60.9766C33.1171 60.9766 33.1953 61.0742 33.5078 59.2969C33.8984 57.0508 33.6835 57.2656 35.6562 57.2656C36.6328 57.2656 37.414 57.2852 37.414 57.3047Z" fill="#DB0909"/>
<path d="M55.8125 82.5781C54.7188 83.125 54.0547 83.8086 53.3711 85.0781C53.0195 85.7227 52.9414 86.2109 52.9414 87.6367C52.9414 89.2383 53 89.5313 53.5859 90.7031C54.0352 91.6406 54.6016 92.3633 55.5586 93.2422C56.8672 94.4531 59.3867 96.0938 60.6172 96.5625C61.3984 96.8555 61.9062 96.6992 64.0352 95.4102C66.3203 94.043 68.1172 92.2852 68.8984 90.7031C69.4844 89.5313 69.543 89.2383 69.543 87.6367C69.543 86.0547 69.4844 85.7813 68.957 84.8242C68.3516 83.7305 67.2383 82.7539 66.0664 82.3242C64.9531 81.9141 63.1758 82.0117 62.1602 82.5391L61.2422 82.9883L60.3242 82.5391C59.0156 81.875 57.1992 81.8945 55.8125 82.5781ZM59.7969 85.918C60.4414 86.6211 60.7734 86.8164 61.2422 86.8164C61.7109 86.8164 62.043 86.6211 62.6875 85.918C63.4297 85.0977 63.625 85 64.3477 85C64.9922 85 65.3047 85.1367 65.8906 85.6641C66.5938 86.3281 66.6133 86.3672 66.6133 87.6953C66.6133 88.9063 66.5352 89.1602 66.0273 89.9219C65.3242 90.8984 63.6055 92.3242 62.2188 93.0859L61.2422 93.6133L60.3047 93.1055C58.918 92.3633 57.2188 90.9766 56.5547 90.0586C55.5195 88.6328 55.5391 86.6406 56.5742 85.5859C57.0625 85.0977 57.3359 85 58.0586 85C58.8789 85 59.0352 85.0781 59.7969 85.918Z" fill="#DB0909"/>
</svg>
