<svg width="120" height="120" viewBox="0 0 120 120" fill="none" xmlns="http://www.w3.org/2000/svg">
<path d="M14.6944 100.955C5.17718 60.7027 -12.9702 36.2065 14.6944 11.506C42.359 -13.1946 65.7296 8.14683 102.01 17.5583C138.289 26.9698 112.825 95.9876 85.8851 100.955C58.9452 105.921 24.2116 141.206 14.6944 100.955Z" fill="#EAEAEA"/>
<path d="M68.6027 16.8222C67.1361 17.2329 65.6891 18.3475 64.0856 20.2639C62.5016 22.1411 62.2865 22.7278 62.8732 23.5491C63.2447 24.0771 64.0269 24.2726 64.594 23.9597C64.8482 23.8228 65.7086 22.9624 66.5104 22.0629C67.3121 21.1634 68.3094 20.2443 68.7396 20.0097C69.6978 19.5012 71.5946 19.4621 72.455 19.9314C72.7874 20.1074 78.4388 24.9179 85.0483 30.6279C95.7056 39.8186 97.1527 41.0115 97.7198 41.0115C98.5802 41.0115 99.1473 40.4248 99.1473 39.5449C99.1473 38.7627 100.34 39.8577 84.8332 26.4432C73.9021 16.9787 73.5501 16.744 71.0471 16.6267C70.1671 16.6071 69.1307 16.6854 68.6027 16.8222Z" fill="#DB0909"/>
<path d="M39.7984 19.5795C37.315 20.3616 35.7506 21.9651 34.812 24.6832C34.108 26.7169 34.4209 27.7142 35.7702 27.7142C36.7088 27.7142 37.0412 27.3427 37.5888 25.7588C38.2927 23.6468 40.0135 22.2389 41.8908 22.2389C42.321 22.2389 64.5157 29.5915 81.8607 35.4579C83.7771 36.1228 84.5788 36.4943 85.0677 36.9636C85.9086 37.7849 86.4365 38.9387 86.4365 40.0533C86.4365 40.7377 84.0704 47.9925 76.9525 69.229C71.7314 84.775 67.4684 97.7203 67.4684 97.994C67.4684 99.1673 69.1306 99.7344 69.9519 98.8349C70.3821 98.3656 89.096 42.7323 89.3502 41.1679C89.5457 39.9751 89.2915 38.1174 88.7636 37.0223C88.216 35.8686 86.9841 34.4802 85.9672 33.874C85.5175 33.6198 75.701 30.2368 64.1441 26.3454C44.7458 19.8337 43.0641 19.3057 41.8712 19.3252C41.1673 19.3252 40.2286 19.4426 39.7984 19.5795Z" fill="#DB0909"/>
<path d="M14.9639 29.8261C12.7151 30.6083 11.0529 32.3096 10.3685 34.5584C9.97743 35.8099 9.97743 36.2205 10.0165 66.6282L10.0752 97.4269L10.525 98.4046C11.5614 100.653 12.9889 101.983 15.0812 102.628C16.2154 102.98 17.2909 103 38.5274 103C59.627 103 60.8393 102.98 61.954 102.648C64.0463 101.983 65.552 100.653 66.5689 98.5024L66.9795 97.6224V66.2371V34.8517L66.4711 33.7762C65.7085 32.1727 64.5352 30.9603 63.0099 30.2172L61.6998 29.5719L38.8207 29.5328C17.4865 29.4937 15.883 29.5132 14.9639 29.8261ZM61.1131 32.6224C62.306 32.9549 63.6552 34.441 63.9486 35.7512C64.105 36.5334 64.1441 44.7268 64.105 66.8237L64.0463 96.8403L63.6161 97.6224C63.1468 98.522 62.5602 99.089 61.602 99.5975C60.9371 99.9495 60.0181 99.969 38.5274 99.969C17.0367 99.969 16.1176 99.9495 15.4528 99.5975C14.4946 99.089 13.9079 98.522 13.4386 97.6224L13.0084 96.8403V66.2371V35.6339L13.4386 34.8126C13.947 33.8935 14.9443 33.0135 15.883 32.6615C16.7629 32.3487 59.9594 32.3096 61.1131 32.6224Z" fill="#DB0909"/>
<path d="M37.4912 35.3014C37.3152 35.497 36.2201 37.5894 35.0859 39.9555C33.9322 42.302 32.974 44.2771 32.9349 44.3162C32.8958 44.3553 30.6275 44.7073 27.8702 45.1179C22.3558 45.9197 22.1016 45.9979 22.1016 47.2494C22.082 47.9143 22.3167 48.188 25.7583 51.5123L29.4151 55.0517L28.5938 59.9209C28.144 62.5803 27.7725 64.9269 27.7725 65.1224C27.7725 65.6113 28.6524 66.4326 29.1609 66.4326C29.3955 66.4326 31.6052 65.3767 34.0691 64.0665L38.5471 61.7199L43.0252 64.0665C45.4891 65.3767 47.6792 66.4326 47.9139 66.4326C48.4614 66.4326 49.2827 65.5918 49.2827 65.0442C49.2827 64.79 48.9112 62.463 48.4614 59.8427L47.6597 55.0713L51.2968 51.5514C54.7971 48.1685 54.9536 47.9925 54.9536 47.269C54.9536 45.9979 54.6407 45.8806 49.4587 45.1375C46.9361 44.7855 44.7264 44.4531 44.5309 44.3944C44.3158 44.3357 43.3967 42.7323 42.0279 39.975C40.835 37.5894 39.7204 35.4774 39.5444 35.2819C39.1533 34.8321 37.9018 34.8321 37.4912 35.3014ZM42.5754 47.0343C43.0447 47.2103 49.4587 48.2467 50.1235 48.2467C50.2409 48.2467 49.048 49.5373 47.4641 51.1408C45.2935 53.3114 44.5896 54.1327 44.5896 54.5042C44.5896 54.778 44.8633 56.5379 45.1762 58.3956C45.5086 60.2533 45.7628 61.8568 45.7237 61.935C45.6846 62.0328 44.1789 61.3093 42.3799 60.3511C40.5808 59.3929 38.8796 58.6107 38.5862 58.6107C38.3125 58.6107 36.5525 59.4125 34.6948 60.3706C32.8176 61.3484 31.2923 62.0719 31.2923 61.9937C31.2923 61.9155 31.5661 60.312 31.879 58.4543C32.2114 56.577 32.4656 54.7975 32.4656 54.4847C32.4656 53.9958 31.9963 53.4678 29.6302 51.1408C28.0658 49.6155 26.8143 48.364 26.8338 48.3249C26.8729 48.3054 28.5155 48.0511 30.4906 47.7578C32.4656 47.4841 34.2842 47.1712 34.5384 47.0734C34.8904 46.9365 35.4575 45.9979 36.7872 43.3189L38.5862 39.7404L40.2875 43.2798C41.7346 46.2521 42.1061 46.8583 42.5754 47.0343Z" fill="#DB0909"/>
<path d="M15.57 71.1453C14.9051 71.6733 14.866 72.6901 15.4918 73.2768C15.922 73.6678 16.0393 73.6678 38.5664 73.6678C60.9566 73.6678 61.2108 73.6678 61.6019 73.2768C62.1494 72.7292 62.1103 71.6928 61.5432 71.1648L61.0935 70.7346H38.5859C16.1175 70.7346 16.098 70.7346 15.57 71.1453Z" fill="#DB0909"/>
<path d="M22.5513 79.6321C22.3362 79.7885 22.082 80.1405 22.0234 80.4143C21.8865 80.9814 22.3167 81.9591 22.786 82.1546C22.962 82.2133 24.8001 82.272 26.8729 82.272C30.5492 82.272 30.647 82.2524 31.0577 81.8222C31.6052 81.2356 31.6247 80.2578 31.0968 79.7299C30.7252 79.3583 30.4515 79.3388 26.8338 79.3388C23.7442 79.3388 22.8838 79.3974 22.5513 79.6321Z" fill="#DB0909"/>
<path d="M34.0297 79.7299C33.4431 80.3165 33.5017 81.3529 34.147 81.8613C34.6554 82.272 34.851 82.272 44.3937 82.272C53.604 82.272 54.1515 82.2524 54.5817 81.9004C55.2075 81.392 55.2075 80.2187 54.5817 79.7103C54.1515 79.3583 53.604 79.3388 44.2764 79.3388C34.675 79.3388 34.4012 79.3583 34.0297 79.7299Z" fill="#DB0909"/>
<path d="M22.727 85.1465C22.3163 85.3029 21.8861 86.3393 22.023 86.8673C22.2968 87.9819 21.6123 87.9428 38.5468 87.9428C53.4866 87.9428 54.1515 87.9233 54.5817 87.5713C55.2074 87.0629 55.2074 85.8896 54.5817 85.3812C54.1515 85.0292 53.4866 85.0096 38.5468 85.0292C29.9818 85.0292 22.8638 85.0878 22.727 85.1465Z" fill="#DB0909"/>
<path d="M22.5708 91.1303C21.8864 91.717 21.8473 92.6751 22.4731 93.2813L22.9033 93.7115H38.5471H54.2104L54.6797 93.164C54.934 92.8707 55.1491 92.4992 55.1491 92.3427C55.1491 91.8147 54.6993 91.1108 54.23 90.8957C53.8976 90.7392 49.2435 90.6806 38.4297 90.6806H23.0988L22.5708 91.1303Z" fill="#DB0909"/>
<path d="M100.633 41.8132C100.027 42.302 99.9489 43.2993 100.477 43.886C100.653 44.1011 102.002 45.2939 103.469 46.5454C106.558 49.2049 107.047 49.9088 107.047 51.6688C107.047 52.3923 106.91 53.0963 106.715 53.4678C106.519 53.8198 99.3623 62.2283 90.7777 72.1426C71.3403 94.6305 72.9438 92.7337 72.9438 93.3399C72.9438 94.0048 73.7651 94.787 74.4886 94.787C74.8993 94.787 75.2708 94.5719 75.8379 93.9461C76.2681 93.4964 83.8553 84.7554 92.6745 74.5478C105.229 60.0382 108.885 55.697 109.374 54.6997C109.941 53.5656 110 53.2722 110 51.6688C110 50.1044 109.941 49.7719 109.394 48.6378C108.729 47.2298 107.829 46.3108 104.271 43.2798C101.924 41.2656 101.513 41.1092 100.633 41.8132Z" fill="#DB0909"/>
</svg>
