<svg width="120" height="120" viewBox="0 0 120 120" fill="none" xmlns="http://www.w3.org/2000/svg">
<path d="M14.6944 100.955C5.17718 60.7027 -12.9702 36.2065 14.6944 11.506C42.359 -13.1946 65.7296 8.14683 102.01 17.5583C138.289 26.9698 112.825 95.9876 85.8851 100.955C58.9452 105.921 24.2116 141.206 14.6944 100.955Z" fill="#EAEAEA"/>
<path d="M24.9414 10.1562C24.7266 10.2539 24.375 10.5273 24.1602 10.7617C23.7695 11.1914 23.7695 11.5039 23.7109 25.7226L23.6719 40.2344L17.2461 45.4102C13.7109 48.2422 10.6445 50.8203 10.4102 51.1133L10 51.6406V76.3086C10 93.5156 10.0586 101.289 10.2148 102.012C10.9766 105.645 14.3359 109.004 17.9688 109.766C19.4336 110.078 100.566 110.078 102.031 109.766C105.664 109.004 109.023 105.645 109.785 102.012C109.941 101.289 110 93.5156 110 76.2891V51.6211L109.512 51.0352C109.258 50.7227 106.191 48.2422 102.695 45.5273L96.3672 40.6055L96.2891 39.1406C96.2305 37.7734 96.1719 37.6367 95.5664 37.0898C95.0195 36.6016 94.8047 36.5234 94.1992 36.6211C93.75 36.6797 93.3008 36.9531 92.9688 37.3242L92.4219 37.9101L92.4023 41.7773C92.4023 43.8867 92.3438 45.4883 92.2852 45.332C92.2266 45.1758 90 42.832 87.3242 40.1562L82.4414 35.2539L82.9492 34.1406C83.5938 32.7539 83.7891 30.6055 83.4375 29.1016C82.8516 26.6211 81.1328 24.5117 78.8086 23.3984C77.5586 22.8125 77.3438 22.7734 75.332 22.7734C73.418 22.7734 73.0664 22.832 72.1094 23.2812L71.0352 23.8086L66.1523 18.9453C62.0312 14.8437 61.1523 14.0625 60.5859 13.9648C59.043 13.7305 59.375 13.1055 52.1094 30.2148L45.4883 45.8203L41.3477 50.0195C38.6133 52.793 37.0117 54.5898 36.6016 55.3125C35.8398 56.6602 35.1953 59.0625 35.1953 60.5469C35.2148 64.4531 37.5781 68.2031 41.1133 69.9414C45.0391 71.875 49.2383 71.3086 52.7539 68.3789L53.9844 67.3437L57.1875 70.5469C60.7422 74.1016 60.7031 73.9844 58.4375 74.0234C57.8516 74.043 56.5625 74.2187 55.5664 74.4336C51.9141 75.1953 48.6914 76.8555 45.5273 79.5898L43.75 81.1328L35.6641 73.0469L27.5781 64.9609V39.4336V13.8867L38.9062 13.8476L50.2344 13.7891L50.7617 13.2617C51.5039 12.5 51.5039 11.3672 50.7617 10.6055L50.2344 10.0781L37.7734 10.0391C30.9375 10.0195 25.1562 10.0781 24.9414 10.1562ZM86.875 45.2734C86.8555 45.293 85.9375 45.7031 84.8633 46.1914L82.9102 47.0508L71.0742 35.1953L59.2383 23.3594L59.8242 21.9922C60.1562 21.2305 60.5469 20.3125 60.7031 19.9414L60.9961 19.2773L73.9648 32.2461C81.0938 39.375 86.9141 45.2344 86.875 45.2734ZM77.7539 27.2266C79.1992 28.1836 80.0391 30.2148 79.6484 31.7773C79.5117 32.3047 79.4336 32.2461 76.7969 29.6094C75.3125 28.125 74.1406 26.8164 74.1992 26.7187C74.2578 26.6211 74.9023 26.582 75.625 26.6211C76.6406 26.6797 77.1094 26.8164 77.7539 27.2266ZM78.75 48.6719C78.75 48.7891 59.9609 56.8555 59.6875 56.8555C59.4531 56.8555 49.4531 46.8359 49.4531 46.6016C49.4531 46.5039 51.2695 42.1289 53.4961 36.875L57.5586 27.3633L68.1445 37.9492C73.9844 43.7891 78.75 48.6133 78.75 48.6719ZM23.6719 53.1836V61.0547L19.2969 56.6797L14.9219 52.3047L19.2383 48.8281C21.6211 46.8945 23.5938 45.332 23.6328 45.332C23.6523 45.332 23.6719 48.8672 23.6719 53.1836ZM101.465 49.5117C103.359 50.9961 104.922 52.2656 104.922 52.3242C104.922 52.4023 102.988 54.3945 100.625 56.7578L96.3281 61.0547V53.2617V45.4883L97.168 46.1523C97.6172 46.5234 99.5508 48.0273 101.465 49.5117ZM84.3359 73.0469L76.25 81.1328L74.5312 79.6289C71.6406 77.1094 68.5938 75.4492 65.4492 74.6484L64.1211 74.3164L66.7383 71.6992C69.5312 68.9258 69.9414 68.2812 69.5703 67.2852C69.4531 66.9727 67.8516 65.2148 65.9961 63.3594C64.1602 61.5039 62.6953 59.9609 62.7344 59.9023C62.793 59.8633 69.2383 57.0898 77.0703 53.75C84.9219 50.4102 91.5234 47.4805 91.7773 47.2461C92.0312 47.0117 92.2461 46.6797 92.2656 46.5234C92.3047 46.3477 92.3438 50.4297 92.3633 55.5859L92.4219 64.9609L84.3359 73.0469ZM51.7969 54.6094L56.3867 59.1992L52.9883 62.5977C48.9648 66.6211 48.2227 67.0898 45.7422 67.0898C40.8789 67.0898 37.7344 62.1484 39.7852 57.6758C40.1367 56.8945 41.0742 55.8203 43.5156 53.3398C45.3125 51.5039 46.875 50.0195 46.9922 50.0195C47.1094 50.0195 49.2773 52.0898 51.7969 54.6094ZM40.6641 83.8477C40.6641 84.0234 17.4805 105.098 17.1289 105.215C16.6992 105.391 15.1367 103.789 14.5508 102.578L14.0039 101.484L13.9453 79.2187L13.9062 56.9531L27.2852 70.332C34.6484 77.6953 40.6641 83.7695 40.6641 83.8477ZM106.055 84.3945L105.996 101.484L105.449 102.578C104.863 103.789 103.301 105.391 102.871 105.215C102.52 105.098 79.3359 84.0234 79.3359 83.8477C79.3359 83.7695 85.332 77.7148 92.6758 70.3711L105.996 57.0508L106.055 62.168C106.074 65 106.074 75 106.055 84.3945ZM62.0898 64.9023C63.6328 66.4453 64.8828 67.7734 64.8828 67.8906C64.8828 68.0078 64.375 68.5937 63.75 69.2187L62.6367 70.332L59.707 67.4023L56.7773 64.4727L57.9492 63.3008C58.5938 62.6562 59.1602 62.1289 59.2188 62.1289C59.2578 62.1289 60.5664 63.3789 62.0898 64.9023ZM61.875 77.9492C62.7344 78.0664 63.9648 78.2812 64.6094 78.4375C66.1133 78.8281 69.0039 80.2344 70.293 81.1914C70.8398 81.6211 77.2461 87.3633 84.5312 93.9648L97.7539 105.977L78.8672 106.035C68.4961 106.055 51.5039 106.055 41.1328 106.035L22.2461 105.977L25.4297 103.105L28.5938 100.215H35.957C41.4062 100.215 43.418 100.156 43.7891 99.9609C44.0625 99.8242 44.4336 99.3945 44.6289 99.0039C44.9414 98.3789 44.9414 98.2227 44.707 97.6367C44.1797 96.4062 44.2578 96.4062 38.3789 96.3086L33.0078 96.2109L40.8398 89.1016C45.1562 85.1758 49.1406 81.6406 49.707 81.2109C51.0156 80.2148 53.8867 78.8281 55.4688 78.4375C57.9297 77.8125 59.6875 77.6758 61.875 77.9492Z" fill="#DB0909"/>
<path d="M50.1368 96.5235C48.6915 97.3633 48.711 99.2578 50.2149 100.02C51.6212 100.742 53.3204 99.1016 52.6954 97.6172C52.5587 97.2656 52.3047 96.875 52.129 96.7383C51.6993 96.3867 50.6055 96.2696 50.1368 96.5235Z" fill="#DB0909"/>
<path d="M78.4179 10.1758C77.5585 10.5274 77.2851 11.2695 77.207 13.5938C77.1484 16.0156 77.3827 16.9336 78.2421 17.5C78.9452 17.9688 80.0781 17.7734 80.664 17.1094C81.0546 16.6406 81.0937 16.4258 81.0937 13.9649C81.0937 12.5 80.996 11.1524 80.8984 10.9375C80.664 10.5078 79.707 9.98048 79.1992 10C79.0038 10 78.6523 10.0781 78.4179 10.1758Z" fill="#DB0909"/>
<path d="M93.9844 10.1367C93.4375 10.2148 85.3516 18.1055 84.8633 19.043C84.1993 20.293 85.1172 21.7578 86.5821 21.7578C87.3829 21.7578 87.461 21.6797 91.8555 17.2656C96.2305 12.9102 96.3282 12.7734 96.3282 11.9922C96.3282 10.7422 95.3321 9.94141 93.9844 10.1367Z" fill="#DB0909"/>
<path d="M32.6757 21.1914C31.7577 21.6992 31.4452 22.832 31.953 23.8281C32.4413 24.7461 32.91 24.8242 37.5585 24.8242C41.2304 24.8242 41.953 24.7852 42.4218 24.4922C43.7108 23.75 43.7108 21.9922 42.4218 21.25C41.953 20.957 41.2304 20.918 37.4999 20.918C34.2577 20.9375 33.0272 20.9961 32.6757 21.1914Z" fill="#DB0909"/>
<path d="M47.9884 21.0937C46.7384 21.6211 46.4064 23.2422 47.3634 24.1797C48.5353 25.3711 50.5275 24.5508 50.5275 22.8711C50.5275 21.582 49.1212 20.6055 47.9884 21.0937Z" fill="#DB0909"/>
<path d="M89.1602 25.6836C88.7109 26.0742 88.6133 26.3086 88.6133 27.0312C88.6133 28.6133 89.5312 29.1211 92.4414 29.1211C94.6094 29.1211 95.2344 28.9844 95.8203 28.3984C96.6211 27.5977 96.6016 26.5234 95.8008 25.7031C95.3125 25.2344 95.2344 25.2148 92.5 25.2148C89.8242 25.2148 89.6875 25.2344 89.1602 25.6836Z" fill="#DB0909"/>
<path d="M32.6757 32.1289C31.7577 32.6367 31.4452 33.7695 31.953 34.7656C32.4413 35.7031 32.8514 35.7617 38.3397 35.7617C43.8671 35.7617 44.2772 35.6836 44.746 34.6484C45.1757 33.6914 44.8827 32.7148 43.9843 32.1875C43.5155 31.8945 42.7538 31.8555 38.2811 31.8555C34.3944 31.875 33.0272 31.9336 32.6757 32.1289Z" fill="#DB0909"/>
</svg>
