<svg width="120" height="120" viewBox="0 0 120 120" fill="none" xmlns="http://www.w3.org/2000/svg">
<path d="M100.955 105.306C60.7027 114.823 36.2065 132.97 11.506 105.306C-13.1946 77.641 8.14684 54.2704 17.5583 17.9905C26.9698 -18.2894 95.9876 7.175 100.955 34.1149C105.921 61.0548 141.206 95.7884 100.955 105.306Z" fill="#EAEAEA"/>
<path d="M48.6776 10.193C42.9346 10.5837 37.0353 12.5762 32.0736 15.7993C29.71 17.3229 27.6394 19.0615 27.5026 19.628C27.2292 20.6828 28.1668 21.6986 29.1826 21.4446C29.4365 21.3665 30.1202 20.9172 30.7062 20.4093C33.2652 18.2606 37.2697 15.9751 40.5709 14.803C42.7783 14.0217 46.314 13.2989 48.8534 13.1426C57.4875 12.5566 65.3988 15.1547 72.0599 20.7414C73.7203 22.1283 76.4941 25.117 76.3574 25.371C76.3183 25.4491 75.0095 27.7541 73.4859 30.4889C70.1651 36.4273 70.1455 36.4468 70.3995 37.1696C70.7706 38.2244 71.845 38.4197 72.6654 37.5602C72.9584 37.2672 74.3454 34.9817 75.7323 32.4814C77.9787 28.4769 78.2913 27.9885 78.5257 28.2816C79.1898 29.1801 80.9479 32.9502 81.5534 34.7864C82.8818 38.6737 83.1357 40.4122 83.1357 45.1395C83.1162 47.4445 83.038 49.5932 82.9208 49.9253L82.745 50.5113L78.1545 50.609C73.0366 50.7262 72.8998 50.7458 71.6692 52.1717C71.298 52.621 70.8878 53.3633 70.7706 53.8321C70.6339 54.3791 70.5558 57.5045 70.5558 62.7006V70.7096L68.8954 71.8035C65.6136 73.9913 61.4529 75.7298 57.7609 76.4721C55.9052 76.8433 52.9555 77.1754 52.7407 77.0582C52.643 76.9996 52.5844 69.6352 52.5844 60.6691V44.3776L52.0765 43.987C51.5491 43.5767 51.4514 43.5767 35.3358 43.5767H19.1225L19.2593 42.1508C19.8453 36.0757 21.8378 30.9773 25.725 25.5273C26.5259 24.4333 26.565 24.1013 25.9985 23.3785C25.432 22.6557 24.4162 22.6753 23.7326 23.398C22.7754 24.4529 20.7438 27.6955 19.689 29.9029C17.6379 34.1613 16.5245 38.537 16.3096 43.0493C16.1924 45.4716 16.2119 45.5497 16.6417 46.0185L17.091 46.5069H33.3824H49.6543L49.6934 62.8374L49.752 79.1678L50.338 79.6562C50.9045 80.1445 50.9435 80.1445 53.0728 80.0273C58.9134 79.6562 65.1057 77.7419 69.4423 74.968L70.5558 74.2453V91.5329V108.801L71.0246 109.348L71.4934 109.895H79.9321H88.3708L88.742 109.426C89.0936 108.996 89.1131 108.586 89.1131 102.863V96.729L88.6052 96.3383C87.902 95.7914 87.4332 95.8304 86.7495 96.4946L86.183 97.0611V102.062V107.063L79.893 107.023L73.5835 106.965L73.5249 80.7696L73.4859 54.5744L73.8961 54.047L74.2868 53.5391H79.8149C84.2687 53.5391 85.4017 53.5977 85.7142 53.8126C86.0854 54.0861 86.0854 54.5744 86.183 73.1709L86.2807 92.2557L86.7495 92.6268C87.3355 93.1152 88.2341 93.0956 88.7225 92.6073C89.1131 92.2166 89.1131 91.9627 89.1131 73.0341C89.1131 54.0079 89.1131 53.8517 88.7029 53.0117C88.2536 52.0741 87.3941 51.2732 86.3979 50.863C85.8314 50.6286 85.7728 50.5113 85.8705 50.0621C86.2026 48.6751 86.2221 43.0298 85.9095 40.7248C85.2063 35.4115 83.3115 30.1959 80.5963 26.1133L79.893 25.0584L81.1042 22.8902L82.3153 20.7219H92.5121H102.728L103.139 20.2726C103.666 19.7061 103.686 18.9638 103.197 18.3582L102.826 17.8894L92.1214 17.8308C84.7375 17.7918 81.2409 17.8504 80.8893 17.9871C80.5377 18.1434 80.0689 18.7489 79.4438 19.9014C77.8029 22.8316 78.1545 22.7143 76.4746 20.9172C74.8337 19.1591 72.0794 16.8932 70.0674 15.5844C66.7075 13.4357 62.0584 11.5604 58.1516 10.779C56.4131 10.4274 55.495 10.3297 51.9007 10.0953C51.3733 10.0758 49.9082 10.1149 48.6776 10.193Z" fill="#DB0909"/>
<path d="M87.2379 12.1269C86.7301 12.3222 86.1831 13.0645 86.1831 13.5138C86.1831 13.6896 86.3589 14.0607 86.5933 14.3537L86.984 14.8616H94.8758C102.748 14.8616 102.768 14.8616 103.178 14.4319C103.901 13.6505 103.608 12.5175 102.572 12.1464C101.81 11.8925 87.863 11.8729 87.2379 12.1269Z" fill="#DB0909"/>
<path d="M93.9966 43.3814C93.4105 43.9674 93.4691 45.0027 94.1138 45.5106C94.6216 45.9013 94.8561 45.9208 100.384 45.9208H106.127L106.596 45.4325C106.87 45.1785 107.084 44.7293 107.084 44.4558C107.084 44.1823 106.87 43.733 106.596 43.4791L106.127 42.9907H100.247C94.6412 42.9907 94.3677 43.0103 93.9966 43.3814Z" fill="#DB0909"/>
<path d="M94.1333 49.6323C93.4691 50.1597 93.4105 51.195 93.9966 51.781C94.3677 52.1522 94.6412 52.1717 100.326 52.1717H106.284L106.674 51.6638C107.182 51.0192 107.202 50.3941 106.713 49.8081L106.342 49.3393L100.501 49.2806C94.7975 49.222 94.6412 49.2416 94.1333 49.6323Z" fill="#DB0909"/>
<path d="M10.4884 50.316C10.0781 50.7067 10 50.9606 10 52.0155C10 55.9223 11.1134 61.0012 12.8324 65.0252C16.4462 73.4444 23.5371 80.3985 31.9368 83.7193C32.6595 84.0123 33.2456 84.3249 33.2065 84.403C33.1674 84.4811 32.2689 86.4345 31.1945 88.7591L29.2411 92.998H21.2907C15.8798 92.998 13.1841 93.0761 12.8715 93.2129C12.3832 93.4277 11.9534 94.131 11.9534 94.6779C11.9534 94.8342 12.1683 95.1858 12.4418 95.4397L12.9106 95.9281H21.7791C29.9638 95.9281 30.6866 95.9086 31.0577 95.596C31.2726 95.4007 32.5033 92.9785 33.773 90.2046C35.9803 85.3406 36.0975 85.1648 36.5664 85.2625C38.7542 85.7508 41.7234 86.1415 43.4814 86.2001C45.5716 86.2587 45.5911 86.2587 46.0599 85.7118L46.5287 85.1648L46.4897 67.8576L46.4311 50.57L45.9622 50.1988C45.5325 49.8472 44.9465 49.8277 28.2253 49.8277H10.9572L10.4884 50.316ZM43.5986 67.9944V83.2309H42.7782C41.782 83.2309 38.4026 82.7426 37.797 82.5082C37.3868 82.3519 37.4063 82.3128 38.3244 80.3008C38.8518 79.1679 39.2816 78.113 39.3011 77.9567C39.3011 77.5075 38.7346 76.7847 38.2072 76.5894C37.2305 76.2182 36.8203 76.6284 35.6483 79.1288C35.0427 80.418 34.4567 81.4729 34.359 81.4729C34.2613 81.4729 33.3432 81.1213 32.3275 80.6915C27.9714 78.8748 23.7129 75.7299 20.6265 72.0575C16.1337 66.6856 13.8482 61.2551 13.0278 53.8712L12.9106 52.7578H28.2448H43.5986V67.9944Z" fill="#DB0909"/>
<path d="M93.9379 56.0394C93.4691 56.5669 93.5081 57.6998 94.016 58.1491C94.3872 58.5007 94.8365 58.5203 99.7395 58.5789C102.65 58.6179 105.326 58.5789 105.678 58.5203C107.006 58.2663 107.534 56.9575 106.635 56.1176C106.186 55.6878 106.069 55.6878 100.208 55.6878C94.6802 55.6878 94.2309 55.7074 93.9379 56.0394Z" fill="#DB0909"/>
<path d="M94.0746 73.1513C92.9612 73.6788 91.9258 74.7922 91.6524 75.808C91.3984 76.7456 91.3984 108.723 91.6524 109.211C91.75 109.407 92.1212 109.661 92.4533 109.778C93.2932 110.071 108.198 110.071 108.96 109.797C110.053 109.368 109.995 110.207 109.995 92.6073C110.014 76.6089 109.995 76.2768 109.604 75.4173C109.116 74.3234 108.569 73.7374 107.573 73.2099C106.83 72.7997 106.498 72.7802 100.931 72.7216C95.1099 72.6825 95.0708 72.6825 94.0746 73.1513ZM106.596 76.101L107.084 76.5698V91.8259V107.062H100.736H94.3871V91.8259V76.5698L94.8755 76.101L95.3443 75.6126H100.736H106.127L106.596 76.101Z" fill="#DB0909"/>
<path d="M12.4025 87.255C12.0118 87.6456 11.9337 87.8605 12.0313 88.3684C12.2853 89.6772 12.2657 89.6772 19.4152 89.6772C26.8382 89.6772 26.9749 89.6577 26.9944 88.1535C26.9944 87.7824 26.8382 87.3722 26.6037 87.1378C26.2326 86.7666 25.9591 86.7471 19.5715 86.7471H12.9104L12.4025 87.255Z" fill="#DB0909"/>
<path d="M52.2523 89.306C51.3147 89.7553 50.5138 90.6148 50.1036 91.572C49.9082 92.0799 49.8496 94.0137 49.8496 100.675C49.8496 109.035 49.8496 109.153 50.2598 109.524C50.6505 109.875 51.0803 109.895 59.0697 109.895H67.4694L67.9382 109.328L68.4265 108.782L68.3679 100.44C68.3093 92.3534 68.2898 92.0994 67.8796 91.3376C67.3521 90.3413 66.5512 89.5795 65.6331 89.2084C65.0276 88.9544 63.8946 88.8958 58.9916 88.8958C53.3657 88.8958 53.0337 88.9154 52.2523 89.306ZM65.0081 92.2361C65.3597 92.6268 65.3792 93.037 65.3792 99.8154V106.965L59.0892 107.023L52.7797 107.063V99.8349C52.7797 92.8612 52.7993 92.5878 53.1704 92.2166C53.5416 91.8455 53.815 91.8259 59.0892 91.8259C64.4806 91.8259 64.6369 91.8455 65.0081 92.2361Z" fill="#DB0909"/>
</svg>
