<svg width="120" height="120" viewBox="0 0 120 120" fill="none" xmlns="http://www.w3.org/2000/svg">
<path d="M100.955 105.306C60.7027 114.823 36.2065 132.97 11.506 105.306C-13.1946 77.641 8.14684 54.2704 17.5583 17.9905C26.9698 -18.2894 95.9876 7.175 100.955 34.1149C105.921 61.0548 141.206 95.7884 100.955 105.306Z" fill="#EAEAEA"/>
<path d="M55.1669 10.0978C50.7661 10.5477 45.6612 11.7603 41.6711 13.3446C38.3266 14.655 32.8109 17.628 31.2853 18.9385C30.5812 19.5448 30.5812 20.5619 31.2853 21.1682C31.5787 21.4029 31.9699 21.6181 32.1655 21.6181C32.3611 21.6181 33.1825 21.1878 33.9845 20.6597C39.95 16.7674 46.4827 14.303 53.6021 13.2859C56.4969 12.8752 62.9514 12.8165 65.6309 13.1881C76.584 14.6746 85.6594 19.1341 93.2287 26.6838C100.778 34.2532 105.238 43.3677 106.724 54.2816C107.057 56.6678 107.057 63.2396 106.724 65.6258C105.238 76.5593 100.798 85.6151 93.2092 93.204C82.0801 104.353 66.7849 109.086 51.2355 106.211C32.6544 102.768 17.77 88.236 13.9169 69.7528C13.6626 68.501 13.3301 66.6429 13.1932 65.6258C12.8216 62.9267 12.8803 56.4722 13.291 53.597C14.7579 43.3481 19.0805 34.5466 26.3564 26.9772C28.4688 24.7671 28.6448 24.3172 27.7843 23.4762C27.53 23.2023 27.0997 22.9872 26.8454 22.9872C26.2391 22.9872 24.9873 24.0238 23.1879 25.9797C15.9902 33.9011 11.785 42.8983 10.2398 53.7926C9.90731 56.1201 9.92687 63.8068 10.2594 66.2126C12.3131 81.1166 20.254 93.7517 32.6936 101.927C44.5463 109.751 59.6263 112.039 73.5523 108.128C91.7227 103.042 105.746 87.7275 109.13 69.2638C112.181 52.7364 107.116 36.3656 95.3411 24.5715C87.5566 16.787 78.1292 12.0733 67.0001 10.3716C64.5552 10 57.6704 9.82397 55.1669 10.0978Z" fill="#DB0909"/>
<path d="M57.025 20.8357C38.7178 22.2244 23.853 36.1308 21.1147 54.3794C20.704 57.2546 20.704 62.6529 21.1147 65.528C23.6965 82.7986 37.114 96.2161 54.3846 98.7979C57.2598 99.2282 62.6776 99.2087 65.5332 98.7784C69.934 98.1133 73.5524 96.9789 77.562 94.9643C89.004 89.214 96.8863 78.3001 98.8031 65.528C99.2138 62.6529 99.2138 57.2546 98.8031 54.3794C95.7323 33.9402 77.5033 19.2905 57.025 20.8357ZM65.0247 24.0629C78.1292 25.921 89.0627 34.703 93.9134 47.2403C96.9059 55.0053 96.8863 64.9413 93.8742 72.7453C90.6666 81.0774 84.5055 88.0013 76.7601 92.0109C71.1858 94.9057 66.2178 96.1183 59.9785 96.1379C54.1694 96.1379 49.5731 95.1013 44.3704 92.6173C33.3586 87.3559 25.7893 77.0483 24.0681 65.0195C23.6965 62.4181 23.6965 57.4893 24.0681 54.8879C26.337 38.9669 38.7374 26.5274 54.7758 24.0825C57.162 23.7109 62.5016 23.7109 65.0247 24.0629Z" fill="#DB0909"/>
<path d="M59.0396 25.745C56.4383 26.234 54.9909 28.053 54.7171 31.1237L54.5802 32.7863L53.4849 33.2361C50.6684 34.3705 47.9497 36.6394 46.1698 39.2994C43.7053 43.0156 42.8448 47.2795 43.6271 51.8367C44.5464 57.059 47.578 60.7557 52.9763 63.181L54.678 63.9438V69.1856C54.678 72.0608 54.6388 74.4274 54.5802 74.4274C54.3259 74.4274 53.876 72.8431 53.7 71.3762C53.5044 69.5768 53.1915 68.7944 52.2526 67.8165C51.1965 66.682 50.2967 66.3104 48.5169 66.3104C47.1673 66.3104 46.8348 66.3887 46.0329 66.8385C43.6076 68.2859 42.9034 70.5156 43.6467 74.447C44.6637 79.8453 48.556 84.6763 53.4849 86.6714L54.5802 87.1212L54.7171 88.7837C55.0105 92.2066 56.9468 94.2211 59.9589 94.2211C62.971 94.2211 64.9464 92.1283 65.1811 88.6859L65.2985 87.1799L66.7459 86.554C68.8974 85.5956 69.5037 84.5394 68.4671 83.5223C67.8803 82.916 67.4304 82.916 66.2373 83.5028C65.7288 83.7766 64.7117 84.1678 63.988 84.4025C62.2864 84.9697 62.1104 85.2827 62.1104 87.9427V89.9181L61.4454 90.5832C60.8977 91.1308 60.6239 91.2482 59.9589 91.2482C59.2939 91.2482 59.0201 91.1308 58.4724 90.5832L57.8074 89.9181V87.9427C57.8074 85.2827 57.6314 84.9697 55.9102 84.4025C54.1303 83.8353 53.2501 83.3659 51.6267 82.1337C48.6147 79.8453 46.7566 76.4224 46.3458 72.4519C46.1893 70.8677 46.561 69.9093 47.5389 69.4594C49.2405 68.6379 50.7662 69.7137 50.7662 71.7283C50.7662 72.7649 51.1769 74.3296 51.7637 75.5227C52.3504 76.7549 54.3063 78.8086 55.3625 79.3172C56.1253 79.6888 56.3014 79.7083 56.7708 79.4736C57.7878 78.9847 57.8074 78.8477 57.8074 70.5938C57.8074 65.6259 57.7292 62.7311 57.5922 62.3399C57.4162 61.8314 57.162 61.6554 55.9884 61.2055C50.5901 59.1714 47.891 56.5896 46.737 52.3062C46.2676 50.5654 46.2676 46.8101 46.737 45.1084C48.0083 40.4925 51.3725 36.9523 55.9102 35.505C57.6314 34.9378 57.8074 34.6248 57.8074 31.9648V29.9893L58.4724 29.3243C59.0201 28.7767 59.2939 28.6593 59.9589 28.6593C60.6239 28.6593 60.8977 28.7767 61.4454 29.3243L62.1104 29.9893V31.9648C62.1104 34.6248 62.2864 34.9378 63.988 35.505C69.4059 37.2457 72.9852 41.7247 73.572 47.4555C73.7284 49.0398 73.3568 49.9982 72.3789 50.4481C71.5769 50.8392 71.0489 50.8392 70.3252 50.4676C69.621 50.096 69.1516 49.255 69.1516 48.3357C69.1516 47.2795 68.7604 45.6757 68.2324 44.5412C67.6065 43.2112 65.6701 41.138 64.5553 40.5903C63.7925 40.2187 63.6164 40.1991 63.147 40.4338C62.1299 40.9228 62.1104 41.0597 62.1104 49.3919C62.1104 55.1813 62.1691 57.235 62.3646 57.6067C62.6385 58.1543 62.971 58.3499 65.142 59.1714C69.8558 61.0099 72.5745 64.1589 73.3764 68.7553C74.0414 72.6084 73.2981 75.9335 70.9706 79.4345C70.423 80.2756 70.3056 80.5689 70.423 81.0579C70.5794 81.762 71.1858 82.251 71.8703 82.251C72.9656 82.251 75.1954 78.7108 76.0364 75.6596C76.6427 73.469 76.6427 68.9313 76.0364 66.7407C74.7846 62.1639 71.3814 58.5064 66.5503 56.5114L65.2398 55.9637V50.7219C65.2398 47.8467 65.2789 45.4801 65.3376 45.4801C65.5919 45.4801 66.0417 47.0643 66.2178 48.5313C66.4134 50.3307 66.8437 51.3478 67.8216 52.2475C68.956 53.3232 69.6797 53.5971 71.4009 53.5971C72.7505 53.5971 73.083 53.5188 73.8849 53.069C75.6061 52.0323 76.5841 50.3307 76.5841 48.3161C76.5841 42.0572 72.3593 35.7397 66.5503 33.2557L65.2985 32.7276L65.1811 31.2215C65.0051 28.5615 63.8511 26.7621 61.8952 26.058C60.7217 25.6472 59.998 25.569 59.0396 25.745Z" fill="#DB0909"/>
<path d="M55.3235 40.6099C54.2869 41.1184 52.331 43.1917 51.7638 44.3848C50.8054 46.3602 50.5316 48.6291 50.9814 50.8001C51.4704 53.0885 52.7809 54.7315 55.0106 55.8855C56.1841 56.4918 56.2624 56.5113 56.7709 56.2375C57.788 55.6703 57.8075 55.5138 57.7684 48.0814C57.7097 41.4705 57.6902 41.1771 57.3185 40.8055C56.6927 40.2187 56.2037 40.16 55.3235 40.6099ZM54.6781 48.7464L54.6585 52.0323L54.2478 51.25C53.7001 50.2329 53.6415 47.3577 54.15 46.2037C54.3456 45.8126 54.5216 45.4801 54.5803 45.4801C54.639 45.4801 54.6781 46.947 54.6781 48.7464Z" fill="#DB0909"/>
<path d="M62.834 63.709C62.1886 64.2176 62.1104 64.9999 62.1104 71.65C62.1104 78.7695 62.1495 79.0042 63.147 79.4736C63.6164 79.7083 63.7924 79.6887 64.5552 79.3171C65.6701 78.7695 67.6064 76.6962 68.2323 75.3662C69.445 72.7844 69.445 69.5181 68.2714 67.1905C67.45 65.6063 64.8095 63.4743 63.6555 63.4743C63.3817 63.4743 63.0101 63.5917 62.834 63.709ZM66.1004 71.2001C66.1004 72.4128 65.983 73.1952 65.7679 73.6841C65.5723 74.0949 65.3963 74.4274 65.3376 74.4274C65.2789 74.4274 65.2398 72.9604 65.2398 71.1415L65.2594 67.8751L65.6897 68.6575C66.0417 69.3029 66.1004 69.7528 66.1004 71.2001Z" fill="#DB0909"/>
</svg>
