<svg width="120" height="120" viewBox="0 0 120 120" fill="none" xmlns="http://www.w3.org/2000/svg">
<path d="M19.0455 14.6944C59.2973 5.17718 83.7935 -12.9702 108.494 14.6944C133.195 42.359 111.853 65.7296 102.442 102.01C93.0302 138.289 24.0124 112.825 19.0455 85.8851C14.0786 58.9452 -21.2064 24.2116 19.0455 14.6944Z" fill="#EAEAEA"/>
<path d="M39.2606 10.5664C38.7137 11.1328 38.6942 11.1914 38.6942 13.1055V15.0781H35.5887C32.5809 15.0781 32.4637 15.0977 31.4481 15.625C30.2567 16.25 29.241 17.4414 28.9285 18.5938C28.7918 19.1016 28.7528 27.2656 28.7723 43.7305L28.8309 68.1055L29.2606 68.9062C29.7489 69.8438 30.8426 70.8594 31.8387 71.3086C32.4832 71.6016 35.1004 71.6211 60.3739 71.6211C85.6473 71.6211 88.2645 71.6016 88.909 71.3086C89.9051 70.8594 90.9989 69.8438 91.4871 68.9062L91.9168 68.1055L91.9754 43.7305C91.995 27.2656 91.9559 19.1016 91.8192 18.5938C91.5067 17.4414 90.491 16.25 89.2996 15.625C88.284 15.0977 88.1668 15.0781 85.159 15.0781H82.0535V13.1055C82.0535 11.1914 82.034 11.1328 81.4871 10.5664C80.8817 9.96094 80.4129 9.86328 79.6512 10.2148C78.9285 10.5469 78.7332 11.1914 78.7332 13.2227V15.0781H75.4129H72.0926V13.2617C72.0926 12.2266 71.9754 11.2695 71.8387 10.9766C71.3309 9.98047 70.2176 9.76562 69.2606 10.4688C68.9285 10.7031 68.8504 11.0352 68.7723 12.8711L68.6746 14.9805H65.3543H62.034L61.9364 12.8711C61.8387 10.9375 61.7996 10.7031 61.37 10.3711C61.116 10.1758 60.6668 10 60.3739 10C60.0809 10 59.6317 10.1758 59.3778 10.3711C58.9481 10.7031 58.909 10.9375 58.8114 12.8711L58.7137 14.9805H55.3934H52.0731L51.9754 12.8711C51.8973 11.0352 51.8192 10.7031 51.4871 10.4688C50.5301 9.76562 49.4168 9.98047 48.909 10.9766C48.7723 11.2695 48.6551 12.2266 48.6551 13.2617V15.0781H45.3348H42.0145V13.2227C42.0145 11.1914 41.8192 10.5469 41.0965 10.2148C40.3348 9.86328 39.866 9.96094 39.2606 10.5664ZM38.6942 20.1758C38.6942 22.5195 39.1043 23.2617 40.4129 23.2812C40.8426 23.2812 41.2137 23.125 41.5262 22.793C41.9754 22.3633 42.0145 22.1875 42.0145 20.3516V18.3984H45.3153H48.616L48.6942 20.332C48.7528 22.0703 48.8114 22.3242 49.2215 22.7734C49.866 23.457 50.8426 23.457 51.4871 22.793C51.9364 22.3633 51.9754 22.1875 51.9754 20.3516V18.3984H55.3934H58.8114V20.4297C58.8114 22.4023 58.8309 22.4805 59.3192 22.8711C59.6121 23.1055 60.0809 23.2812 60.3739 23.2812C60.6668 23.2812 61.1356 23.1055 61.4285 22.8711C61.9168 22.4805 61.9364 22.4023 61.9364 20.4297V18.3984H65.3543H68.7723V20.3516C68.7723 22.1875 68.8114 22.3633 69.2606 22.793C69.866 23.418 70.7254 23.418 71.4481 22.8125C71.9754 22.3633 71.995 22.2461 72.0535 20.3711L72.1317 18.3984H75.4325H78.7332V20.3516C78.7332 22.1875 78.7723 22.3633 79.2215 22.793C79.534 23.125 79.9051 23.2812 80.3348 23.2812C81.6434 23.2617 82.0535 22.5195 82.0535 20.1758V18.3984H84.8856C87.659 18.3984 87.7567 18.418 88.2059 18.8867L88.6942 19.3555V43.2812V67.207L88.2254 67.7539L87.7567 68.3008H60.3739H32.991L32.5223 67.7539L32.0535 67.207V49.4336V31.6797H58.1473H84.241L84.8075 31.1133C85.6278 30.2734 85.4715 29.043 84.4559 28.5742C84.1239 28.418 76.6434 28.3594 58.0301 28.3594H32.0535V23.8672V19.3555L32.5418 18.8867C32.991 18.418 33.0887 18.3984 35.8621 18.3984H38.6942V20.1758Z" fill="#DB0909"/>
<path d="M52.171 38.6133C48.5773 39.7265 47.6007 44.4336 50.4132 46.9726C53.6554 49.8828 58.5968 47.6758 58.6163 43.2812C58.6163 41.0937 57.2491 39.2187 55.2179 38.6133C54.046 38.2617 53.3234 38.2617 52.171 38.6133ZM54.964 42.2461C55.4913 42.8906 55.4132 44.0625 54.7882 44.5508C54.007 45.1758 53.089 45.0976 52.464 44.3359C51.8195 43.5742 51.8976 42.7539 52.6984 42.0508C53.1085 41.6992 53.3624 41.6211 53.9093 41.7187C54.2999 41.7773 54.7687 42.0117 54.964 42.2461Z" fill="#DB0909"/>
<path d="M65.4526 38.6133C63.48 39.2383 62.1323 41.1523 62.1323 43.2812C62.1519 47.9101 67.6597 50.0195 70.7456 46.582C73.1284 43.9453 71.8979 39.6289 68.4995 38.6133C67.3276 38.2617 66.605 38.2617 65.4526 38.6133ZM68.0698 42.0703C68.8511 42.7539 68.9097 43.5937 68.2847 44.3359C67.6597 45.0976 66.7417 45.1758 65.9604 44.5508C65.1206 43.8867 65.3159 42.2265 66.2925 41.8359C67.0151 41.5429 67.562 41.6211 68.0698 42.0703Z" fill="#DB0909"/>
<path d="M78.8704 38.5938C75.5305 39.8438 74.3587 43.6524 76.468 46.4258C77.5227 47.793 80.0423 48.6914 81.1555 48.086C81.6438 47.8321 82.054 47.1289 82.054 46.543C82.054 45.8789 81.2923 45.1563 80.4329 45.0196C78.9094 44.7852 78.1868 43.2813 79.1243 42.2657C80.2571 41.0547 81.761 41.7578 82.1516 43.6328C82.4837 45.3321 84.8665 45.3711 85.2962 43.6914C85.6868 42.1289 84.3587 39.8047 82.5618 38.8672C81.5657 38.3594 79.8469 38.2227 78.8704 38.5938Z" fill="#DB0909"/>
<path d="M38.7727 53.6133C36.5852 54.4336 35.1789 56.6602 35.4329 58.8672C35.6282 60.5078 36.6829 61.9727 38.2063 62.793C39.261 63.3594 41.4094 63.3789 42.5032 62.832C45.5696 61.3086 46.2727 57.2266 43.8704 54.8242C42.5813 53.5352 40.3743 53.0078 38.7727 53.6133ZM41.5266 57.168C42.5422 58.1641 41.8196 60 40.4133 60C39.7297 60 38.6946 59.0625 38.6946 58.4375C38.6946 56.9141 40.4719 56.1133 41.5266 57.168Z" fill="#DB0909"/>
<path d="M55.0225 55.5078L52.835 57.6562L51.5654 56.3672C50.4131 55.2148 50.1787 55.0781 49.5146 55.0781C48.5967 55.0781 47.874 55.8008 47.874 56.7383C47.874 57.2461 48.1865 57.6562 49.9834 59.4531C51.9561 61.4258 52.1514 61.5625 52.874 61.5625C53.5967 61.5625 53.7725 61.4258 56.5654 58.6328C59.2607 55.9375 59.4756 55.6641 59.4756 55C59.4756 54.1211 58.6943 53.3594 57.7959 53.3594C57.2881 53.3594 56.8389 53.7109 55.0225 55.5078Z" fill="#DB0909"/>
<path d="M65.3745 53.6328C62.6206 54.6679 61.3316 57.9101 62.6402 60.5469C64.5347 64.3359 69.9839 64.1406 71.6636 60.2148C72.0347 59.3164 72.0347 57.3633 71.6636 56.4648C71.2339 55.4883 70.2183 54.375 69.2808 53.9062C68.2652 53.3984 66.3902 53.2617 65.3745 53.6328ZM68.1089 57.1484C69.2417 58.1054 68.4995 60 66.9956 60C66.1558 60 65.4527 59.2383 65.4527 58.3398C65.4527 56.8945 67.0152 56.1914 68.1089 57.1484Z" fill="#DB0909"/>
<path d="M21.761 30.918C19.4954 32.0117 17.7571 34.2383 17.2297 36.7188C16.9368 38.0859 16.9172 83.2812 17.2102 84.8047C17.8157 87.9492 20.218 90.5469 23.343 91.3672C24.1243 91.582 26.5657 91.6406 34.8469 91.6406C40.6086 91.6406 45.3352 91.6992 45.3352 91.7773C45.3352 91.875 44.0266 93.7305 42.4446 95.9375L39.5735 99.9414L34.0071 100.039C27.7571 100.156 27.3079 100.234 25.3157 101.758C23.4993 103.145 22.093 105.84 22.093 107.949C22.093 110 22.093 110 29.7102 110H35.9797L36.4485 109.512C37.054 108.926 37.093 107.891 36.5657 107.246C36.1946 106.777 36.175 106.777 30.8821 106.68L25.5696 106.582L26.2336 105.605C26.6047 105.059 27.2883 104.395 27.8352 104.043L28.7922 103.457H60.3743H91.9563L92.9133 104.043C93.4602 104.395 94.1438 105.059 94.5149 105.605L95.179 106.582L68.1868 106.68L41.1946 106.777L40.8235 107.246C40.3547 107.832 40.3547 108.848 40.8235 109.434L41.1946 109.902L69.2415 109.961C99.925 110 98.2844 110.059 98.5774 108.906C98.7727 108.145 98.5383 106.523 98.0891 105.312C97.2297 103.027 95.218 101.152 92.8352 100.43C91.7415 100.098 91.0188 100.039 87.2493 100.039H82.9133L79.9446 95.8789L76.9758 91.7383L87.0735 91.6406C95.7258 91.5625 97.3079 91.5039 98.011 91.2305C100.941 90.0977 102.991 87.7344 103.538 84.8047C103.831 83.2812 103.812 38.0859 103.519 36.7188C102.991 34.2188 101.214 31.9336 99.0071 30.8984C97.054 29.9805 95.7649 30.2148 95.4329 31.543C95.1985 32.4609 95.6282 32.9883 97.1907 33.7305C98.8508 34.5312 99.8274 35.625 100.198 37.0898C100.335 37.6367 100.413 44.0625 100.413 56.4648V75.0391H62.6399H24.8469L24.3196 75.5078C23.6165 76.0938 23.5579 77.1875 24.2024 77.832L24.6516 78.2617L62.5422 78.3203L100.452 78.3594L100.374 81.543C100.316 84.3555 100.257 84.8047 99.886 85.5078C99.3196 86.5625 97.9133 87.793 96.9368 88.0859C96.3508 88.2617 87.2297 88.3203 60.2571 88.3203C24.554 88.3203 24.3391 88.3008 23.4602 87.9102C22.386 87.4219 21.4094 86.5234 20.8625 85.4883L20.4329 84.707V60.8789C20.4329 37.5781 20.4329 37.0312 20.8235 36.2695C21.3704 35.1562 22.4836 34.1211 23.5774 33.7305C25.3352 33.0859 25.9407 31.7969 24.925 30.8008C24.2805 30.1367 23.2844 30.1758 21.761 30.918ZM75.843 95.8203C77.4446 98.0664 78.7141 99.9219 78.675 99.9609C78.636 100 70.7258 100.02 61.1165 100L43.636 99.9414L46.5852 95.8008L49.5344 91.6406L61.2336 91.6992L72.9524 91.7383L75.843 95.8203Z" fill="#DB0909"/>
<path d="M81.0386 82.0703C80.4331 82.539 80.2769 83.2226 80.6089 83.9844C80.9214 84.7461 81.5269 85.0586 82.3667 84.9219C83.148 84.7656 83.6167 84.1601 83.6167 83.2812C83.6167 81.9336 82.0933 81.2305 81.0386 82.0703Z" fill="#DB0909"/>
<path d="M87.62 82.168C86.6825 83.0859 87.1317 84.668 88.3817 84.9219C89.2215 85.0586 89.827 84.7461 90.1395 83.9844C90.4715 83.2226 90.3153 82.539 89.7098 82.0703C89.0457 81.543 88.2059 81.582 87.62 82.168Z" fill="#DB0909"/>
</svg>
