<svg width="120" height="120" viewBox="0 0 120 120" fill="none" xmlns="http://www.w3.org/2000/svg">
<path d="M14.6944 100.955C5.17718 60.7027 -12.9702 36.2065 14.6944 11.506C42.359 -13.1946 65.7296 8.14684 102.01 17.5583C138.289 26.9698 112.825 95.9876 85.8851 100.955C58.9452 105.921 24.2116 141.206 14.6944 100.955Z" fill="#EAEAEA"/>
<path d="M48.7439 9.74523C43.1406 10.9534 38.5997 15.2235 37.1415 20.7018C36.5583 22.8473 36.6625 26.8051 37.329 28.8672C38.1414 31.346 39.2454 33.1166 41.1201 34.9913C43.8072 37.6784 46.9109 39.1156 50.577 39.3656C59.638 40.0113 67.1785 32.5125 66.5745 23.4514C66.4495 21.2226 65.6788 18.7022 64.5539 16.7858C63.5333 15.0777 60.8045 12.3906 59.0965 11.4325C56.0136 9.7244 51.9517 9.07867 48.7439 9.74523ZM53.8681 13.0156C55.8678 13.3697 58.3049 14.6611 59.8255 16.1817C62.1585 18.5147 63.2208 21.0768 63.2208 24.4513C63.2208 27.7841 62.1585 30.3878 59.8672 32.6583C57.5967 34.9496 54.9929 36.012 51.6601 36.012C48.2856 36.012 45.7235 34.9496 43.3906 32.6167C38.4538 27.6799 39.0787 19.1604 44.7029 15.161C47.5983 13.0989 50.5145 12.4115 53.8681 13.0156Z" fill="#DB0909"/>
<path d="M47.1819 18.3064L46.6611 18.8063V24.4513V30.0962L47.1819 30.5961C47.4735 30.9086 47.9109 31.1169 48.265 31.1169C48.5775 31.0961 51.2854 29.8671 54.2641 28.3465C58.8676 26.0135 59.7008 25.5136 59.8674 25.0137C60.3257 23.7014 60.1174 23.5139 54.2641 20.556C51.2854 19.0354 48.5775 17.8065 48.265 17.7856C47.9109 17.7856 47.4735 17.9939 47.1819 18.3064ZM54.3683 24.4513C54.3683 24.5137 53.3892 25.0553 52.1811 25.6594L49.9939 26.7426V24.4513V22.1599L52.1811 23.2431C53.3892 23.8472 54.3683 24.3888 54.3683 24.4513Z" fill="#DB0909"/>
<path d="M83.3221 11.3907C82.3014 11.724 80.5517 13.5154 80.2392 14.5777C80.0934 15.0568 79.9893 16.4941 79.9893 17.7647C79.9893 19.9519 80.0101 20.1185 80.51 20.5976C80.8225 20.9309 81.2599 21.1184 81.6557 21.1184C82.0514 21.1184 82.4889 20.9309 82.8013 20.5976C83.3012 20.1185 83.3221 19.9519 83.3221 17.7856C83.3221 15.6193 83.3429 15.4526 83.8428 14.9735L84.3427 14.4528H94.9869H105.631L106.131 14.9735L106.652 15.4734V26.1176V36.7618L106.131 37.2617L105.631 37.7825H94.9869H84.3427L83.8428 37.2617L83.3221 36.7618V31.1168V25.4719L82.8013 24.972C82.4889 24.6387 82.0514 24.4512 81.6557 24.4512C81.2599 24.4512 80.8225 24.6387 80.51 24.972L79.9893 25.4719V31.1377C79.9893 34.9704 80.0726 37.0742 80.2392 37.6575C80.5725 38.8031 82.3014 40.532 83.4471 40.8653C84.072 41.0528 87.2173 41.1153 95.0286 41.1153C107.318 41.1153 107.068 41.1569 108.589 39.4489C109.089 38.9073 109.61 38.0741 109.735 37.6158C110.089 36.4493 110.089 15.7859 109.735 14.6194C109.61 14.1611 109.089 13.3279 108.589 12.7864C107.068 11.0783 107.339 11.12 94.9036 11.1408C87.6339 11.1616 83.8012 11.2449 83.3221 11.3907Z" fill="#DB0909"/>
<path d="M94.9869 18.0564C93.9662 18.3897 92.2165 20.1811 91.9041 21.2434C91.7583 21.7225 91.6541 22.6391 91.6541 23.2848V24.4513H90.5084C89.1128 24.4513 88.3213 25.0553 88.3213 26.1177C88.3213 27.18 89.1128 27.7841 90.5084 27.7841H91.6541V30.5961C91.6541 33.3249 91.6749 33.4499 92.1749 33.929C92.4873 34.2622 92.9247 34.4497 93.3205 34.4497C93.7163 34.4497 94.1537 34.2622 94.4662 33.929C94.9661 33.4499 94.9869 33.3249 94.9869 30.5961V27.7841H96.1326C97.5282 27.7841 98.3197 27.18 98.3197 26.1177C98.3197 25.0553 97.5282 24.4513 96.1326 24.4513H94.9869V23.3056C94.9869 22.3474 95.0702 22.0558 95.5077 21.6392C95.9868 21.1393 96.1534 21.1185 98.3197 21.1185C100.486 21.1185 100.653 21.0976 101.132 20.5977C101.465 20.2853 101.653 19.8478 101.653 19.4521C101.653 19.0563 101.465 18.6188 101.132 18.3064C100.653 17.8065 100.528 17.7856 98.1739 17.8065C96.82 17.8273 95.3827 17.9315 94.9869 18.0564Z" fill="#DB0909"/>
<path d="M10.5208 26.6384L10 27.1383V41.1153V55.0923L10.5208 55.5922L11.0207 56.113H21.6648H32.309L32.8089 55.5922L33.3297 55.0923V41.1153V27.1383L32.8089 26.6384L32.309 26.1177H21.6648H11.0207L10.5208 26.6384ZM29.9969 41.1153V52.7802H21.6648H13.3328V41.1153V29.4505H21.6648H29.9969V41.1153Z" fill="#DB0909"/>
<path d="M20.5193 33.304C20.186 33.6165 19.9985 34.0539 19.9985 34.4497C19.9985 34.8455 20.186 35.2829 20.5193 35.5953C20.9984 36.0953 21.165 36.1161 23.3313 36.1161C25.4977 36.1161 25.6643 36.0953 26.1434 35.5953C26.4767 35.2829 26.6642 34.8455 26.6642 34.4497C26.6642 34.0539 26.4767 33.6165 26.1434 33.304C25.6643 32.8041 25.4977 32.7833 23.3313 32.7833C21.165 32.7833 20.9984 32.8041 20.5193 33.304Z" fill="#DB0909"/>
<path d="M17.1863 39.9697C16.853 40.2821 16.6655 40.7196 16.6655 41.1153C16.6655 41.5111 16.853 41.9485 17.1863 42.261C17.6862 42.7817 17.7279 42.7817 21.6647 42.7817C25.6016 42.7817 25.6433 42.7817 26.1432 42.261C26.4765 41.9485 26.664 41.5111 26.664 41.1153C26.664 40.7196 26.4765 40.2821 26.1432 39.9697C25.6433 39.4489 25.6016 39.4489 21.6647 39.4489C17.7279 39.4489 17.6862 39.4489 17.1863 39.9697Z" fill="#DB0909"/>
<path d="M17.1863 46.6353C16.853 46.9478 16.6655 47.3852 16.6655 47.781C16.6655 48.1768 16.853 48.6142 17.1863 48.9266C17.6862 49.4474 17.7279 49.4474 21.6647 49.4474C25.6016 49.4474 25.6433 49.4474 26.1432 48.9266C26.4765 48.6142 26.664 48.1768 26.664 47.781C26.664 47.3852 26.4765 46.9478 26.1432 46.6353C25.6433 46.1146 25.6016 46.1146 21.6647 46.1146C17.7279 46.1146 17.6862 46.1146 17.1863 46.6353Z" fill="#DB0909"/>
<path d="M72.4277 36.366C72.2402 36.5118 70.8655 38.2616 69.3657 40.2612C66.4286 44.219 66.2412 44.6564 67.1785 45.5937C67.7201 46.1562 68.6575 46.2811 69.2199 45.8437C69.4073 45.7187 70.7821 43.969 72.2819 41.9693C75.2189 38.0116 75.4064 37.5742 74.4691 36.6368C73.9275 36.0744 72.9901 35.9494 72.4277 36.366Z" fill="#DB0909"/>
<path d="M75.8025 47.1561C73.8028 48.6559 72.0531 50.0306 71.9281 50.2181C71.4906 50.7805 71.6156 51.7179 72.178 52.2595C73.1154 53.1968 73.5528 53.0093 77.5105 50.0723C79.5102 48.5725 81.26 47.1978 81.4058 47.0103C81.8224 46.4479 81.6974 45.5105 81.135 44.9689C80.1976 44.0316 79.7602 44.2191 75.8025 47.1561Z" fill="#DB0909"/>
<path d="M59.6795 46.3645C59.4504 46.4895 54.0554 50.9054 47.6606 56.1755C36.1623 65.6531 36.0374 65.7365 32.2463 67.9236C28.0386 70.3399 27.1221 71.0898 26.2889 72.777C25.8098 73.756 25.7265 74.1726 25.7265 75.6932L25.7473 77.4846L24.5183 78.1928C22.3937 79.4426 21.3313 81.6506 21.8521 83.7128C22.4562 86.1083 24.3309 87.5664 26.7888 87.5664C27.872 87.5664 28.3094 87.4414 29.4551 86.8373L30.8298 86.1083L31.6839 86.7123C33.7669 88.2329 36.3498 88.3788 38.7453 87.1289C39.4952 86.7332 40.1617 86.3999 40.245 86.3582C40.3075 86.3166 41.0991 87.5872 42.0156 89.1703C42.9113 90.7534 43.9736 92.4198 44.3694 92.8572C46.3066 95.0235 49.7227 95.0235 51.6808 92.8364C52.6598 91.7532 52.9722 90.7534 52.8681 89.1495C52.8056 88.0038 52.6181 87.5872 51.0767 84.8793C50.1393 83.2337 49.4103 81.8381 49.4519 81.7756C49.5144 81.734 55.1594 79.5885 62.0125 77.0055C74.823 72.2146 75.4062 71.9438 75.4062 70.8607C75.4062 70.4441 67.7199 56.8628 66.7201 55.5297C66.3035 54.9881 66.0743 54.8632 65.4078 54.8632C64.7829 54.8632 64.5121 54.9881 64.1788 55.4047C63.3873 56.4254 63.1581 55.9255 67.8449 64.0076C69.7196 67.2362 71.2402 69.9441 71.1777 69.9858C71.136 70.0275 64.9703 72.3604 57.4923 75.1725C44.0361 80.2134 43.8486 80.2967 40.3284 82.338C38.3703 83.4629 36.4748 84.4627 36.0999 84.5252C35.1417 84.7335 33.9335 84.3377 33.2045 83.567C32.8504 83.1921 31.788 81.5257 30.8298 79.8593C28.9343 76.5681 28.6219 75.4849 29.2259 74.3184C29.705 73.3811 30.3091 72.9437 33.4128 71.1314L36.3082 69.465L38.5161 73.2561C40.9116 77.3805 41.2865 77.7554 42.4739 77.3388C43.2029 77.0888 43.5362 76.6098 43.5362 75.7974C43.5362 75.4849 42.6197 73.6727 41.349 71.4856C40.1409 69.4025 39.1827 67.632 39.2035 67.5487C39.2452 67.4654 42.2656 64.9449 45.9317 61.9037C49.5977 58.8834 54.222 55.0923 56.2009 53.4467C59.5962 50.6555 60.2003 50.218 60.2003 50.6763C60.2003 51.1346 61.6167 52.3635 62.1583 52.3635C62.9082 52.3635 63.7414 51.5095 63.7414 50.7596C63.7414 50.0931 62.075 47.031 61.4292 46.4686C60.9293 46.052 60.2836 46.0104 59.6795 46.3645ZM28.1636 81.9006L28.9343 83.317L28.0594 83.7753C26.8513 84.4002 25.9764 84.3794 25.4349 83.692C24.6641 82.7338 24.9349 81.8589 26.2056 81.0049C26.6222 80.7341 27.0804 80.505 27.1846 80.505C27.3096 80.4842 27.747 81.1299 28.1636 81.9006ZM47.8897 86.1083C49.9102 89.6077 50.0352 90.4826 48.5562 91.1075C47.4522 91.5658 46.9523 91.1075 45.0568 87.8788C44.1194 86.2749 43.3487 84.8585 43.3487 84.7543C43.3279 84.5252 45.5567 83.2129 45.9525 83.1921C46.0983 83.1921 46.9523 84.5044 47.8897 86.1083Z" fill="#DB0909"/>
<path d="M81.7595 55.3631C79.4682 55.8422 77.4477 56.3213 77.2394 56.4046C76.7812 56.6129 76.3854 57.6544 76.552 58.196C76.7603 58.8417 77.4894 59.4458 78.0935 59.4458C78.3851 59.4458 80.5931 59.05 83.0094 58.5709C86.5505 57.8627 87.467 57.6128 87.8419 57.2378C88.8626 56.2171 88.0711 54.4258 86.613 54.4674C86.238 54.4882 84.0509 54.884 81.7595 55.3631Z" fill="#DB0909"/>
<path d="M15.5201 61.633L14.9993 62.1329V79.9634V97.7731H13.0205C11.1458 97.7731 10.9791 97.8148 10.4792 98.3147C9.95847 98.8355 9.95847 98.8563 10.0418 101.793C10.1043 104.585 10.1459 104.835 10.7708 106.147C11.6874 108.084 12.8538 109.292 14.7494 110.23L16.3325 111H39.9954H63.6584L65.2415 110.23C67.137 109.292 68.3035 108.084 69.22 106.147C69.8449 104.835 69.8866 104.585 69.9491 101.793C70.0324 98.8563 70.0324 98.8355 69.5117 98.3147C69.0117 97.8148 68.8451 97.7731 66.9704 97.7731H64.9915V89.3578C64.9915 81.1716 64.9707 80.9424 64.5541 80.4009C63.95 79.6301 62.7002 79.6301 62.0962 80.4009C61.6796 80.9424 61.6587 81.1716 61.6587 89.3578V97.7731H39.9954H18.3322V81.1091V64.445H25.4977H32.6841L33.2465 63.9659C33.6631 63.6118 33.8089 63.2785 33.8089 62.7786C33.8089 62.2787 33.6631 61.9454 33.2465 61.5913L32.6841 61.1122H24.352H16.02L15.5201 61.633ZM66.6579 102.272C66.6579 104.085 66.283 105.043 65.0957 106.209C63.825 107.501 62.9918 107.772 60.3256 107.772H58.3259V106.626C58.3259 105.23 57.7218 104.439 56.6595 104.439C55.5972 104.439 54.9931 105.23 54.9931 106.626V107.772H39.9954H24.9978V106.626C24.9978 105.23 24.3937 104.439 23.3314 104.439C22.269 104.439 21.665 105.23 21.665 106.626V107.772H19.6653C16.999 107.772 16.1658 107.501 14.8952 106.209C13.7079 105.043 13.3329 104.085 13.3329 102.272V101.106H39.9954H66.6579V102.272Z" fill="#DB0909"/>
<path d="M83.3221 63.0493C82.3014 63.3826 80.5517 65.174 80.2392 66.2363C79.8851 67.4653 79.8851 88.0871 80.2392 89.316C80.5725 90.4617 82.3014 92.1906 83.447 92.5239C84.072 92.7113 87.2173 92.7738 95.0286 92.7738C107.318 92.7738 107.068 92.8155 108.589 91.1074C109.755 89.816 109.985 88.9828 109.985 86.129C109.985 83.9419 109.964 83.7752 109.464 83.2962C108.797 82.6088 107.839 82.6088 107.173 83.2962C106.673 83.7752 106.652 83.9419 106.652 86.1082C106.652 88.2745 106.631 88.4412 106.131 88.9203L105.631 89.441H94.9869H84.3427L83.8428 88.9203L83.3221 88.4203V77.7762V67.132L83.8428 66.6321L84.3427 66.1113H94.9869H105.631L106.131 66.6321L106.652 67.132V72.777V78.4219L107.173 78.9218C107.485 79.2551 107.922 79.4426 108.318 79.4426C108.714 79.4426 109.151 79.2551 109.464 78.9218L109.985 78.4219V72.7561C109.985 68.9859 109.901 66.8196 109.735 66.278C109.61 65.8197 109.089 64.9865 108.589 64.4449C107.068 62.7369 107.339 62.7785 94.9036 62.7994C87.6339 62.8202 83.8012 62.9035 83.3221 63.0493Z" fill="#DB0909"/>
<path d="M93.4247 71.2981C91.5083 71.798 89.8211 73.1728 88.9462 74.9642C88.2172 76.4848 88.2172 79.1094 88.9462 80.5883C89.5919 81.9214 90.8417 83.1712 92.1749 83.817C93.6538 84.546 96.2784 84.546 97.799 83.817C99.1321 83.1712 100.382 81.9214 101.028 80.5883C101.757 79.0677 101.757 76.4431 101.028 74.9642C100.361 73.6311 99.1113 72.3813 97.799 71.7564C96.6742 71.2356 94.5495 71.0065 93.4247 71.2981ZM96.2992 74.7351C98.4447 75.6308 98.9655 78.422 97.2991 80.0884C95.9451 81.4424 94.0287 81.4424 92.6748 80.0884C90.0919 77.5263 92.9456 73.3186 96.2992 74.7351Z" fill="#DB0909"/>
</svg>
