<svg width="120" height="120" viewBox="0 0 120 120" fill="none" xmlns="http://www.w3.org/2000/svg">
<path d="M100.955 105.306C60.7027 114.823 36.2065 132.97 11.506 105.306C-13.1946 77.641 8.14683 54.2704 17.5583 17.9905C26.9698 -18.2894 95.9876 7.175 100.955 34.1149C105.921 61.0548 141.206 95.7884 100.955 105.306Z" fill="#EAEAEA"/>
<path opacity="0.928" fill-rule="evenodd" clip-rule="evenodd" d="M110 58.8906C110 59.4766 110 60.0625 110 60.6485C107.489 64.6279 104.56 68.3063 101.211 71.6836C98.0711 74.5871 94.6857 77.1588 91.0547 79.3985C94.6979 83.1393 98.3762 86.8502 102.09 90.5313C103.691 95.1391 105.254 99.7615 106.777 104.398C106.963 106.101 106.214 106.785 104.531 106.449C99.8676 105.003 95.2451 103.441 90.6641 101.762C85.3906 96.4883 80.1172 91.2149 74.8438 85.9414C65.0473 88.1795 55.2492 88.1471 45.4492 85.8438C39.9557 91.1418 34.5195 96.5129 29.1406 101.957C24.3292 103.669 19.4789 105.264 14.5898 106.742C13.5647 106.726 13.0113 106.205 12.9297 105.18C14.4648 100.341 16.0598 95.5233 17.7148 90.7266C21.4936 86.9805 25.2371 83.2043 28.9453 79.3985C26.2412 77.7053 23.6695 75.8172 21.2305 73.7344C20.7779 72.935 20.8756 72.2188 21.5234 71.586C21.9398 71.2701 22.3955 71.1725 22.8906 71.293C27.228 74.7985 31.9807 77.6631 37.1484 79.8867C39.0697 80.7008 41.0229 81.3518 43.0078 81.8399C33.407 73.608 30.2494 63.3541 33.5352 51.0781C35.3348 45.6365 38.4924 41.1768 43.0078 37.6992C32.0791 40.868 23.0622 46.8901 15.957 55.7656C15.0399 57.041 14.161 58.3432 13.3203 59.6719C14.9128 62.3393 16.7683 64.8131 18.8867 67.0938C19.6581 68.8557 19.1047 69.7346 17.2266 69.7305C16.5499 69.2494 15.9314 68.6961 15.3711 68.0703C13.4331 65.6869 11.6427 63.2129 10 60.6485C10 60.0625 10 59.4766 10 58.8906C14.7525 51.0783 21.0676 44.8283 28.9453 40.1406C24.1303 35.2279 19.28 30.3451 14.3945 25.4922C12.7018 23.2787 12.7018 21.0651 14.3945 18.8516C15.9896 17.2565 17.5846 15.6615 19.1797 14.0664C21.3251 12.6445 23.4735 12.6445 25.625 14.0664C32.1758 20.6824 38.7838 27.2253 45.4492 33.6953C55.1832 31.3537 64.9162 31.3537 74.6484 33.6953C81.1887 27.2527 87.6992 20.7748 94.1797 14.2617C96.1191 12.9932 98.1373 12.863 100.234 13.8711C102.09 15.7266 103.945 17.582 105.801 19.4375C107.049 21.612 106.919 23.6953 105.41 25.6875C100.59 30.4754 95.8045 35.293 91.0547 40.1406C93.8428 41.9742 96.5447 43.9274 99.1602 46C99.852 47.417 99.4613 48.3283 97.9883 48.7344C97.6705 48.71 97.3775 48.6123 97.1094 48.4414C91.2129 43.3768 84.507 39.7961 76.9922 37.6992C86.1891 45.4617 89.477 55.26 86.8555 67.0938C85.198 73.1108 81.9104 78.026 76.9922 81.8399C89.6559 78.1801 99.5516 70.8235 106.68 59.7695C105.18 57.2928 103.455 54.9817 101.504 52.836C100.789 50.8477 101.473 50.034 103.555 50.3945C106.015 53.0119 108.164 55.844 110 58.8906ZM21.7188 16.1172C22.4452 16.02 23.0962 16.1828 23.6719 16.6055C25.0391 17.9727 26.4062 19.3399 27.7734 20.707C25.5246 22.9885 23.246 25.2346 20.9375 27.4453C19.5731 26.1787 18.2385 24.8766 16.9336 23.5391C16.1844 22.7317 16.1193 21.8853 16.7383 21C18.3779 19.3276 20.0381 17.7 21.7188 16.1172ZM96.7188 16.3125C97.3338 16.2561 97.9197 16.3538 98.4766 16.6055C100.072 18.2005 101.667 19.7956 103.262 21.3906C103.696 22.2601 103.566 23.0413 102.871 23.7344C101.569 25.0365 100.267 26.3385 98.9648 27.6406C96.6834 25.3918 94.4373 23.1132 92.2266 20.8047C93.6682 19.2328 95.1656 17.7354 96.7188 16.3125ZM29.9219 22.9531C33.8539 26.7875 37.7602 30.6611 41.6406 34.5742C40.5477 34.96 39.4734 35.3832 38.418 35.8438C34.8697 32.2955 31.3217 28.7474 27.7734 25.1992C28.5294 24.4761 29.2455 23.7274 29.9219 22.9531ZM89.6875 23.1485C90.515 23.6813 91.2639 24.3323 91.9336 25.1016C92.0639 25.2318 92.0639 25.362 91.9336 25.4922C88.483 28.9427 85.0326 32.3932 81.582 35.8438C80.5266 35.3832 79.4523 34.96 78.3594 34.5742C82.1748 30.7914 85.9508 26.9828 89.6875 23.1485ZM25.2344 27.6406C25.3787 27.6151 25.5089 27.6476 25.625 27.7383C28.7254 30.8713 31.8504 33.9639 35 37.0156C34.0246 37.6172 33.0154 38.1381 31.9727 38.5781C29.1081 35.7135 26.2435 32.849 23.3789 29.9844C23.2487 29.8541 23.2487 29.724 23.3789 29.5938C24.0373 28.9683 24.6558 28.3172 25.2344 27.6406ZM94.1797 27.6406C95.1053 28.2717 95.9516 29.0204 96.7188 29.8867C93.8217 32.7838 90.9244 35.6811 88.0273 38.5781C87.0783 38.1418 86.1344 37.6861 85.1953 37.211C84.9959 37.1129 84.9633 36.9828 85.0977 36.8203C88.1645 33.7861 91.1918 30.7264 94.1797 27.6406ZM58.2422 35.0625C68.4682 34.8844 76.2482 39.1162 81.582 47.7578C86.3621 57.5422 85.5158 66.7871 79.043 75.4922C71.3359 83.8401 62.0586 86.2815 51.2109 82.8164C40.0656 77.816 34.8248 69.1897 35.4883 56.9375C37.2422 46.2645 43.2643 39.2656 53.5547 35.9414C55.1285 35.5547 56.691 35.2617 58.2422 35.0625ZM31.875 80.961C32.9359 81.3936 33.9775 81.8819 35 82.4258C31.1264 86.2994 27.2526 90.1733 23.3789 94.0469C22.6302 93.2983 21.8815 92.5494 21.1328 91.8008C24.7529 88.2133 28.3337 84.6 31.875 80.961ZM87.7344 80.961C91.4613 84.3945 95.107 87.9426 98.6719 91.6055C97.9232 92.3541 97.1744 93.1029 96.4258 93.8516C92.6172 90.043 88.8086 86.2344 85 82.4258C85.9545 81.9817 86.866 81.4934 87.7344 80.961ZM38.125 83.6953C39.3215 84.0664 40.4934 84.4897 41.6406 84.9649C37.1484 89.457 32.6562 93.9492 28.1641 98.4414C28.0338 98.5717 27.9037 98.5717 27.7734 98.4414C27.1549 97.8229 26.5365 97.2045 25.918 96.586C25.7878 96.4557 25.7878 96.3256 25.918 96.1953C29.9504 92 34.0193 87.8334 38.125 83.6953ZM81.4844 83.6953C85.6824 87.8608 89.9141 91.9947 94.1797 96.0977C93.4635 96.8139 92.7475 97.5299 92.0312 98.2461C91.901 98.3764 91.7709 98.3764 91.6406 98.2461C87.2135 93.819 82.7865 89.392 78.3594 84.9649C79.4328 84.5901 80.4744 84.1668 81.4844 83.6953ZM100.039 94.6328C101.021 97.1231 101.933 99.6621 102.773 102.25C102.676 102.315 102.578 102.38 102.48 102.445C99.9381 101.696 97.4314 100.849 94.9609 99.9063C96.6578 98.1444 98.3506 96.3865 100.039 94.6328ZM19.5703 94.8281C21.3891 96.5168 23.1469 98.2746 24.8438 100.102C22.2691 101.058 19.6649 101.872 17.0312 102.543C17.9753 100.004 18.8217 97.432 19.5703 94.8281Z" fill="#DB0909"/>
<path opacity="0.922" fill-rule="evenodd" clip-rule="evenodd" d="M58.2422 45.8047C65.3775 45.4149 70.358 48.4748 73.1836 54.9844C75.0658 61.5768 73.3406 67.0129 68.0078 71.293C66.5646 72.2422 65.0021 72.9258 63.3203 73.3438C61.9957 73.1059 61.5074 72.3246 61.8554 71C62.523 70.3199 63.3369 69.8969 64.2968 69.7305C69.4791 66.9512 71.5299 62.6867 70.4492 56.9375C68.2138 50.8643 63.8843 48.2926 57.4609 49.2227C52.2869 50.8463 49.4875 54.3619 49.0625 59.7696C49.4875 65.1772 52.2869 68.6928 57.4609 70.3164C58.4269 71.1563 58.492 72.0678 57.6562 73.0508C57.3365 73.1682 57.0111 73.2658 56.6797 73.3438C51.0109 71.6791 47.5279 67.9682 46.2304 62.211C45.3922 54.9348 48.2894 49.759 54.9218 46.6836C56.0455 46.3543 57.1521 46.0613 58.2422 45.8047Z" fill="#DB0909"/>
</svg>
