<svg width="120" height="120" viewBox="0 0 120 120" fill="none" xmlns="http://www.w3.org/2000/svg">
<path d="M105.306 19.0455C114.823 59.2973 132.97 83.7935 105.306 108.494C77.641 133.195 54.2704 111.853 17.9905 102.442C-18.2894 93.0302 7.175 24.0124 34.1149 19.0455C61.0548 14.0786 95.7884 -21.2064 105.306 19.0455Z" fill="#EAEAEA"/>
<path opacity="0.948" fill-rule="evenodd" clip-rule="evenodd" d="M17.8125 10C19.1146 10 20.4167 10 21.7188 10C27.46 11.7745 30.0316 15.6807 29.4336 21.7188C28.8349 24.2856 27.5003 26.3689 25.4297 27.9688C27.0248 31.6797 28.6198 35.3906 30.2149 39.1016C30.3244 39.2035 30.4547 39.2686 30.6055 39.2969C39.6943 37.0647 47.344 39.4084 53.5547 46.3281C55.9822 44.8424 58.326 43.2475 60.586 41.543C58.1141 36.4455 57.5608 31.1395 58.9258 25.625C61.7926 16.8553 67.7496 11.647 76.7969 10C78.75 10 80.7032 10 82.6563 10C92.9403 12.0483 99.0926 18.2332 101.113 28.5547C101.948 37.3959 98.7909 44.3945 91.6407 49.5508C85.4717 53.2858 78.9614 54.0018 72.1094 51.6992C68.4739 50.3072 65.4139 48.1264 62.9297 45.1563C60.5022 46.642 58.1584 48.2369 55.8985 49.9414C57.2145 52.4895 57.9957 55.1912 58.2422 58.0469C60.8471 58.0143 63.4514 58.0469 66.0547 58.1445C66.9873 58.8584 67.2803 59.8024 66.9336 60.9766C66.7057 61.3346 66.4127 61.6276 66.0547 61.8555C63.4514 61.9531 60.8471 61.9858 58.2422 61.9531C58.0055 64.909 57.1592 67.676 55.7031 70.2539C57.7838 71.8153 59.9322 73.2801 62.1485 74.6485C69.1949 67.1117 77.5934 65.126 87.3438 68.6914C96.6959 73.3615 100.96 80.9461 100.137 91.4453C98.116 101.767 91.9637 107.952 81.6797 110C79.7266 110 77.7735 110 75.8203 110C65.5363 107.952 59.384 101.767 57.3633 91.4453C56.7578 86.7762 57.5717 82.3817 59.8047 78.2617C57.724 76.7004 55.5756 75.2356 53.3594 73.8672C47.1674 80.6502 39.5826 82.9289 30.6055 80.7032C30.4547 80.7315 30.3244 80.7965 30.2149 80.8985C28.6198 84.6094 27.0248 88.3203 25.4297 92.0313C29.7668 95.7102 30.7108 100.137 28.2617 105.313C26.6985 107.757 24.5175 109.32 21.7188 110C20.4167 110 19.1146 110 17.8125 110C13.7109 108.893 11.1068 106.289 10 102.188C10 100.885 10 99.5834 10 98.2813C11.7931 92.625 15.6993 89.9559 21.7188 90.2735C23.2813 86.5625 24.8438 82.8516 26.4063 79.1407C17.2022 73.2496 13.7191 64.9164 15.957 54.1406C17.7407 48.3557 21.2238 43.9285 26.4063 40.8594C24.8438 37.1484 23.2813 33.4375 21.7188 29.7266C15.6993 30.0441 11.7931 27.3749 10 21.7188C10 20.4167 10 19.1146 10 17.8125C11.1068 13.7109 13.7109 11.1068 17.8125 10ZM79.5313 13.9063C87.5215 14.3173 93.0553 18.191 96.1328 25.5273C98.1205 31.4047 97.3067 36.841 93.6914 41.8359C92.8498 40.3154 91.8407 38.9156 90.6641 37.6367C89.4313 36.5022 88.0641 35.5582 86.5625 34.8047C89.8258 31.0867 90.3791 26.9852 88.2227 22.5C85.103 18.1183 80.9688 16.7836 75.8203 18.4961C71.3045 20.7887 69.3838 24.4671 70.0586 29.5313C70.4934 31.5733 71.4373 33.3311 72.8906 34.8047C70.4463 36.1102 68.3955 37.868 66.7383 40.0781C66.3633 40.6326 66.0377 41.2186 65.7617 41.8359C62.4772 37.3672 61.5006 32.4193 62.8321 26.9922C65.5166 18.9349 71.083 14.5729 79.5313 13.9063ZM18.3984 14.1016C23.3093 13.9016 25.6205 16.2454 25.332 21.1328C23.878 24.9839 21.1762 26.2534 17.2266 24.9414C14.1336 22.9524 13.3197 20.2506 14.7852 16.8359C15.6691 15.4698 16.8736 14.5583 18.3984 14.1016ZM78.3594 21.9141C83.2703 21.7141 85.5815 24.0579 85.293 28.9453C83.8389 32.7965 81.1371 34.066 77.1875 32.7539C74.0946 30.7649 73.2807 28.0631 74.7461 24.6484C75.6301 23.2823 76.8346 22.3708 78.3594 21.9141ZM77.7735 37.5391C83.8867 36.9869 88.1836 39.4936 90.6641 45.0586C83.3719 50.3967 76.0803 50.3967 68.7891 45.0586C70.5229 41.0111 73.5178 38.5045 77.7735 37.5391ZM36.5625 42.4219C44.5527 42.833 50.0865 46.7067 53.1641 54.043C55.1518 59.9203 54.3379 65.3567 50.7227 70.3516C49.1547 67.1885 46.7783 64.8447 43.5938 63.3203C46.857 59.6024 47.4104 55.5008 45.2539 51.0156C42.1342 46.634 38 45.2992 32.8516 47.0117C28.3357 49.3043 26.4151 52.9826 27.0899 58.0469C27.5247 60.0889 28.4687 61.8467 29.9219 63.3203C26.7372 64.8447 24.3609 67.1885 22.793 70.3516C19.5085 65.8828 18.5319 60.935 19.8633 55.5078C22.5479 47.4506 28.1143 43.0885 36.5625 42.4219ZM35.3906 50.4297C40.3016 50.2297 42.6127 52.5735 42.3242 57.461C40.8701 61.3121 38.1684 62.5817 34.2188 61.2696C31.1258 59.2805 30.3119 56.5787 31.7774 53.1641C32.6613 51.7979 33.8658 50.8865 35.3906 50.4297ZM34.6094 66.0547C40.8022 65.4385 45.1641 67.9449 47.6953 73.5742C40.4037 78.9127 33.1119 78.9127 25.8203 73.5742C27.5317 69.6149 30.4613 67.1084 34.6094 66.0547ZM78.5547 70.9375C86.545 71.3487 92.0787 75.2223 95.1563 82.5586C97.144 88.436 96.3301 93.8723 92.7149 98.8672C91.1469 95.7041 88.7705 93.3604 85.586 91.836C88.8492 88.118 89.4026 84.0164 87.2461 79.5313C84.1264 75.1496 79.9922 73.8149 74.8438 75.5274C70.328 77.8199 68.4072 81.4983 69.0821 86.5625C69.5168 88.6045 70.4608 90.3623 71.9141 91.836C68.7295 93.3604 66.3531 95.7041 64.7852 98.8672C61.5006 94.3985 60.524 89.4506 61.8555 84.0235C64.5401 75.9662 70.1065 71.6041 78.5547 70.9375ZM77.3828 78.9453C82.2938 78.7453 84.6049 81.0891 84.3164 85.9766C82.8623 89.8278 80.1606 91.0973 76.211 89.7852C73.118 87.7961 72.3041 85.0944 73.7696 81.6797C74.6535 80.3135 75.858 79.4022 77.3828 78.9453ZM18.3984 94.5703C23.3093 94.3703 25.6205 96.7141 25.332 101.602C23.878 105.453 21.1762 106.722 17.2266 105.41C14.1336 103.421 13.3197 100.719 14.7852 97.3047C15.6691 95.9385 16.8736 95.0272 18.3984 94.5703ZM76.6016 94.5703C82.7944 93.9541 87.1563 96.4606 89.6875 102.09C82.3959 107.428 75.1041 107.428 67.8125 102.09C69.5239 98.1305 72.4535 95.6241 76.6016 94.5703Z" fill="#DB0909"/>
<path opacity="0.957" fill-rule="evenodd" clip-rule="evenodd" d="M110 58.2422C110 59.4141 110 60.5859 110 61.7578C108.279 66.6881 104.829 68.6086 99.6483 67.5195C96.9613 66.5584 95.2686 64.7029 94.5701 61.9531C90.2727 61.9857 85.9758 61.9531 81.6795 61.8555C80.7469 61.1416 80.4539 60.1977 80.8006 59.0234C81.0285 58.6654 81.3215 58.3725 81.6795 58.1445C85.9758 58.0469 90.2727 58.0143 94.5701 58.0469C95.6883 54.2635 98.2274 52.3104 102.187 52.1875C106.26 52.3334 108.864 54.3516 110 58.2422ZM101.015 56.2891C104.56 56.025 106.155 57.6525 105.801 61.1719C104.468 63.8168 102.482 64.4354 99.8436 63.0273C98.301 61.415 98.0731 59.6248 99.16 57.6563C99.7049 57.0772 100.323 56.6215 101.015 56.2891Z" fill="#DB0909"/>
<path opacity="0.908" fill-rule="evenodd" clip-rule="evenodd" d="M72.8904 58.0469C75.1998 57.7195 76.144 58.6961 75.7225 60.9766C75.0086 61.9092 74.0647 62.2021 72.8904 61.8555C71.9578 61.1416 71.6648 60.1976 72.0115 59.0234C72.2783 58.6598 72.5713 58.3344 72.8904 58.0469Z" fill="#DB0909"/>
</svg>
