<svg width="120" height="120" viewBox="0 0 120 120" fill="none" xmlns="http://www.w3.org/2000/svg">
<path d="M100.955 105.306C60.7027 114.823 36.2065 132.97 11.506 105.306C-13.1946 77.641 8.14684 54.2704 17.5583 17.9905C26.9698 -18.2894 95.9876 7.175 100.955 34.1149C105.921 61.0548 141.206 95.7884 100.955 105.306Z" fill="#EAEAEA"/>
<path d="M95.5294 11.4202C94.1035 11.8304 92.8534 12.6703 91.9354 13.8617C91.4666 14.4672 88.361 18.7448 85.06 23.3349L79.0245 31.6948L60.1953 31.6752C39.452 31.6752 39.8426 31.6557 37.3425 32.8862C35.6041 33.7261 33.5141 35.8356 32.6938 37.535C31.8343 39.3515 31.6781 40.1523 31.5414 43.8244L31.4242 47.0667L25.7402 47.1449C20.3688 47.223 19.9977 47.2425 18.9235 47.6722C16.6382 48.5707 14.6459 50.7779 14.0599 53.0241C13.8646 53.8249 13.806 56.8915 13.806 67.8687V81.7171L14.2747 82.0883C14.8607 82.557 15.6811 82.557 16.2671 82.0883L16.7358 81.7171L16.8335 67.5757L16.9312 53.4148L17.5171 52.4577C18.1812 51.3834 19.6852 50.3677 20.8767 50.1529C21.2869 50.0943 23.8456 50.0357 26.5606 50.0357H31.4828V51.7936V53.5515H26.1309H20.7595L20.2126 54.0203L19.6657 54.489L19.6071 76.0918L19.568 97.6946H18.2008H16.853L16.7944 92.9873C16.7358 88.3191 16.7358 88.28 16.2671 87.9089C15.6811 87.4401 14.8607 87.4401 14.2747 87.9089C13.806 88.28 13.806 88.3191 13.7474 92.9873L13.6888 97.6946H12.2434C10.9152 97.6946 10.7785 97.7337 10.3878 98.2415C9.97763 98.7298 9.9581 98.9252 10.0362 101.601C10.0948 104.218 10.1534 104.531 10.6613 105.664C11.384 107.226 13.0442 108.809 14.6263 109.453L15.7592 109.902L53.0855 109.961L90.4119 110L90.9197 109.59C91.5252 109.141 91.6229 108.183 91.1736 107.539C90.9002 107.168 90.2361 107.168 53.5153 107.07L16.1499 106.972L15.349 106.543C14.3138 105.996 13.3958 104.922 13.1419 104.004C13.0247 103.593 12.927 102.675 12.927 101.933V100.624H32.5375H52.1285L52.2457 101.289C52.5191 102.929 54.0036 104.707 55.4294 105.097C55.8591 105.215 57.8905 105.312 60 105.312C62.1095 105.312 64.1409 105.215 64.5706 105.097C65.9964 104.707 67.4809 102.929 67.7543 101.289L67.8715 100.624H87.5016H107.112L107.034 102.382C106.956 103.945 106.897 104.238 106.37 104.961C105.706 105.918 104.788 106.582 103.772 106.875C103.381 106.972 101.858 107.07 100.373 107.07C97.9514 107.07 97.6584 107.109 97.3068 107.461C96.7208 108.047 96.7794 109.082 97.4631 109.609C97.9709 110.02 98.1467 110.039 101.116 109.961C103.772 109.883 104.417 109.805 105.374 109.434C106.956 108.809 108.616 107.226 109.339 105.664C109.847 104.531 109.905 104.218 109.964 101.601C110.042 98.9252 110.022 98.7298 109.612 98.222C109.222 97.7337 109.085 97.6946 107.757 97.6946H106.311L106.253 75.6816C106.174 51.1685 106.272 52.8679 104.846 50.6998C103.987 49.4106 102.541 48.2582 101.077 47.6722C100.002 47.2425 99.6507 47.223 93.9472 47.1449L87.9313 47.0667V44.1369V41.207L91.6815 35.9919C93.7519 33.1402 95.92 30.1322 96.506 29.3314L97.5803 27.886L97.8147 28.4524C98.1076 29.1556 98.1662 30.6791 97.9123 31.3432C97.8147 31.6166 96.1739 33.9605 94.2988 36.5779C92.4042 39.1757 90.8611 41.4805 90.8611 41.6953C90.8611 42.1837 91.8963 43.1993 92.4042 43.1993C93.0488 43.1993 93.7519 42.379 96.9748 37.8865C100.998 32.3003 100.92 32.437 100.92 30.015C100.92 28.1204 100.901 28.0227 100.159 26.675L99.4163 25.3077L101.018 23.0615C101.916 21.8309 102.756 20.5418 102.913 20.1902C103.948 17.7096 103.44 14.9555 101.584 13.1C100.061 11.5764 97.5021 10.8733 95.5294 11.4202ZM98.3811 14.4672C99.9437 15.1704 100.842 16.8697 100.432 18.3737C100.256 19.0573 97.5607 23.1005 97.092 23.3935C96.9357 23.4912 91.7987 19.9558 91.5643 19.5847C91.4471 19.3894 94.4746 15.229 95.0606 14.8188C96.0958 14.0571 97.2287 13.9399 98.3811 14.4672ZM95.1582 26.0499C95.1582 26.1867 76.4267 52.2038 76.0165 52.6335C75.8993 52.7702 71.3288 49.645 70.4889 48.8637C70.3521 48.7465 74.493 42.9259 87.482 24.9952L89.6892 21.9286L92.4237 23.9014C93.9277 24.9952 95.1582 25.9523 95.1582 26.0499ZM76.5048 35.1129C76.3291 35.3864 74.1024 38.492 71.5632 41.9883L66.934 48.3754L66.8168 50.0357C66.7387 50.9537 66.6605 53.1804 66.6605 54.9969C66.641 58.1416 66.6605 58.3369 67.0707 58.7666C67.3051 59.0205 67.6957 59.2159 67.9497 59.2159C68.3598 59.2159 72.5984 57.79 76.0556 56.4813L77.1885 56.0712L80.9387 50.856L84.7084 45.6409L84.767 47.8871C84.7866 49.1176 84.7866 53.5124 84.767 57.6533L84.7084 65.1732L84.1811 66.267C83.0482 68.5523 80.7043 70.1931 78.1065 70.5056C76.5634 70.7009 76.0165 71.0915 76.0165 72.0486C76.0165 72.9862 76.583 73.4745 77.6768 73.4745C81.1145 73.4745 84.8647 71.1892 86.5054 68.1031C87.5992 66.0131 87.7555 65.1537 87.8727 60.6222L87.9899 56.4813H92.6386H97.3068V77.088V97.6946H60H22.6932V77.088V56.4813H27.088H31.4828V59.3526C31.5023 64.724 31.9125 66.6968 33.5141 69.0406C34.9205 71.0915 37.1667 72.6151 39.8426 73.2792L40.663 73.494V79.3342C40.663 84.94 40.6825 85.2134 41.0536 85.5846C41.288 85.8189 41.6982 85.9752 42.0693 85.9752C42.6357 85.9752 43.3389 85.3306 48.9642 79.7248L55.2146 73.4745H62.7931C70.0982 73.4745 70.3717 73.455 70.7428 73.0838C71.3288 72.4979 71.2702 71.4627 70.6256 70.9548C70.1178 70.5642 69.9029 70.5446 62.09 70.5446H54.0622L48.8275 75.7598L43.6124 80.9554L43.5538 76.2481C43.4756 70.6618 43.5342 70.779 41.3271 70.5056C38.7097 70.1931 36.3854 68.5914 35.2525 66.2866L34.7056 65.1732V52.6725V40.1718L35.233 39.0585C36.2096 36.988 38.1238 35.4255 40.37 34.8786C41.0927 34.7028 45.8781 34.6246 59.1015 34.6246L76.8369 34.6051L76.5048 35.1129ZM100.608 50.7193C101.174 51.0318 101.858 51.5592 102.112 51.8912C103.225 53.3562 103.167 52.0475 103.167 75.8184V97.6946H101.799H100.432L100.393 76.0918L100.334 54.489L99.7874 54.0203L99.2405 53.5515H93.5761H87.9313V51.774V50.0161L93.7519 50.0747L99.553 50.1333L100.608 50.7193ZM71.4264 53.1999C72.3445 53.864 73.0671 54.4304 73.0281 54.45C73.0086 54.4695 72.2273 54.7625 71.2897 55.0945L69.5709 55.6805V53.8445C69.5709 52.8288 69.6099 51.9889 69.6685 51.9889C69.7271 51.9889 70.5084 52.5358 71.4264 53.1999ZM64.8831 100.937C64.8831 101.093 64.6292 101.503 64.3167 101.816L63.7502 102.382H60H56.2498L55.6833 101.816C54.5114 100.644 54.5895 100.624 60 100.624C64.3167 100.624 64.8831 100.664 64.8831 100.937Z" fill="#DB0909"/>
<path d="M43.5146 46.344C42.87 46.8519 42.8114 47.8871 43.3974 48.4731C43.7685 48.8442 44.042 48.8637 52.4799 48.8637C60.9179 48.8637 61.1914 48.8442 61.5625 48.4731C62.1485 47.8871 62.0899 46.8519 61.4453 46.344C60.9375 45.9339 60.7226 45.9339 52.4799 45.9339C44.2373 45.9339 44.0224 45.9339 43.5146 46.344Z" fill="#DB0909"/>
<path d="M43.5146 56.6962C42.87 57.204 42.8114 58.2393 43.3974 58.8252C43.7685 59.1963 44.042 59.2159 52.4799 59.2159C60.9179 59.2159 61.1914 59.1963 61.5625 58.8252C62.1485 58.2393 62.0899 57.204 61.4453 56.6962C60.9375 56.286 60.7226 56.286 52.4799 56.286C44.2373 56.286 44.0224 56.286 43.5146 56.6962Z" fill="#DB0909"/>
</svg>
