<svg width="120" height="120" viewBox="0 0 120 120" fill="none" xmlns="http://www.w3.org/2000/svg">
<path d="M100.955 105.306C60.7027 114.823 36.2065 132.97 11.506 105.306C-13.1946 77.641 8.14683 54.2704 17.5583 17.9905C26.9698 -18.2894 95.9876 7.175 100.955 34.1149C105.921 61.0548 141.206 95.7884 100.955 105.306Z" fill="#EAEAEA"/>
<path d="M32.7406 10.196C31.2503 10.5566 29.0628 11.8306 28.0051 12.9845C27.4762 13.5614 26.683 14.7633 26.2743 15.6527L25.5051 17.2633L25.433 33.2008L25.3608 49.1143L25.9618 49.7152C26.7551 50.5085 27.8608 50.5085 28.6301 49.7152L29.231 49.1383V33.946C29.231 22.72 29.3031 18.5133 29.5195 17.7681C29.9041 16.446 31.8993 14.4508 33.2214 14.0662C34.6637 13.6575 85.3368 13.6575 86.7791 14.0662C88.1012 14.4508 90.0964 16.446 90.481 17.7681C90.6974 18.5133 90.7695 22.72 90.7695 33.946V49.1383L91.3705 49.7152C92.1397 50.5085 93.2455 50.5085 94.0387 49.7152L94.6397 49.1143L94.5676 33.1768L94.4955 17.2393L93.606 15.4123C92.5243 13.2248 91.1301 11.8787 88.8945 10.821L87.2839 10.0518L60.481 10.0037C44.808 9.97965 33.2935 10.0758 32.7406 10.196Z" fill="#DB0909"/>
<path d="M41.37 18.2249L40.769 18.8018V33.0086V47.2153L41.37 47.7922L41.9469 48.3932H60.9613H79.9758L80.5527 47.7922L81.1537 47.2153V33.0086V18.8018L80.5527 18.2249L79.9758 17.624H60.9613H41.9469L41.37 18.2249ZM77.3075 33.0086V44.547H60.9613H44.6152V33.0086V21.4701H60.9613H77.3075V33.0086Z" fill="#DB0909"/>
<path d="M60.0239 24.4508C53.822 25.3643 53.173 25.5085 52.7643 26.0133C52.3557 26.5181 52.3076 27.0229 52.3076 30.7008V34.8354L51.2499 35.1239C48.4614 35.8691 47.548 39.3787 49.6393 41.446C51.0816 42.8883 53.2211 43.0085 54.7355 41.7345C56.0576 40.6287 56.1537 40.0518 56.1537 34.2345V28.97L56.8268 28.8258C57.1874 28.7537 59.1105 28.4652 61.0816 28.2008C63.0768 27.9364 64.9278 27.6479 65.2403 27.5998C65.7691 27.4797 65.7691 27.5037 65.7691 30.196V32.9123L64.7114 33.2008C61.923 33.946 61.0095 37.4556 63.1009 39.5229C64.5432 40.9652 66.6826 41.0854 68.197 39.8114C69.5432 38.6575 69.6153 38.2489 69.6153 31.0854V24.571L69.0143 23.9941C68.2691 23.2248 68.3172 23.2248 60.0239 24.4508Z" fill="#DB0909"/>
<path d="M10.601 52.8403L10 53.4172V67.6239V81.8307L10.601 82.4076L11.1779 83.0085H30.1923H49.2067L49.7837 82.4076L50.3846 81.8307V67.6239V53.4172L49.7837 52.8403L49.2067 52.2393H30.1923H11.1779L10.601 52.8403ZM46.5385 65.3884V74.7153L42.3317 68.4172C36.6346 59.8835 37.1635 59.9557 32.3317 67.1672L28.9423 72.2393L26.6106 69.9316C23.2692 66.6624 23.726 66.5422 18.2452 71.9989L13.8462 76.3739V66.2297V56.0855H30.1923H46.5385V65.3884ZM40.9615 73.273L44.8558 79.1624H36.9231H28.9904L32.8846 73.273C35.0481 70.0518 36.851 67.4076 36.9231 67.4076C36.9952 67.4076 38.7981 70.0518 40.9615 73.273ZM25.0721 73.922C25.9135 74.7393 26.5865 75.5085 26.5865 75.6047C26.5865 75.7249 26.0817 76.5662 25.4808 77.4797L24.351 79.1624H20.4808H16.6106L19.976 75.797C21.8269 73.946 23.3894 72.4316 23.4615 72.4316C23.5096 72.4316 24.2548 73.1047 25.0721 73.922Z" fill="#DB0909"/>
<path d="M18.0527 58.3451C15.6248 59.4028 15.0479 62.6239 16.9469 64.5229C18.5094 66.0854 20.7209 66.0854 22.2834 64.5229C25.2642 61.5422 21.9229 56.6624 18.0527 58.3451Z" fill="#DB0909"/>
<path d="M70.2162 52.8403L69.6152 53.4172V67.6239V81.8307L70.2162 82.4076L70.7931 83.0085H89.8075H108.822L109.399 82.4076L110 81.8307V67.6239V53.4172L109.399 52.8403L108.822 52.2393H89.8075H70.7931L70.2162 52.8403ZM106.154 67.6239V79.1624H89.8075H73.4614V67.6239V56.0855H89.8075H106.154V67.6239Z" fill="#DB0909"/>
<path d="M81.7548 58.6095L81.1538 59.1864V67.6239V76.0614L81.7548 76.6383C82.0913 76.9989 82.5961 77.2393 83.0048 77.2393C83.4134 77.2152 86.3942 75.6527 90.8894 73.0806C98.6298 68.6575 98.8461 68.4652 98.3173 66.9508C98.149 66.422 96.8028 65.5566 90.8894 62.1671C86.3942 59.595 83.4134 58.0325 83.0048 58.0085C82.5961 58.0085 82.0913 58.2489 81.7548 58.6095ZM89.8557 66.0133C91.298 66.8306 92.4519 67.5518 92.4519 67.6239C92.4519 67.72 89.2307 69.6191 86.1538 71.3498L85 71.9989V67.6239V63.2489L86.1538 63.8979C86.7788 64.2345 88.4375 65.196 89.8557 66.0133Z" fill="#DB0909"/>
<path d="M25.9618 85.5326L25.3608 86.1335L25.433 94.3787L25.5051 102.624L26.3945 104.451C27.4762 106.638 28.8705 107.984 31.106 109.042L32.7166 109.811H60.0243H87.308L89.1349 108.922C91.3224 107.84 92.6685 106.446 93.7262 104.21L94.4955 102.6L94.5676 94.3787L94.6397 86.1335L94.0387 85.5326C93.2455 84.7393 92.1397 84.7393 91.3705 85.5326C90.8176 86.0614 90.7695 86.3018 90.7695 88.4172V90.7008H60.0003H29.231V88.4172C29.231 86.3018 29.183 86.0614 28.6301 85.5326C27.8608 84.7393 26.7551 84.7393 25.9618 85.5326ZM90.7695 97.8162C90.7695 99.6912 90.6493 101.518 90.481 102.095C90.0964 103.417 88.1012 105.412 86.7791 105.797C85.3368 106.206 34.6637 106.206 33.2214 105.797C31.8993 105.412 29.9041 103.417 29.5195 102.095C29.3512 101.518 29.231 99.6912 29.231 97.8162V94.547H60.0003H90.7695V97.8162Z" fill="#DB0909"/>
<path d="M52.9086 98.9941C52.524 99.3546 52.3076 99.8595 52.3076 100.316C52.3076 100.773 52.524 101.278 52.9086 101.638L53.4855 102.239H59.9999H66.5143L67.0913 101.638C67.4759 101.278 67.6922 100.773 67.6922 100.316C67.6922 99.8595 67.4759 99.3546 67.0913 98.9941L66.5143 98.3931H59.9999H53.4855L52.9086 98.9941Z" fill="#DB0909"/>
</svg>
