<svg width="120" height="120" viewBox="0 0 120 120" fill="none" xmlns="http://www.w3.org/2000/svg">
<path d="M14.6944 100.955C5.17718 60.7027 -12.9702 36.2065 14.6944 11.506C42.359 -13.1946 65.7296 8.14684 102.01 17.5583C138.289 26.9698 112.825 95.9876 85.8851 100.955C58.9452 105.921 24.2116 141.206 14.6944 100.955Z" fill="#EAEAEA"/>
<path d="M46.1675 9.98705C37.9523 10.8477 30.9302 13.6839 24.6905 18.6521C18.1771 23.8356 13.1892 31.5422 11.1746 39.5031C10.2357 43.2587 10.001 45.0973 10.001 49.381C9.9814 53.9189 10.2552 56.0509 11.3506 60.0607C13.1306 66.5547 16.6905 72.6378 21.5023 77.4692C26.6074 82.5548 33.5121 86.4081 40.4559 88.0316L41.9621 88.3837V93.4888C41.9621 98.3788 41.9816 98.6527 42.3728 99.1417C42.8814 99.7872 43.9181 99.8459 44.5049 99.259C44.8765 98.8874 44.8961 98.6136 44.8961 93.88V88.8922H45.6393C46.0305 88.8922 46.6956 88.9509 47.1063 89.0096L47.8301 89.1465V97.5182V105.89L48.3386 106.281C49.0428 106.829 49.5122 106.79 50.1968 106.125L50.7641 105.557V97.3226V89.0878H51.2335C51.4878 89.0878 52.0942 89.0291 52.6027 88.9705L53.5025 88.8335V93.7236C53.5025 98.3788 53.522 98.6527 53.9132 99.1417C54.4218 99.7872 55.4585 99.8459 56.0453 99.259C56.4169 98.8874 56.4365 98.6136 56.4365 93.6844V88.501L56.9842 88.3837C63.615 86.8971 68.2899 84.7846 73.8058 80.7553C74.2557 80.4227 74.2752 80.4423 76.7985 82.946C78.1872 84.3347 79.3217 85.5475 79.3217 85.6257C79.3217 85.7235 79.1457 86.0169 78.9305 86.2907C78.3242 87.0731 78.4024 88.4423 79.1066 89.4008C80.0454 90.6526 98.9209 109.372 99.6055 109.704C100.388 110.095 101.092 110.095 101.894 109.724C102.246 109.548 104.183 107.768 106.178 105.753C109.17 102.721 109.816 101.958 109.933 101.372C110.148 100.178 109.874 99.5133 108.662 98.2615C107.684 97.2835 107.429 97.1074 106.823 97.1074C105.219 97.1074 104.848 98.5549 106.119 99.9045L106.882 100.746L103.811 103.817L100.74 106.887L95.4587 101.606L90.1775 96.325L93.2485 93.2541L96.339 90.1832L98.9209 92.7456C100.525 94.3299 101.738 95.3666 102.07 95.4448C102.892 95.66 103.654 95.0341 103.733 94.0756C103.791 93.3519 103.733 93.2737 97.18 86.7015C89.2973 78.7601 89.0235 78.5254 87.7325 78.5254C87.1066 78.5254 86.6567 78.6428 86.3047 78.9166C86.0308 79.1318 85.7374 79.3078 85.6396 79.3078C85.5614 79.3078 84.3291 78.1733 82.9403 76.765L80.4171 74.2418L80.8865 73.5963C84.1139 69.2344 86.1091 65.2833 87.5369 60.3346L88.2411 57.8896L93.757 57.8309L99.2534 57.7918L99.6446 57.2637C100.173 56.5986 100.153 56.1683 99.5859 55.5032L99.1165 54.9556L93.8939 54.8969L88.6714 54.8382L88.7888 54.4079C88.8475 54.1732 88.9061 53.5668 88.9061 53.0387V52.1194H97.3365C105.708 52.1194 106.334 52.0802 106.745 51.4543C107.038 51.024 106.901 49.9678 106.51 49.5766C106.139 49.2049 105.865 49.1854 97.6104 49.1854H89.1017V48.1291C89.1017 47.5423 89.0431 46.936 88.9844 46.7599C88.8866 46.5056 89.5125 46.4665 93.9917 46.4078L99.1165 46.3492L99.5859 45.8015C100.153 45.1364 100.173 44.7061 99.6446 44.0411L99.2534 43.5129L93.9526 43.4738L88.6519 43.4151L88.2215 41.2635C87.3022 36.7647 85.0724 31.4444 82.4318 27.4933C80.2802 24.2854 79.4978 23.7573 78.4415 24.8331C77.7374 25.5373 77.8352 26.085 78.9892 27.6889C86.0895 37.5863 88.0064 49.3223 84.3682 60.7258C80.8278 71.7968 71.8107 80.8139 60.7397 84.3543C47.5562 88.5597 33.5512 85.1954 23.7125 75.4545C13.7369 65.5767 10.2944 51.1609 14.754 37.8405C20.5829 20.4125 38.676 9.90881 56.6321 13.5079C62.5588 14.701 68.5246 17.5568 72.9452 21.2927C73.6102 21.86 74.3535 22.4272 74.5882 22.5641C75.488 23.0336 76.5833 22.2903 76.5833 21.1949C76.5833 20.5886 75.977 19.9235 73.7471 18.1827C68.6811 14.1925 62.4023 11.4932 55.6541 10.3587C53.8546 10.0653 47.7714 9.83057 46.1675 9.98705ZM81.1408 79.0731L83.6249 81.5572L82.5883 82.5939L81.5711 83.611L79.0283 81.0682L76.5051 78.5254L77.4635 77.5474C77.9916 77.0193 78.4806 76.5694 78.5393 76.5694C78.598 76.5694 79.7716 77.6843 81.1408 79.0731ZM89.0039 82.8286L90.1775 84.0022L87.0871 87.0927L84.0161 90.1636L82.8034 88.9313L81.5711 87.7186L84.6029 84.6868C86.2655 83.0242 87.6739 81.655 87.7325 81.655C87.7912 81.655 88.3585 82.1831 89.0039 82.8286ZM93.3071 87.1318L94.2851 88.1098L91.1947 91.2003L88.1237 94.2712L87.1066 93.2346L86.0699 92.2174L89.1017 89.1856C90.7643 87.523 92.1727 86.1538 92.2313 86.1538C92.29 86.1538 92.779 86.6037 93.3071 87.1318Z" fill="#DB0909"/>
<path d="M45.6785 15.9529C34.5293 17.2438 24.7884 24.0312 19.5854 34.1241C13.5609 45.821 14.7345 59.5913 22.6172 69.9386C23.8886 71.6012 24.8079 72.4618 25.3165 72.4618C25.5121 72.4618 25.9033 72.2858 26.1967 72.0511C27.0769 71.3665 26.9008 70.6232 25.4143 68.7258C22.226 64.6965 20.3287 60.6476 19.2333 55.5815C18.6074 52.7062 18.6074 47.0924 19.2333 44.002C21.7761 31.2879 31.2236 21.7426 43.7812 19.2194C46.8912 18.5935 52.0551 18.5935 55.2042 19.2194C67.7813 21.7231 77.2484 31.1901 79.7521 43.7672C80.1041 45.5472 80.1824 46.623 80.1824 49.4788C80.1824 52.3345 80.1041 53.4103 79.7521 55.1903C77.8352 64.7943 71.7716 72.7748 63.1065 77.0584C55.791 80.6966 47.5758 81.2443 39.6931 78.6232C37.2872 77.8213 34.3923 76.3934 32.2016 74.9264C30.226 73.6159 30.0109 73.5376 29.2676 73.9288C28.5243 74.3005 28.2896 75.0633 28.6808 75.7675C29.4241 77.078 34.9791 80.1489 38.9303 81.4399C47.7714 84.3152 56.3974 83.6893 64.5539 79.6012C68.016 77.8604 70.3632 76.1587 73.2581 73.2442C76.1726 70.3493 77.8743 68.0021 79.6151 64.54C84.4465 54.8773 84.4465 44.1193 79.6151 34.4175C74.4904 24.129 64.5539 17.2243 53.0135 15.9333C50.9597 15.7182 47.7714 15.7182 45.6785 15.9529Z" fill="#DB0909"/>
<path d="M43.3704 23.9333C42.6662 24.6375 42.5489 25.283 42.5489 28.393V30.7989H37.385H32.2212L31.6344 31.3661C31.3018 31.7182 31.0084 32.2463 30.9498 32.6962C30.8715 33.107 30.8128 36.9016 30.8128 41.107V48.7941H29.5414C28.5243 48.7941 28.1918 48.8724 27.8788 49.1853C27.1356 49.9286 27.4485 51.1413 28.4852 51.513C29.3263 51.8064 70.6566 51.8259 71.4195 51.5325C72.4757 51.1218 72.8278 49.9286 72.0845 49.1853C71.7716 48.8724 71.439 48.7941 70.4219 48.7941H69.1505V44.8234C69.1505 40.0703 69.0723 39.5618 68.329 38.7989L67.7422 38.2317H62.5783H57.4145V32.1094C57.4145 28.7646 57.3558 25.6742 57.2776 25.2634C57.2189 24.8135 56.9255 24.2854 56.593 23.9333L56.0062 23.3661H49.9817H43.9572L43.3704 23.9333ZM54.2849 37.5471V48.7941H49.9817H45.6785V37.5471V26.3001H49.9817H54.2849V37.5471ZM42.5489 41.2635V48.7941H38.2457H33.9424V41.2635V33.7329H38.2457H42.5489V41.2635ZM66.0209 44.9799V48.7941H61.7177H57.4145V44.9799V41.1657H61.7177H66.0209V44.9799Z" fill="#DB0909"/>
<path d="M54.3433 55.2881C53.8348 55.5424 53.6783 55.914 51.2529 62.4666L49.336 67.6109L47.7907 63.249C46.2064 58.6915 45.913 58.183 44.8959 58.183C44.1917 58.183 43.8983 58.5546 42.2552 61.4691L40.8469 63.9532L36.9545 64.0705C34.8224 64.1292 33.0425 64.1879 33.0229 64.2075C32.71 64.4813 32.397 65.518 32.4948 65.9092C32.7491 66.9263 33.0816 66.985 37.8151 66.985C42.8812 66.985 42.5095 67.1219 43.82 64.6965C44.3286 63.738 44.6416 63.3468 44.7394 63.5229C44.8176 63.6598 45.5805 65.8114 46.4607 68.276C47.4778 71.1904 48.1624 72.8726 48.4362 73.0877C49.0035 73.5572 49.7272 73.518 50.2357 72.9899C50.49 72.7356 51.5267 70.232 52.7981 66.7307C53.9913 63.5424 55.0084 60.9801 55.0866 61.0583C55.1649 61.1561 55.693 62.3493 56.2211 63.7576C56.7688 65.1464 57.4143 66.4569 57.6294 66.6329C58.0011 66.9459 58.5488 66.985 62.5194 66.985C66.7444 66.985 67.0182 66.9654 67.3899 66.5938C67.9767 66.007 67.918 64.9703 67.2725 64.4617C66.7835 64.0705 66.4901 64.051 63.1062 64.051H59.4681L57.9033 60.0021C57.0622 57.7918 56.2211 55.8162 56.0451 55.6206C55.6734 55.1707 54.891 55.0143 54.3433 55.2881Z" fill="#DB0909"/>
</svg>
